<svg width="66" height="67" viewBox="0 0 66 67" fill="none" xmlns="http://www.w3.org/2000/svg">
<ellipse opacity="0.8" cx="33" cy="33.3793" rx="33" ry="33.3793" fill="white"/>
<path d="M42.69 28.8558C42.69 29.3829 42.5862 29.9049 42.3845 30.3919C42.1827 30.8789 41.8871 31.3213 41.5143 31.6941C41.1416 32.0668 40.6991 32.3624 40.2121 32.5641C39.7251 32.7658 39.2031 32.8697 38.676 32.8696C33.3625 32.686 33.3639 25.0246 38.676 24.8418C39.2031 24.8418 39.7251 24.9456 40.2121 25.1473C40.6991 25.3491 41.1416 25.6447 41.5143 26.0175C41.8871 26.3902 42.1827 26.8327 42.3845 27.3197C42.5862 27.8067 42.69 28.3287 42.69 28.8558Z" fill="white"/>
<path d="M19.7422 50.8203C19.7422 50.8203 23.6173 53.7267 26.889 55.5291C27.279 55.7425 27.7217 55.8404 28.1654 55.8113C28.609 55.7822 29.0352 55.6273 29.3939 55.3647L29.8351 55.0431C29.9551 54.9558 30.0563 54.8451 30.1324 54.7177C30.2086 54.5903 30.2582 54.4488 30.2782 54.3017C30.2983 54.1546 30.2884 54.005 30.2491 53.8618C30.2098 53.7187 30.142 53.585 30.0497 53.4687C28.6212 51.6617 27.4646 49.6554 26.6167 47.5137L19.7422 50.8203Z" fill="white"/>
<path d="M19.9961 32.2815C19.9961 32.2815 24.708 22.9616 28.5435 16.7313C28.6639 16.5363 28.83 16.3735 29.0273 16.257C29.2247 16.1405 29.4474 16.0736 29.6763 16.0623C29.9052 16.0509 30.1334 16.0954 30.3413 16.1918C30.5492 16.2882 30.7305 16.4337 30.8697 16.6158L48.6594 39.8571C48.7978 40.0375 48.8907 40.2486 48.9302 40.4725C48.9696 40.6965 48.9545 40.9267 48.8861 41.1435C48.8176 41.3604 48.6979 41.5575 48.537 41.7182C48.3762 41.879 48.1789 41.9985 47.962 42.0668C44.2165 43.2465 35.719 45.75 29.2603 46.3664C29.2603 46.3664 23.5053 44.4747 19.9961 32.2815Z" fill="white"/>
<path d="M10.6659 44.2749C10.9937 46.2364 12.6409 49.3948 15.024 50.8114C17.6483 52.2427 23.2146 50.99 29.2577 46.368C29.2577 46.368 22.816 39.3605 19.9935 32.2832C19.9935 32.2832 15.254 35.7244 12.0773 39.5155C11.6122 40.0645 11.2483 40.6917 11.0024 41.3679C10.6634 42.297 10.5481 43.2929 10.6659 44.2749Z" fill="white"/>
<path d="M15.5588 43.7952C14.9547 43.81 14.7003 42.9657 15.2278 42.6485L16.7298 41.7046C16.8692 41.6169 17.0377 41.5883 17.1983 41.6249C17.3588 41.6616 17.4982 41.7605 17.5859 41.8999C17.6735 42.0393 17.7021 42.2079 17.6655 42.3684C17.6289 42.529 17.53 42.6684 17.3905 42.756L15.8886 43.6999C15.7899 43.7622 15.6755 43.7953 15.5588 43.7952ZM16.6889 45.5935C16.0848 45.6082 15.8304 44.7638 16.358 44.4467L17.8598 43.503C17.9992 43.4153 18.1677 43.3867 18.3283 43.4233C18.4888 43.46 18.6283 43.5589 18.7159 43.6983C18.8035 43.8377 18.8321 44.0063 18.7955 44.1668C18.7589 44.3274 18.66 44.4668 18.5205 44.5544L17.0192 45.4982C16.9204 45.5606 16.8058 45.5936 16.6889 45.5935ZM17.8189 47.3918C17.2148 47.4064 16.9604 46.5623 17.488 46.2451L18.9899 45.3012C19.1294 45.2136 19.2979 45.1849 19.4584 45.2215C19.619 45.2582 19.7584 45.3571 19.846 45.4965C19.9337 45.636 19.9623 45.8045 19.9257 45.965C19.889 46.1256 19.7901 46.265 19.6507 46.3526L18.1488 47.2965C18.05 47.3588 17.9357 47.3919 17.8189 47.3918Z" fill="white"/>
<path d="M41.9806 31.7555C41.868 31.754 41.7578 31.7221 41.6618 31.6632C41.5658 31.6043 41.4875 31.5205 41.4352 31.4207C41.3829 31.321 41.3586 31.2089 41.3647 31.0964C41.3709 30.984 41.4073 30.8752 41.4702 30.7818C41.876 30.1915 42.0847 29.4879 42.0665 28.7718C42.0482 28.0557 41.8038 27.3637 41.3684 26.7948C40.9329 26.226 40.3287 25.8095 39.6422 25.6049C38.9557 25.4003 38.222 25.4181 37.5463 25.6558C36.7742 25.9155 36.3666 24.7692 37.1327 24.485C40.0664 23.3967 43.3667 25.719 43.3105 28.8564C43.3575 29.5667 42.8405 31.7533 41.9806 31.7555ZM28.0091 56.4369C27.5135 56.4376 27.0257 56.313 26.5913 56.0745C23.8301 54.5533 20.622 52.238 19.7046 51.5647C19.5741 51.4665 19.4875 51.3207 19.4637 51.1591C19.4398 50.9974 19.4807 50.8329 19.5774 50.7012C19.674 50.5695 19.8187 50.4812 19.9801 50.4554C20.1414 50.4297 20.3064 50.4686 20.4393 50.5637C21.3416 51.2257 24.4947 53.5014 27.1904 54.9875C28.0286 55.4399 28.7928 55.1141 29.4712 54.5435C29.5234 54.5053 29.5673 54.457 29.6004 54.4014C29.6335 54.3458 29.6551 54.2842 29.6639 54.2201C29.6726 54.156 29.6684 54.0909 29.6515 54.0285C29.6346 53.966 29.6052 53.9077 29.5653 53.8568C28.6822 52.7381 27.898 51.5447 27.2215 50.2902C26.8463 49.5678 27.9148 48.9874 28.3147 49.7003C28.9563 50.8906 29.7002 52.0228 30.5379 53.0841C30.6828 53.2654 30.7892 53.4744 30.8506 53.6982C30.912 53.922 30.9271 54.156 30.8949 54.3858C30.8282 55.0708 30.301 55.5149 29.761 55.8677C29.2519 56.2379 28.6385 56.4372 28.0091 56.4369Z" fill="#383A49"/>
<path d="M29.2599 46.9876C28.4838 46.9743 28.4233 45.8361 29.2016 45.7488C35.6802 45.1296 44.3494 42.5531 47.776 41.4741C47.8976 41.4357 48.0082 41.3686 48.0984 41.2785C48.1886 41.1883 48.2557 41.0777 48.294 40.9561C48.3323 40.8345 48.3408 40.7054 48.3186 40.5799C48.2965 40.4543 48.2444 40.3359 48.1667 40.2348L30.3772 16.9936C30.2992 16.8915 30.1976 16.8099 30.0811 16.7557C29.9646 16.7016 29.8366 16.6765 29.7083 16.6828C29.5799 16.689 29.455 16.7263 29.3443 16.7915C29.2336 16.8567 29.1403 16.9478 29.0726 17.057C25.295 23.1934 20.5976 32.4691 20.551 32.5621C20.1794 33.282 19.0825 32.7376 19.4427 32.0017C19.4893 31.9086 24.2103 22.5872 28.0154 16.4061C28.7075 15.2109 30.5542 15.1178 31.3635 16.239L49.1528 39.4799C49.3517 39.7396 49.4851 40.0433 49.5417 40.3654C49.5983 40.6876 49.5764 41.0186 49.4779 41.3305C49.3794 41.6423 49.2071 41.9259 48.9758 42.157C48.7445 42.3882 48.4608 42.5602 48.1489 42.6585C44.6758 43.7496 35.8585 46.3764 29.2599 46.9876Z" fill="#383A49"/>
<path d="M17.6055 51.9991C16.4983 51.9991 15.5227 51.7895 14.7275 51.3559C12.1995 49.8692 10.4312 46.5991 10.0506 44.3522C9.93666 43.4196 10.0157 42.4737 10.2827 41.5729C10.5497 40.6722 10.999 39.836 11.6028 39.1163C14.8779 35.3592 19.7298 31.3346 20.168 31.686C20.2587 31.7125 20.3422 31.7592 20.4121 31.8228C20.482 31.8863 20.5366 31.9649 20.5716 32.0527C23.319 38.9387 29.652 45.8781 29.7162 45.9474C29.774 46.0112 29.818 46.0862 29.8454 46.1678C29.8728 46.2494 29.8831 46.3358 29.8756 46.4215C29.8681 46.5073 29.843 46.5906 29.8018 46.6662C29.7606 46.7418 29.7043 46.808 29.6363 46.8608C25.3257 50.1574 20.8879 51.9991 17.6055 51.9991ZM19.7292 33.2603C18.3437 34.3251 14.9669 37.0348 12.554 39.9139C12.0601 40.5027 11.6924 41.1866 11.4736 41.9233C11.2549 42.66 11.1899 43.4338 11.2826 44.1966C11.5818 45.9537 13.1225 48.9481 15.3222 50.2657C17.456 51.4299 22.4018 50.6502 28.3452 46.2766C26.8704 44.5951 22.2467 39.0768 19.7292 33.2603ZM40.4499 13.7659C40.52 13.8073 40.5977 13.8346 40.6784 13.8461C40.7592 13.8576 40.8414 13.853 40.9203 13.8327C40.9993 13.8124 41.0735 13.7768 41.1387 13.7278C41.2039 13.6788 41.2588 13.6175 41.3003 13.5473L42.8401 10.9412C42.8824 10.8709 42.9103 10.793 42.9224 10.712C42.9344 10.6309 42.9302 10.5482 42.9101 10.4688C42.8901 10.3893 42.8544 10.3146 42.8053 10.249C42.7562 10.1833 42.6946 10.1281 42.6241 10.0864C42.5535 10.0447 42.4754 10.0173 42.3942 10.006C42.313 9.99463 42.2304 9.99946 42.1511 10.0202C42.0718 10.0409 41.9974 10.0772 41.9322 10.1268C41.867 10.1764 41.8122 10.2385 41.7711 10.3094L40.2311 12.9156C40.1474 13.0573 40.1234 13.2265 40.1644 13.386C40.2054 13.5454 40.3081 13.6821 40.4499 13.7659ZM56.3093 31.2125L53.3063 31.5926C52.5446 31.6967 52.6193 32.8232 53.3839 32.8295C53.4103 32.8296 53.4366 32.8279 53.4627 32.8246L56.4653 32.4443C57.272 32.3282 57.1221 31.1249 56.3093 31.2125ZM54.1611 17.3735C54.0562 17.2465 53.9052 17.1664 53.7413 17.1508C53.5774 17.1352 53.414 17.1853 53.287 17.2901L50.953 19.2178C50.8901 19.2698 50.8381 19.3336 50.7999 19.4057C50.7617 19.4778 50.7381 19.5567 50.7304 19.6379C50.7227 19.7191 50.7311 19.801 50.7551 19.879C50.779 19.957 50.8181 20.0295 50.8701 20.0923C50.9221 20.1552 50.9859 20.2072 51.058 20.2454C51.1301 20.2836 51.209 20.3072 51.2902 20.3149C51.3714 20.3226 51.4533 20.3142 51.5313 20.2902C51.6093 20.2663 51.6818 20.2272 51.7446 20.1752L54.0777 18.2475C54.2047 18.1427 54.2848 17.9917 54.3004 17.8278C54.316 17.6639 54.2659 17.5004 54.1611 17.3735ZM45.9558 42.6828L30.555 22.0222C30.4462 21.8762 30.2838 21.7794 30.1036 21.7531C29.9235 21.7268 29.7402 21.7732 29.5942 21.882C29.4482 21.9908 29.3514 22.1532 29.3251 22.3334C29.2989 22.5136 29.3452 22.6968 29.454 22.8428L44.5514 43.0963C45.0448 42.9535 45.515 42.8149 45.9558 42.6828Z" fill="#383A49"/>
</svg>
