<svg width="122" height="64" viewBox="0 0 122 64" fill="none" xmlns="http://www.w3.org/2000/svg">
<path d="M51.7401 14.728V19.66H45.0441V40H38.8881V19.66H32.1921V14.728H51.7401ZM66.7817 40.252C64.4057 40.252 62.2217 39.7 60.2297 38.596C58.2617 37.492 56.6897 35.956 55.5137 33.988C54.3617 31.996 53.7857 29.764 53.7857 27.292C53.7857 24.82 54.3617 22.6 55.5137 20.632C56.6897 18.664 58.2617 17.128 60.2297 16.024C62.2217 14.92 64.4057 14.368 66.7817 14.368C69.1577 14.368 71.3297 14.92 73.2977 16.024C75.2897 17.128 76.8497 18.664 77.9777 20.632C79.1297 22.6 79.7057 24.82 79.7057 27.292C79.7057 29.764 79.1297 31.996 77.9777 33.988C76.8257 35.956 75.2657 37.492 73.2977 38.596C71.3297 39.7 69.1577 40.252 66.7817 40.252ZM66.7817 34.636C68.7977 34.636 70.4057 33.964 71.6057 32.62C72.8297 31.276 73.4417 29.5 73.4417 27.292C73.4417 25.06 72.8297 23.284 71.6057 21.964C70.4057 20.62 68.7977 19.948 66.7817 19.948C64.7417 19.948 63.1097 20.608 61.8857 21.928C60.6857 23.248 60.0857 25.036 60.0857 27.292C60.0857 29.524 60.6857 31.312 61.8857 32.656C63.1097 33.976 64.7417 34.636 66.7817 34.636ZM92.5984 14.728C95.2624 14.728 97.5904 15.256 99.5824 16.312C101.574 17.368 103.11 18.856 104.19 20.776C105.294 22.672 105.846 24.868 105.846 27.364C105.846 29.836 105.294 32.032 104.19 33.952C103.11 35.872 101.562 37.36 99.5464 38.416C97.5544 39.472 95.2384 40 92.5984 40H83.1304V14.728H92.5984ZM92.2024 34.672C94.5304 34.672 96.3424 34.036 97.6384 32.764C98.9344 31.492 99.5824 29.692 99.5824 27.364C99.5824 25.036 98.9344 23.224 97.6384 21.928C96.3424 20.632 94.5304 19.984 92.2024 19.984H89.2864V34.672H92.2024ZM115.443 14.728V40H109.287V14.728H115.443Z" fill="white"/>
<path d="M56.48 56.73C56.6 57.0033 56.66 57.2167 56.66 57.37C56.66 57.5233 56.6034 57.6467 56.49 57.74C56.3767 57.8333 56.2434 57.88 56.09 57.88C55.9367 57.88 55.82 57.8467 55.74 57.78C55.66 57.7133 55.59 57.57 55.53 57.35C55.3967 56.9433 55.07 56.9067 54.55 57.24C54.1034 57.5067 53.78 57.8933 53.58 58.4C53.38 58.9067 53.3267 59.41 53.42 59.91C53.5134 60.41 53.75 60.79 54.13 61.05C54.6034 61.37 55.08 61.3533 55.56 61C55.8334 60.8067 56.0167 60.63 56.11 60.47C56.2367 60.2767 56.4067 60.1933 56.62 60.22C56.8334 60.2467 56.98 60.3633 57.06 60.57C57.18 60.8833 56.94 61.29 56.34 61.79C55.5067 62.47 54.6767 62.5933 53.85 62.16C53.2034 61.8267 52.75 61.3067 52.49 60.6C52.23 59.8933 52.2167 59.1467 52.45 58.36C52.59 57.88 52.7734 57.49 53 57.19C53.2267 56.89 53.5134 56.6267 53.86 56.4C54.2067 56.1733 54.4467 56.04 54.58 56C54.7134 55.96 54.9534 55.94 55.3 55.94C55.6534 55.94 55.9067 56.0067 56.06 56.14C56.22 56.26 56.36 56.4567 56.48 56.73ZM60.4302 57.04C60.0435 56.84 59.7402 56.74 59.5202 56.74C59.3002 56.74 59.0535 56.8067 58.7802 56.94C58.8335 58.0133 58.8868 58.6067 58.9402 58.72C58.9868 58.7733 59.2368 58.7467 59.6902 58.64C60.1435 58.5333 60.5035 58.4067 60.7702 58.26C61.0368 58.1133 61.2035 57.9833 61.2702 57.87C61.3368 57.7567 61.3102 57.64 61.1902 57.52C61.0702 57.4 60.8168 57.24 60.4302 57.04ZM61.9202 62.65C61.7268 62.65 61.5668 62.5667 61.4402 62.4C61.3535 62.2933 60.9735 61.93 60.3002 61.31C59.6268 60.69 59.2368 60.3467 59.1302 60.28C59.0902 60.2533 59.0768 60.5267 59.0902 61.1C59.1035 61.6733 59.1002 62.0133 59.0802 62.12C59.0602 62.2267 58.9935 62.3167 58.8802 62.39C58.7268 62.5033 58.5702 62.5267 58.4102 62.46C58.2502 62.3933 58.1502 62.2833 58.1102 62.13C58.0702 61.9767 58.0302 61.5667 57.9902 60.9C57.9502 60.2333 57.8802 59.8267 57.7802 59.68C57.6868 59.5333 57.6668 59.3967 57.7202 59.27C57.7735 59.1433 57.7768 58.6333 57.7302 57.74C57.6835 56.8467 57.6735 56.3533 57.7002 56.26C57.7335 56.0867 57.8135 55.9533 57.9402 55.86C58.0668 55.7667 58.2102 55.74 58.3702 55.78C58.5302 55.82 58.6835 55.8133 58.8302 55.76C59.1235 55.64 59.4768 55.62 59.8902 55.7C60.3035 55.78 60.7635 55.9667 61.2702 56.26C61.7768 56.5533 62.1202 56.86 62.3002 57.18C62.4802 57.5 62.4802 57.8567 62.3002 58.25C62.1735 58.5233 61.9835 58.76 61.7302 58.96C61.4768 59.16 61.1068 59.3467 60.6202 59.52L60.1502 59.7C61.4368 60.8133 62.1768 61.5267 62.3702 61.84C62.4502 61.9867 62.4902 62.0933 62.4902 62.16C62.4902 62.2267 62.4435 62.3267 62.3502 62.46C62.2568 62.5933 62.1135 62.6567 61.9202 62.65ZM64.5306 56.96C64.4506 56.9867 64.4106 57.0533 64.4106 57.16C64.4106 57.2667 64.3672 57.71 64.2806 58.49C65.1339 58.43 65.7139 58.38 66.0206 58.34C66.3272 58.3 66.5206 58.2933 66.6006 58.32C66.6806 58.3467 66.7872 58.42 66.9206 58.54C67.0406 58.66 67.1006 58.76 67.1006 58.84C67.1006 58.92 67.0439 59.0233 66.9306 59.15C66.8106 59.2633 66.6706 59.34 66.5106 59.38C66.3506 59.42 66.0106 59.4533 65.4906 59.48L64.3106 59.55C64.2906 59.9567 64.3206 60.3267 64.4006 60.66C64.4806 60.9933 64.6172 61.1867 64.8106 61.24C65.0239 61.2933 66.1672 61.3567 68.2406 61.43L68.3706 61.7C68.4306 61.82 68.4606 61.9067 68.4606 61.96C68.4606 62.0133 68.4306 62.0833 68.3706 62.17C68.3106 62.2567 68.2672 62.3133 68.2406 62.34C68.2139 62.3667 68.1372 62.39 68.0106 62.41C67.8839 62.43 67.7372 62.44 67.5706 62.44C67.4039 62.44 67.1172 62.4433 66.7106 62.45C65.6106 62.45 64.8406 62.3767 64.4006 62.23C63.9606 62.0833 63.6472 61.8 63.4606 61.38C63.3672 61.1467 63.2739 60.6633 63.1806 59.93C63.0872 59.1967 63.0672 58.7833 63.1206 58.69C63.1739 58.59 63.2206 58.3067 63.2606 57.84C63.3006 57.3733 63.3272 57.06 63.3406 56.9C63.3539 56.74 63.3939 56.59 63.4606 56.45C63.5272 56.31 63.5972 56.2067 63.6706 56.14C63.7439 56.0733 63.8672 56.0133 64.0406 55.96C64.2206 55.9067 64.4039 55.8667 64.5906 55.84C64.7772 55.8133 65.1639 55.7733 65.7506 55.72C66.3372 55.6667 66.7139 55.6133 66.8806 55.56C67.3139 55.4267 67.6272 55.4467 67.8206 55.62C67.9272 55.7133 67.9806 55.8333 67.9806 55.98C67.9806 56.1267 67.9272 56.2533 67.8206 56.36C67.7206 56.4667 67.4372 56.5667 66.9706 56.66C66.5039 56.7533 66.0006 56.82 65.4606 56.86C64.9206 56.9 64.6106 56.9333 64.5306 56.96ZM72.9974 59.6C72.984 59.4933 72.7874 58.9567 72.4074 57.99C71.9607 58.83 71.7307 59.3067 71.7174 59.42C71.7307 59.4467 71.944 59.4867 72.3574 59.54C72.7707 59.5933 72.984 59.6133 72.9974 59.6ZM69.2574 62.16C69.124 62.0267 69.0574 61.92 69.0574 61.84C69.0574 61.76 69.1707 61.5533 69.3974 61.22C69.624 60.8867 70.104 60.0133 70.8374 58.6C71.5707 57.1867 71.9874 56.4033 72.0874 56.25C72.1607 56.15 72.2907 56.1133 72.4774 56.14C72.664 56.1667 72.814 56.2467 72.9274 56.38C73.0407 56.5133 73.144 56.7333 73.2374 57.04C73.3307 57.3467 73.564 57.9933 73.9374 58.98C74.3107 59.9667 74.5707 60.6333 74.7174 60.98C74.864 61.3267 74.9507 61.5767 74.9774 61.73C75.004 61.8833 74.984 62 74.9174 62.08C74.8507 62.16 74.7274 62.2133 74.5474 62.24C74.374 62.2667 74.224 62.2167 74.0974 62.09C73.9707 61.9633 73.8607 61.7867 73.7674 61.56C73.6674 61.3333 73.5974 61.18 73.5574 61.1C73.5174 61.02 73.464 60.9567 73.3974 60.91C73.3307 60.8767 73.2707 60.8533 73.2174 60.84C73.164 60.8267 73.0774 60.8067 72.9574 60.78C72.8374 60.7533 72.6607 60.7067 72.4274 60.64C72.194 60.5733 71.764 60.5233 71.1374 60.49L70.6074 61.33C70.354 61.7433 70.1607 62.0167 70.0274 62.15C69.8874 62.29 69.7574 62.36 69.6374 62.36C69.5174 62.36 69.3907 62.2933 69.2574 62.16ZM78.4906 57.2C78.4172 57.2 78.4006 57.2567 78.4406 57.37C78.4806 57.5633 78.5172 58.28 78.5506 59.52C78.5906 60.76 78.6039 61.5133 78.5906 61.78C78.5772 62.0467 78.5272 62.22 78.4406 62.3C78.3539 62.38 78.2372 62.4267 78.0906 62.44C77.9439 62.4533 77.8206 62.42 77.7206 62.34C77.6206 62.26 77.5506 62.0067 77.5106 61.58C77.4706 61.1533 77.4306 60.2767 77.3906 58.95L77.3306 57.16L76.6006 57.11C76.2206 57.0767 75.9572 57.02 75.8106 56.94C75.6639 56.86 75.5906 56.7067 75.5906 56.48C75.5906 56.2533 75.7106 56.1067 75.9506 56.04C76.1906 55.9733 76.5839 55.97 77.1306 56.03C77.6772 56.09 78.0239 56.1133 78.1706 56.1C78.3172 56.0867 78.5239 56.0333 78.7906 55.94C79.0572 55.8333 79.2506 55.7733 79.3706 55.76C79.4906 55.7467 79.6239 55.7733 79.7706 55.84C79.8772 55.9067 79.9372 56.0333 79.9506 56.22C79.9639 56.4067 79.9239 56.5467 79.8306 56.64C79.7372 56.7333 79.5139 56.85 79.1606 56.99C78.8139 57.13 78.5906 57.2 78.4906 57.2ZM80.6015 55.9C80.6882 55.8067 80.8215 55.76 81.0015 55.76C81.1815 55.76 81.3248 55.81 81.4315 55.91C81.5382 56.01 81.6415 56.4233 81.7415 57.15C81.8348 57.8767 81.8948 58.8133 81.9215 59.96C81.9548 61.1067 81.9915 61.8467 82.0315 62.18C82.0715 62.5133 82.0448 62.7433 81.9515 62.87C81.8648 62.97 81.7282 63.0267 81.5415 63.04C81.3548 63.0533 81.2215 63.0133 81.1415 62.92C81.0482 62.8267 80.9682 62.44 80.9015 61.76C80.8348 61.08 80.8015 60.2867 80.8015 59.38C80.8015 58.4733 80.7482 57.6967 80.6415 57.05C80.5348 56.3967 80.5215 56.0133 80.6015 55.9ZM83.1511 57.38C82.8178 56.7267 82.6511 56.3333 82.6511 56.2C82.6511 56.0667 82.7078 55.9433 82.8211 55.83C82.9211 55.7167 83.0445 55.66 83.1911 55.66C83.3378 55.66 83.4578 55.7133 83.5511 55.82C83.6445 55.9267 83.7545 56.12 83.8811 56.4C84.0078 56.68 84.2711 57.17 84.6711 57.87C85.0711 58.5633 85.4578 59.2033 85.8311 59.79C86.2045 60.3767 86.4078 60.6567 86.4411 60.63C86.5145 60.4633 86.6845 60.0133 86.9511 59.28C87.2178 58.5467 87.4045 58.06 87.5111 57.82C87.6178 57.58 87.7345 57.3067 87.8611 57C87.9878 56.6933 88.0611 56.5167 88.0811 56.47C88.1545 56.29 88.2711 56.16 88.4311 56.08C88.5911 56 88.7445 55.9933 88.8911 56.06C89.0378 56.1267 89.1211 56.2433 89.1411 56.41C89.1611 56.5767 88.9678 57.16 88.5611 58.16C88.1545 59.16 87.8311 60.03 87.5911 60.77C87.3511 61.51 87.1778 61.9867 87.0711 62.2C86.9645 62.4133 86.8511 62.5433 86.7311 62.59C86.5578 62.6433 86.4078 62.6233 86.2811 62.53C86.1545 62.4367 86.0078 62.24 85.8411 61.94C85.6745 61.64 85.2711 60.97 84.6311 59.93C83.9778 58.8833 83.4845 58.0333 83.1511 57.38ZM91.181 56.96C91.101 56.9867 91.061 57.0533 91.061 57.16C91.061 57.2667 91.0176 57.71 90.931 58.49C91.7843 58.43 92.3643 58.38 92.671 58.34C92.9776 58.3 93.171 58.2933 93.251 58.32C93.331 58.3467 93.4376 58.42 93.571 58.54C93.691 58.66 93.751 58.76 93.751 58.84C93.751 58.92 93.6943 59.0233 93.581 59.15C93.461 59.2633 93.321 59.34 93.161 59.38C93.001 59.42 92.661 59.4533 92.141 59.48L90.961 59.55C90.941 59.9567 90.971 60.3267 91.051 60.66C91.131 60.9933 91.2676 61.1867 91.461 61.24C91.6743 61.2933 92.8176 61.3567 94.891 61.43L95.021 61.7C95.081 61.82 95.111 61.9067 95.111 61.96C95.111 62.0133 95.081 62.0833 95.021 62.17C94.961 62.2567 94.9176 62.3133 94.891 62.34C94.8643 62.3667 94.7876 62.39 94.661 62.41C94.5343 62.43 94.3876 62.44 94.221 62.44C94.0543 62.44 93.7676 62.4433 93.361 62.45C92.261 62.45 91.491 62.3767 91.051 62.23C90.611 62.0833 90.2976 61.8 90.111 61.38C90.0176 61.1467 89.9243 60.6633 89.831 59.93C89.7376 59.1967 89.7176 58.7833 89.771 58.69C89.8243 58.59 89.871 58.3067 89.911 57.84C89.951 57.3733 89.9776 57.06 89.991 56.9C90.0043 56.74 90.0443 56.59 90.111 56.45C90.1776 56.31 90.2476 56.2067 90.321 56.14C90.3943 56.0733 90.5176 56.0133 90.691 55.96C90.871 55.9067 91.0543 55.8667 91.241 55.84C91.4276 55.8133 91.8143 55.7733 92.401 55.72C92.9876 55.6667 93.3643 55.6133 93.531 55.56C93.9643 55.4267 94.2776 55.4467 94.471 55.62C94.5776 55.7133 94.631 55.8333 94.631 55.98C94.631 56.1267 94.5776 56.2533 94.471 56.36C94.371 56.4667 94.0876 56.5667 93.621 56.66C93.1543 56.7533 92.651 56.82 92.111 56.86C91.571 56.9 91.261 56.9333 91.181 56.96ZM100.578 59.34H102.218C103.125 59.34 103.678 59.3667 103.878 59.42C104.078 59.4733 104.178 59.6267 104.178 59.88C104.178 60.1333 104.085 60.2867 103.898 60.34C103.712 60.3933 103.165 60.4167 102.258 60.41H100.578C100.578 61.6033 100.538 62.28 100.458 62.44C100.385 62.6 100.255 62.6933 100.068 62.72C99.8818 62.7467 99.7218 62.6967 99.5885 62.57C99.5018 62.4833 99.4518 62.3133 99.4385 62.06C99.4251 61.8067 99.4351 61.0033 99.4685 59.65C99.5018 58.2967 99.5185 57.39 99.5185 56.93C99.5118 56.79 99.5818 56.6467 99.7285 56.5C99.8751 56.3533 100.012 56.27 100.138 56.25C100.265 56.23 100.628 56.2333 101.228 56.26C101.828 56.2867 102.378 56.36 102.878 56.48C103.378 56.6 103.722 56.7367 103.908 56.89C104.015 56.9767 104.068 57.09 104.068 57.23C104.068 57.37 104.015 57.4967 103.908 57.61C103.802 57.7233 103.675 57.78 103.528 57.78C103.382 57.78 103.112 57.7133 102.718 57.58C102.332 57.4467 101.618 57.3867 100.578 57.4V59.34ZM108.94 56.2C109.02 56.0267 109.15 55.94 109.33 55.94C109.51 55.94 109.633 55.96 109.7 56C109.767 56.04 109.82 56.1433 109.86 56.31C109.9 56.4767 109.917 56.7267 109.91 57.06C109.897 57.3933 109.89 57.8433 109.89 58.41C109.837 60.15 109.907 61.2767 110.1 61.79C110.14 61.8767 110.087 62.0067 109.94 62.18C109.793 62.3533 109.667 62.4433 109.56 62.45C109.453 62.4433 109.33 62.3467 109.19 62.16C109.05 61.9733 108.967 61.8067 108.94 61.66C108.913 61.5133 108.893 61.4167 108.88 61.37C108.867 61.3233 108.853 61.2667 108.84 61.2C108.827 61.1333 108.81 61.1 108.79 61.1C108.77 61.1 108.75 61.0933 108.73 61.08C108.71 61.0667 108.673 61.08 108.62 61.12C108.567 61.16 108.527 61.2 108.5 61.24C108.46 61.2733 108.397 61.33 108.31 61.41C107.823 61.8633 107.327 62.04 106.82 61.94C106.313 61.84 105.843 61.4767 105.41 60.85C105.137 60.4433 104.96 60.04 104.88 59.64C104.8 59.24 104.767 58.6333 104.78 57.82C104.793 57.0067 104.81 56.5067 104.83 56.32C104.857 56.1333 104.917 55.9967 105.01 55.91C105.15 55.81 105.24 55.76 105.28 55.76C105.32 55.76 105.407 55.8 105.54 55.88C105.673 55.96 105.76 56.03 105.8 56.09C105.84 56.15 105.857 56.5733 105.85 57.36C105.83 58.1467 105.833 58.6667 105.86 58.92C105.887 59.1733 105.94 59.4233 106.02 59.67C106.1 59.9167 106.267 60.18 106.52 60.46C106.76 60.74 106.947 60.8833 107.08 60.89C107.213 60.8833 107.387 60.7733 107.6 60.56C107.813 60.3467 108.003 60.1033 108.17 59.83C108.483 59.3233 108.683 58.4867 108.77 57.32C108.803 56.7467 108.86 56.3733 108.94 56.2ZM112.148 56.96C112.068 56.9867 112.028 57.0533 112.028 57.16C112.028 57.2667 111.984 57.71 111.898 58.49C112.751 58.43 113.331 58.38 113.638 58.34C113.944 58.3 114.138 58.2933 114.218 58.32C114.298 58.3467 114.404 58.42 114.538 58.54C114.658 58.66 114.718 58.76 114.718 58.84C114.718 58.92 114.661 59.0233 114.548 59.15C114.428 59.2633 114.288 59.34 114.128 59.38C113.968 59.42 113.628 59.4533 113.108 59.48L111.928 59.55C111.908 59.9567 111.938 60.3267 112.018 60.66C112.098 60.9933 112.234 61.1867 112.428 61.24C112.641 61.2933 113.784 61.3567 115.858 61.43L115.988 61.7C116.048 61.82 116.078 61.9067 116.078 61.96C116.078 62.0133 116.048 62.0833 115.988 62.17C115.928 62.2567 115.884 62.3133 115.858 62.34C115.831 62.3667 115.754 62.39 115.628 62.41C115.501 62.43 115.354 62.44 115.188 62.44C115.021 62.44 114.734 62.4433 114.328 62.45C113.228 62.45 112.458 62.3767 112.018 62.23C111.578 62.0833 111.264 61.8 111.078 61.38C110.984 61.1467 110.891 60.6633 110.798 59.93C110.704 59.1967 110.684 58.7833 110.738 58.69C110.791 58.59 110.838 58.3067 110.878 57.84C110.918 57.3733 110.944 57.06 110.958 56.9C110.971 56.74 111.011 56.59 111.078 56.45C111.144 56.31 111.214 56.2067 111.288 56.14C111.361 56.0733 111.484 56.0133 111.658 55.96C111.838 55.9067 112.021 55.8667 112.208 55.84C112.394 55.8133 112.781 55.7733 113.368 55.72C113.954 55.6667 114.331 55.6133 114.498 55.56C114.931 55.4267 115.244 55.4467 115.438 55.62C115.544 55.7133 115.598 55.8333 115.598 55.98C115.598 56.1267 115.544 56.2533 115.438 56.36C115.338 56.4667 115.054 56.5667 114.588 56.66C114.121 56.7533 113.618 56.82 113.078 56.86C112.538 56.9 112.228 56.9333 112.148 56.96ZM116.905 55.91C117.045 55.81 117.155 55.76 117.235 55.76C117.315 55.76 117.411 55.8 117.525 55.88C117.638 55.96 117.708 56.0533 117.735 56.16C117.761 56.2667 117.778 56.55 117.785 57.01C117.791 57.47 117.821 58.0867 117.875 58.86C117.928 59.6333 117.995 60.1767 118.075 60.49C119.741 60.5367 120.765 60.5933 121.145 60.66C121.378 60.7133 121.508 60.8667 121.535 61.12C121.561 61.3733 121.465 61.5467 121.245 61.64C121.091 61.7067 120.488 61.7133 119.435 61.66C118.381 61.6067 117.768 61.54 117.595 61.46C117.288 61.3067 117.081 60.9967 116.975 60.53C116.868 60.0633 116.788 59.1467 116.735 57.78L116.675 56.07L116.905 55.91Z" fill="#FF414E"/>
</svg>
