<svg width="149" height="70" viewBox="0 0 149 70" fill="none" xmlns="http://www.w3.org/2000/svg">
<circle cx="26" cy="28" r="26" fill="#FFBF00"/>
<path d="M35.6 47H41.52V19.52H36.8L28.56 25.04L30.92 29.2L35.6 26.28V47ZM58.7216 47.48C65.9616 47.48 71.0816 41.6 71.0816 33.24C71.0816 24.92 65.9616 19.04 58.7216 19.04C51.4816 19.04 46.4016 24.92 46.4016 33.24C46.4016 41.6 51.4816 47.48 58.7216 47.48ZM58.7216 42.12C55.0416 42.12 52.4416 38.4 52.4416 33.24C52.4416 28.08 55.0416 24.4 58.7216 24.4C62.4416 24.4 65.0016 28.08 65.0016 33.24C65.0016 38.4 62.4416 42.12 58.7216 42.12ZM86.9638 47.48C94.2038 47.48 99.3238 41.6 99.3238 33.24C99.3238 24.92 94.2038 19.04 86.9638 19.04C79.7238 19.04 74.6438 24.92 74.6438 33.24C74.6438 41.6 79.7238 47.48 86.9638 47.48ZM86.9638 42.12C83.2838 42.12 80.6838 38.4 80.6838 33.24C80.6838 28.08 83.2838 24.4 86.9638 24.4C90.6838 24.4 93.2438 28.08 93.2438 33.24C93.2438 38.4 90.6838 42.12 86.9638 42.12ZM123.766 26.32H117.046L109.366 35.24V19.04H103.526V47H109.366V41.92L111.846 39.24L116.966 47H123.686L115.726 35.48L123.766 26.32ZM145.658 31.28H138.538V24H133.498V31.28H126.338V36.04H133.498V43.32H138.538V36.04H145.658V31.28Z" fill="#081226"/>
</svg>
