<svg width="176" height="70" viewBox="0 0 176 70" fill="none" xmlns="http://www.w3.org/2000/svg">
<circle cx="26" cy="28" r="26" fill="#EA5C52"/>
<path d="M20.76 47H41.52V41.68H29.88L34.88 37.8C39.68 34.32 41.28 31.48 41.28 27.8C41.28 22.64 37.04 19.04 31.2 19.04C26.76 19.04 23.28 20.96 20.56 24.4L24.32 28.04C26.32 25.76 28.36 24.4 31.04 24.4C33.28 24.4 35.2 25.76 35.2 28.04C35.2 29.96 34.16 31.76 30.88 34.36L20.76 42.2V47ZM57.5731 47.48C64.8131 47.48 69.9331 41.6 69.9331 33.24C69.9331 24.92 64.8131 19.04 57.5731 19.04C50.3331 19.04 45.2531 24.92 45.2531 33.24C45.2531 41.6 50.3331 47.48 57.5731 47.48ZM57.5731 42.12C53.8931 42.12 51.2931 38.4 51.2931 33.24C51.2931 28.08 53.8931 24.4 57.5731 24.4C61.2931 24.4 63.8531 28.08 63.8531 33.24C63.8531 38.4 61.2931 42.12 57.5731 42.12ZM85.8153 47.48C93.0553 47.48 98.1753 41.6 98.1753 33.24C98.1753 24.92 93.0553 19.04 85.8153 19.04C78.5753 19.04 73.4953 24.92 73.4953 33.24C73.4953 41.6 78.5753 47.48 85.8153 47.48ZM85.8153 42.12C82.1353 42.12 79.5353 38.4 79.5353 33.24C79.5353 28.08 82.1353 24.4 85.8153 24.4C89.5353 24.4 92.0953 28.08 92.0953 33.24C92.0953 38.4 89.5353 42.12 85.8153 42.12ZM114.058 47.48C121.298 47.48 126.418 41.6 126.418 33.24C126.418 24.92 121.298 19.04 114.058 19.04C106.818 19.04 101.738 24.92 101.738 33.24C101.738 41.6 106.818 47.48 114.058 47.48ZM114.058 42.12C110.378 42.12 107.778 38.4 107.778 33.24C107.778 28.08 110.378 24.4 114.058 24.4C117.778 24.4 120.338 28.08 120.338 33.24C120.338 38.4 117.778 42.12 114.058 42.12ZM150.86 26.32H144.14L136.46 35.24V19.04H130.62V47H136.46V41.92L138.94 39.24L144.06 47H150.78L142.82 35.48L150.86 26.32ZM172.751 31.28H165.631V24H160.591V31.28H153.431V36.04H160.591V43.32H165.631V36.04H172.751V31.28Z" fill="#081226"/>
</svg>
