<svg width="148" height="70" viewBox="0 0 148 70" fill="none" xmlns="http://www.w3.org/2000/svg">
<circle cx="26" cy="28" r="26" fill="#FF8928"/>
<path d="M31.08 47.52C37.64 47.52 42 43.8 42 37.96C42 32.36 37.8 29.24 32.92 29.24C30.68 29.24 28.92 29.96 27.56 30.92L27.72 24.84H40.48V19.52H22.28L21.88 34.36L25.84 35.96C27.32 34.84 29.08 34.16 31.16 34.16C34.16 34.16 36.12 35.76 36.12 38.16C36.12 40.52 34.2 42.36 31.12 42.36C28.48 42.36 25.96 41.08 23.92 39.12L20.44 43.28C23 45.84 26.48 47.52 31.08 47.52ZM57.8466 47.48C65.0866 47.48 70.2066 41.6 70.2066 33.24C70.2066 24.92 65.0866 19.04 57.8466 19.04C50.6066 19.04 45.5266 24.92 45.5266 33.24C45.5266 41.6 50.6066 47.48 57.8466 47.48ZM57.8466 42.12C54.1666 42.12 51.5666 38.4 51.5666 33.24C51.5666 28.08 54.1666 24.4 57.8466 24.4C61.5666 24.4 64.1266 28.08 64.1266 33.24C64.1266 38.4 61.5666 42.12 57.8466 42.12ZM86.0888 47.48C93.3288 47.48 98.4488 41.6 98.4488 33.24C98.4488 24.92 93.3288 19.04 86.0888 19.04C78.8488 19.04 73.7688 24.92 73.7688 33.24C73.7688 41.6 78.8488 47.48 86.0888 47.48ZM86.0888 42.12C82.4088 42.12 79.8088 38.4 79.8088 33.24C79.8088 28.08 82.4088 24.4 86.0888 24.4C89.8088 24.4 92.3688 28.08 92.3688 33.24C92.3688 38.4 89.8088 42.12 86.0888 42.12ZM122.891 26.32H116.171L108.491 35.24V19.04H102.651V47H108.491V41.92L110.971 39.24L116.091 47H122.811L114.851 35.48L122.891 26.32ZM144.783 31.28H137.663V24H132.623V31.28H125.463V36.04H132.623V43.32H137.663V36.04H144.783V31.28Z" fill="#081226"/>
</svg>
