<svg width="119" height="70" viewBox="0 0 119 70" fill="none" xmlns="http://www.w3.org/2000/svg">
<circle cx="26" cy="28" r="26" fill="#36BA5B"/>
<path d="M31.08 47.52C37.64 47.52 42 43.8 42 37.96C42 32.36 37.8 29.24 32.92 29.24C30.68 29.24 28.92 29.96 27.56 30.92L27.72 24.84H40.48V19.52H22.28L21.88 34.36L25.84 35.96C27.32 34.84 29.08 34.16 31.16 34.16C34.16 34.16 36.12 35.76 36.12 38.16C36.12 40.52 34.2 42.36 31.12 42.36C28.48 42.36 25.96 41.08 23.92 39.12L20.44 43.28C23 45.84 26.48 47.52 31.08 47.52ZM57.8466 47.48C65.0866 47.48 70.2066 41.6 70.2066 33.24C70.2066 24.92 65.0866 19.04 57.8466 19.04C50.6066 19.04 45.5266 24.92 45.5266 33.24C45.5266 41.6 50.6066 47.48 57.8466 47.48ZM57.8466 42.12C54.1666 42.12 51.5666 38.4 51.5666 33.24C51.5666 28.08 54.1666 24.4 57.8466 24.4C61.5666 24.4 64.1266 28.08 64.1266 33.24C64.1266 38.4 61.5666 42.12 57.8466 42.12ZM94.6488 26.32H87.9288L80.2488 35.24V19.04H74.4088V47H80.2488V41.92L82.7288 39.24L87.8488 47H94.5687L86.6088 35.48L94.6488 26.32ZM116.54 31.28H109.42V24H104.38V31.28H97.2203V36.04H104.38V43.32H109.42V36.04H116.54V31.28Z" fill="#081226"/>
</svg>
