<svg width="99" height="78" viewBox="0 0 99 78" fill="none" xmlns="http://www.w3.org/2000/svg">
<circle cx="33" cy="35" r="33" fill="#FFBF20"/>
<path d="M41.0917 32.4504L86.2901 51.8991L85.9743 51.1111L41.4794 31.962L41.0917 32.4504ZM39.9199 33.94L85.4737 53.5495L87.0342 53.7717L86.9362 53.5188L40.3134 33.4474L39.9258 33.9357L39.9199 33.94ZM43.4455 29.4725L84.3706 47.0897L84.0606 46.2973L43.8332 28.9842L43.4513 29.4682L43.4455 29.4725ZM42.2679 30.9665L85.3267 49.5016L85.0109 48.7136L42.6497 30.4825L42.262 30.9709L42.2679 30.9665ZM44.6216 27.9887L83.4086 44.682L83.0928 43.894L45.0049 27.4945L44.6173 27.9829L44.6216 27.9887ZM46.9695 25.0152L81.4891 39.8726L81.1733 39.0845L47.3514 24.5312L46.9637 25.0195L46.9695 25.0152ZM45.7934 26.499L82.4525 42.27L82.1367 41.482L46.1811 26.0107L45.7934 26.499ZM35.2168 39.9015L57.4519 49.4717L58.8905 49.6761L59.7485 49.8063L35.6045 39.4132L35.2168 39.9015ZM34.0349 41.3897L50.4345 48.4543L52.7369 48.7846L34.4225 40.9014L34.0349 41.3897ZM32.8631 42.8794L43.4287 47.4283L45.7296 47.7688L33.2507 42.391L32.8689 42.875L32.8631 42.8794ZM31.6811 44.3675L36.4171 46.4067L38.7136 46.7413L32.063 43.8835L31.6811 44.3675ZM36.3828 38.4162L64.4475 50.4962L66.7441 50.8308L36.7705 37.9279L36.3828 38.4162ZM37.5647 36.928L71.4591 51.5179L73.7557 51.8525L37.9524 36.4397L37.5647 36.928ZM38.7467 35.4398L78.4708 52.5395L80.7716 52.88L39.1387 34.9573L38.751 35.4457L38.7467 35.4398ZM48.3672 23.2575L48.1515 23.527L80.5374 37.4664L80.2215 36.6784L48.5333 23.043L48.3614 23.2618L48.3672 23.2575ZM30.7309 45.5833L31.7165 45.727L30.8955 45.379L30.725 45.5877L30.7309 45.5833ZM61.1459 7.06266L69.939 10.85L69.6247 10.0519L61.5336 6.57432L61.1518 7.05831L61.1459 7.06266ZM62.3221 5.57881L68.9727 8.43659L68.6569 7.64856L62.6996 5.08899L62.3162 5.58315L62.3221 5.57881ZM59.9742 8.55231L70.901 13.2577L70.5808 12.4639L60.3618 8.06397L59.9742 8.55231ZM67.0634 3.62859L66.7475 2.84058L65.0592 2.10682L64.6773 2.59082L67.059 3.62276L67.0634 3.62859ZM65.8534 1.10698L66.1029 1.21079L65.9933 0.930191L65.8592 1.10263L65.8534 1.10698ZM58.7281 10.1245L71.9061 15.7962L71.5903 15.0082L59.1099 9.64055L58.7281 10.1245ZM63.4997 4.08481L68.0166 6.0246L67.7051 5.2424L63.8873 3.59649L63.4997 4.08481ZM49.3233 22.0374L79.5754 35.0587L79.2654 34.2664L49.7109 21.549L49.3233 22.0374ZM52.8488 17.5699L76.6998 27.8373L76.3839 27.0492L53.2306 17.0859L52.843 17.5742L52.8488 17.5699ZM51.6712 19.0639L77.6574 30.2391L77.3415 29.4511L52.0545 18.5697L51.6712 19.0639ZM50.4951 20.5477L78.6135 32.6511L78.2976 31.8631L50.8769 20.0637L50.4892 20.5521L50.4951 20.5477ZM56.3685 13.1067L73.8198 20.61L73.5039 19.822L56.762 12.614L56.3685 13.1067ZM57.5461 11.6127L72.8637 18.198L72.5478 17.41L57.9338 11.1244L57.5504 11.6185L57.5461 11.6127ZM55.1982 14.5862L74.7716 23.0162L74.4615 22.2238L55.5859 14.0979L55.1982 14.5862ZM54.0163 16.0744L75.7335 25.4238L75.4177 24.6358L54.4039 15.5861L54.0163 16.0744Z" fill="url(#paint0_linear_118_4246)"/>
<path d="M48.7193 51.5614H17.2807C17.2063 51.5614 17.1349 51.5318 17.0822 51.4792C17.0296 51.4265 17 51.3551 17 51.2807V28.2631C17 28.1887 17.0296 28.1173 17.0822 28.0646C17.1349 28.012 17.2063 27.9824 17.2807 27.9824C17.3551 27.9824 17.4265 28.012 17.4792 28.0646C17.5318 28.1173 17.5614 28.1887 17.5614 28.2631V51H48.7193C48.7937 51 48.8651 51.0295 48.9178 51.0822C48.9704 51.1348 49 51.2062 49 51.2807C49 51.3551 48.9704 51.4265 48.9178 51.4792C48.8651 51.5318 48.7937 51.5614 48.7193 51.5614Z" fill="#263238"/>
<path d="M26.263 51.2808H20.6489V40.6141C20.6489 40.4652 20.7081 40.3224 20.8134 40.2172C20.9186 40.1119 21.0614 40.0527 21.2103 40.0527H25.7016C25.8505 40.0527 25.9932 40.1119 26.0985 40.2172C26.2038 40.3224 26.263 40.4652 26.263 40.6141V51.2808Z" fill="#FFD740"/>
<path d="M26.2629 51.5614H20.6489C20.5744 51.5614 20.503 51.5319 20.4504 51.4792C20.3977 51.4266 20.3682 51.3552 20.3682 51.2807V40.6141C20.3682 40.1498 20.746 39.772 21.2103 39.772H25.7015C26.1658 39.772 26.5436 40.1498 26.5436 40.6141V51.2807C26.5436 51.3552 26.514 51.4266 26.4614 51.4792C26.4087 51.5319 26.3373 51.5614 26.2629 51.5614ZM20.9296 51H25.9822V40.6141C25.9822 40.4597 25.8559 40.3334 25.7015 40.3334H21.2103C21.0559 40.3334 20.9296 40.4597 20.9296 40.6141V51Z" fill="#263238"/>
<path d="M35.5261 51.2808H29.9121V35.8422C29.9121 35.6933 29.9713 35.5505 30.0765 35.4452C30.1818 35.3399 30.3246 35.2808 30.4735 35.2808H34.9647C35.1136 35.2808 35.2564 35.3399 35.3617 35.4452C35.467 35.5505 35.5261 35.6933 35.5261 35.8422V51.2808Z" fill="#40C4FF"/>
<path d="M35.5266 51.5614H29.9125C29.8381 51.5614 29.7667 51.5318 29.7141 51.4792C29.6614 51.4265 29.6318 51.3551 29.6318 51.2807V35.8421C29.6318 35.3778 30.0097 35 30.4739 35H34.9652C35.4295 35 35.8073 35.3778 35.8073 35.8421V51.2807C35.8073 51.3551 35.7777 51.4265 35.7251 51.4792C35.6724 51.5318 35.601 51.5614 35.5266 51.5614ZM30.1932 51H35.2459V35.8421C35.2459 35.6877 35.1196 35.5614 34.9652 35.5614H30.4739C30.3196 35.5614 30.1932 35.6877 30.1932 35.8421V51Z" fill="#263238"/>
<path d="M44.7893 51.2807H39.1753V30.7894C39.1753 30.6405 39.2344 30.4977 39.3397 30.3925C39.445 30.2872 39.5878 30.228 39.7367 30.228H44.2279C44.3768 30.228 44.5196 30.2872 44.6249 30.3925C44.7302 30.4977 44.7893 30.6405 44.7893 30.7894V51.2807Z" fill="#FF5252"/>
<path d="M44.7893 51.5614H39.1752C39.1008 51.5614 39.0294 51.5318 38.9767 51.4792C38.9241 51.4265 38.8945 51.3551 38.8945 51.2807V30.7895C38.8945 30.3252 39.2723 29.9474 39.7366 29.9474H44.2278C44.6921 29.9474 45.07 30.3252 45.07 30.7895V51.2807C45.07 51.3551 45.0404 51.4265 44.9877 51.4792C44.9351 51.5318 44.8637 51.5614 44.7893 51.5614ZM39.4559 51H44.5086V30.7895C44.5086 30.6351 44.3822 30.5088 44.2278 30.5088H39.7366C39.5822 30.5088 39.4559 30.6351 39.4559 30.7895V51ZM26.8417 20.6842H24.5961C24.5217 20.6842 24.4503 20.6546 24.3976 20.602C24.345 20.5493 24.3154 20.478 24.3154 20.4035C24.3154 20.3291 24.345 20.2577 24.3976 20.205C24.4503 20.1524 24.5217 20.1228 24.5961 20.1228H26.8417C26.9162 20.1228 26.9876 20.1524 27.0402 20.205C27.0929 20.2577 27.1224 20.3291 27.1224 20.4035C27.1224 20.478 27.0929 20.5493 27.0402 20.602C26.9876 20.6546 26.9162 20.6842 26.8417 20.6842Z" fill="#263238"/>
<path d="M25.7191 21.807C25.6446 21.807 25.5732 21.7774 25.5206 21.7248C25.4679 21.6722 25.4384 21.6008 25.4384 21.5263V19.2807C25.4384 19.2063 25.4679 19.1349 25.5206 19.0822C25.5732 19.0296 25.6446 19 25.7191 19C25.7935 19 25.8649 19.0296 25.9176 19.0822C25.9702 19.1349 25.9998 19.2063 25.9998 19.2807V21.5263C25.9998 21.6008 25.9702 21.6722 25.9176 21.7248C25.8649 21.7774 25.7935 21.807 25.7191 21.807ZM22.9121 24.3333H20.6664C20.592 24.3333 20.5206 24.3038 20.468 24.2511C20.4153 24.1985 20.3857 24.1271 20.3857 24.0526C20.3857 23.9782 20.4153 23.9068 20.468 23.8541C20.5206 23.8015 20.592 23.7719 20.6664 23.7719H22.9121C22.9865 23.7719 23.0579 23.8015 23.1105 23.8541C23.1632 23.9068 23.1928 23.9782 23.1928 24.0526C23.1928 24.1271 23.1632 24.1985 23.1105 24.2511C23.0579 24.3038 22.9865 24.3333 22.9121 24.3333Z" fill="#263238"/>
<path d="M21.7891 25.4562C21.7146 25.4562 21.6432 25.4266 21.5906 25.374C21.5379 25.3213 21.5084 25.2499 21.5084 25.1755V22.9299C21.5084 22.8554 21.5379 22.784 21.5906 22.7314C21.6432 22.6787 21.7146 22.6492 21.7891 22.6492C21.8635 22.6492 21.9349 22.6787 21.9876 22.7314C22.0402 22.784 22.0698 22.8554 22.0698 22.9299V25.1755C22.0698 25.2499 22.0402 25.3213 21.9876 25.374C21.9349 25.4266 21.8635 25.4562 21.7891 25.4562ZM23.4559 36.6843H20.6489C20.5744 36.6843 20.503 36.6547 20.4504 36.602C20.3977 36.5494 20.3682 36.478 20.3682 36.4036C20.3682 36.3291 20.3977 36.2577 20.4504 36.2051C20.503 36.1524 20.5744 36.1229 20.6489 36.1229H23.329L27.4559 31.4458C27.4823 31.416 27.5147 31.3921 27.551 31.3758C27.5873 31.3594 27.6266 31.3509 27.6664 31.3509H32.5877L36.7146 26.3993C36.7407 26.3676 36.7735 26.3421 36.8107 26.3246C36.8479 26.3072 36.8885 26.2982 36.9296 26.2983H41.9822C42.0566 26.2983 42.128 26.3279 42.1807 26.3805C42.2333 26.4332 42.2629 26.5045 42.2629 26.579C42.2629 26.6534 42.2333 26.7248 42.1807 26.7775C42.128 26.8301 42.0566 26.8597 41.9822 26.8597H37.0609L32.9341 31.8113C32.9079 31.843 32.8751 31.8685 32.8379 31.886C32.8007 31.9035 32.7601 31.9125 32.719 31.9123H27.7933L23.6664 36.5894C23.64 36.6192 23.6076 36.6431 23.5713 36.6594C23.535 36.6758 23.4957 36.6842 23.4559 36.6843Z" fill="#263238"/>
<path d="M32.7194 33.035C33.4946 33.035 34.1229 32.4067 34.1229 31.6315C34.1229 30.8564 33.4946 30.228 32.7194 30.228C31.9443 30.228 31.3159 30.8564 31.3159 31.6315C31.3159 32.4067 31.9443 33.035 32.7194 33.035Z" fill="white"/>
<path d="M32.7194 33.3157C31.7908 33.3157 31.0352 32.56 31.0352 31.6315C31.0352 30.7029 31.7908 29.9473 32.7194 29.9473C33.6479 29.9473 34.4036 30.7029 34.4036 31.6315C34.4036 32.56 33.6479 33.3157 32.7194 33.3157ZM32.7194 30.5087C32.1001 30.5087 31.5966 31.0122 31.5966 31.6315C31.5966 32.2507 32.1001 32.7543 32.7194 32.7543C33.3386 32.7543 33.8422 32.2507 33.8422 31.6315C33.8422 31.0122 33.3386 30.5087 32.7194 30.5087Z" fill="#263238"/>
<path d="M23.4562 37.807C24.2314 37.807 24.8598 37.1786 24.8598 36.4035C24.8598 35.6284 24.2314 35 23.4562 35C22.6811 35 22.0527 35.6284 22.0527 36.4035C22.0527 37.1786 22.6811 37.807 23.4562 37.807Z" fill="white"/>
<path d="M23.4562 38.0877C22.5276 38.0877 21.772 37.332 21.772 36.4034C21.772 35.4749 22.5276 34.7192 23.4562 34.7192C24.3847 34.7192 25.1404 35.4749 25.1404 36.4034C25.1404 37.332 24.3847 38.0877 23.4562 38.0877ZM23.4562 35.2806C22.837 35.2806 22.3334 35.7842 22.3334 36.4034C22.3334 37.0227 22.837 37.5263 23.4562 37.5263C24.0754 37.5263 24.579 37.0227 24.579 36.4034C24.579 35.7842 24.0754 35.2806 23.4562 35.2806Z" fill="#263238"/>
<path d="M41.9826 27.9826C42.7577 27.9826 43.3861 27.3542 43.3861 26.579C43.3861 25.8039 42.7577 25.1755 41.9826 25.1755C41.2075 25.1755 40.5791 25.8039 40.5791 26.579C40.5791 27.3542 41.2075 27.9826 41.9826 27.9826Z" fill="white"/>
<path d="M41.9826 28.2632C41.054 28.2632 40.2983 27.5075 40.2983 26.579C40.2983 25.6504 41.054 24.8948 41.9826 24.8948C42.9111 24.8948 43.6668 25.6504 43.6668 26.579C43.6668 27.5075 42.9111 28.2632 41.9826 28.2632ZM41.9826 25.4562C41.3633 25.4562 40.8597 25.9598 40.8597 26.579C40.8597 27.1982 41.3633 27.7018 41.9826 27.7018C42.6018 27.7018 43.1054 27.1982 43.1054 26.579C43.1054 25.9598 42.6018 25.4562 41.9826 25.4562Z" fill="#263238"/>
<defs>
<linearGradient id="paint0_linear_118_4246" x1="63.9842" y1="63.0197" x2="42.9394" y2="10.1627" gradientUnits="userSpaceOnUse">
<stop stop-color="#FFE033"/>
<stop offset="1" stop-color="#FFE033"/>
</linearGradient>
</defs>
</svg>
