<svg width="157" height="52" viewBox="0 0 157 52" fill="none" xmlns="http://www.w3.org/2000/svg">
<g clip-path="url(#clip0_12_12738)">
<path d="M144.075 0.000169H13.295C12.8183 0.000169 12.3473 0.000169 11.8718 0.002769C11.4738 0.005369 11.079 0.012922 10.6772 0.019279C9.80427 0.0295513 8.93339 0.106348 8.07213 0.249002C7.21208 0.394761 6.37898 0.669559 5.60099 1.0641C4.82395 1.46198 4.11395 1.97899 3.49674 2.59636C2.8763 3.212 2.3591 3.92359 1.96506 4.70378C1.56992 5.48241 1.29594 6.31679 1.15256 7.17809C1.00782 8.03831 0.92993 8.90845 0.919597 9.78069C0.907533 10.1793 0.906259 10.5792 0.899902 10.9778V41.0263C0.906259 41.43 0.907533 41.821 0.919597 42.2248C0.929933 43.097 1.00782 43.9671 1.15256 44.8273C1.29554 45.6891 1.56954 46.524 1.96506 47.3029C2.35893 48.0805 2.87619 48.7893 3.49674 49.4015C4.11161 50.0216 4.82207 50.5389 5.60099 50.9338C6.37897 51.3294 7.21199 51.6058 8.07213 51.7538C8.93354 51.8953 9.80433 51.9722 10.6772 51.9837C11.079 51.9925 11.4738 51.9976 11.8718 51.9976C12.3473 52.0002 12.8183 52.0002 13.295 52.0002H144.075C144.542 52.0002 145.017 52.0002 145.484 51.9976C145.88 51.9976 146.287 51.9925 146.683 51.9837C147.554 51.9728 148.423 51.8959 149.283 51.7538C150.146 51.6048 150.982 51.3284 151.763 50.9338C152.542 50.5387 153.251 50.0214 153.866 49.4015C154.485 48.7869 155.003 48.0787 155.402 47.3029C155.794 46.5234 156.066 45.6886 156.207 44.8273C156.352 43.967 156.432 43.0971 156.448 42.2248C156.453 41.821 156.453 41.43 156.453 41.0263C156.463 40.5541 156.463 40.0844 156.463 39.6044V12.3971C156.463 11.9211 156.463 11.4488 156.453 10.9778C156.453 10.5792 156.453 10.1793 156.448 9.78064C156.432 8.90832 156.352 8.03837 156.207 7.17804C156.065 6.31723 155.794 5.48292 155.402 4.70372C154.599 3.13992 153.327 1.867 151.763 1.06398C150.982 0.670407 150.146 0.395682 149.283 0.248885C148.423 0.105603 147.554 0.0287791 146.683 0.019097C146.287 0.012753 145.88 0.005135 145.484 0.0026C145.017 0 144.542 0.000169 144.075 0.000169Z" fill="#A6A6A6"/>
<path d="M11.878 50.8625C11.4819 50.8625 11.0954 50.8574 10.7025 50.8486C9.88837 50.838 9.07619 50.7671 8.27258 50.6366C7.52324 50.5075 6.79734 50.2675 6.11881 49.9243C5.44651 49.584 4.83331 49.1378 4.30271 48.6027C3.76444 48.074 3.31629 47.4607 2.97605 46.7873C2.63206 46.1094 2.39399 45.3829 2.27015 44.6329C2.13641 43.8271 2.06405 43.0122 2.0537 42.1954C2.04546 41.9212 2.03467 41.0084 2.03467 41.0084V10.9777C2.03467 10.9777 2.04616 10.0788 2.05377 9.81475C2.06368 8.99924 2.13562 8.18566 2.26895 7.38106C2.39302 6.62904 2.63127 5.90039 2.97545 5.22033C3.31445 4.54734 3.7601 3.93363 4.29513 3.403C4.82957 2.86732 5.44473 2.4188 6.11818 2.07379C6.79514 1.73173 7.51967 1.49336 8.26749 1.36666C9.07375 1.2348 9.88875 1.16351 10.7057 1.15339L11.8787 1.13751H145.478L146.665 1.15402C147.474 1.16364 148.282 1.2343 149.081 1.36539C149.836 1.49368 150.568 1.73371 151.253 2.07759C152.602 2.77289 153.7 3.87292 154.392 5.2235C154.731 5.89886 154.966 6.62157 155.088 7.3671C155.223 8.1783 155.299 8.99827 155.314 9.82047C155.318 10.1886 155.318 10.5841 155.318 10.9777C155.328 11.4652 155.328 11.9292 155.328 12.397V39.6043C155.328 40.0765 155.328 40.5374 155.318 41.002C155.318 41.4248 155.318 41.812 155.313 42.2106C155.298 43.0182 155.223 43.8235 155.091 44.6202C154.969 45.3756 154.733 46.1078 154.389 46.7912C154.046 47.4573 153.6 48.0653 153.068 48.5926C152.537 49.1305 151.923 49.5793 151.249 49.9218C150.566 50.2676 149.835 50.5086 149.081 50.6366C148.277 50.7678 147.465 50.8387 146.651 50.8486C146.27 50.8574 145.871 50.8625 145.484 50.8625L144.075 50.8651L11.878 50.8625Z" fill="black"/>
<path d="M33.0993 26.3909C33.1133 25.3058 33.4015 24.2419 33.9371 23.2982C34.4728 22.3545 35.2384 21.5615 36.1628 20.9932C35.5756 20.1545 34.8008 19.4643 33.9002 18.9774C32.9995 18.4904 31.9977 18.2202 30.9743 18.1882C28.7913 17.9591 26.675 19.4945 25.5626 19.4945C24.4286 19.4945 22.7158 18.211 20.8715 18.2489C19.6785 18.2875 18.5159 18.6344 17.4968 19.2559C16.4778 19.8773 15.6371 20.7522 15.0567 21.7952C12.5425 26.1481 14.4179 32.5455 16.8263 36.0641C18.0312 37.787 19.4395 39.7116 21.2822 39.6434C23.0854 39.5686 23.7588 38.4935 25.9354 38.4935C28.0918 38.4935 28.7236 39.6434 30.6037 39.6C32.5386 39.5686 33.7577 37.8693 34.9204 36.1301C35.7861 34.9024 36.4523 33.5456 36.8943 32.1098C35.7702 31.6344 34.8109 30.8385 34.136 29.8216C33.4612 28.8046 33.1006 27.6114 33.0993 26.3909Z" fill="white"/>
<path d="M29.5482 15.8742C30.6031 14.6077 31.1229 12.9799 30.997 11.3364C29.3853 11.5057 27.8964 12.276 26.8272 13.4939C26.3044 14.0888 25.904 14.781 25.6489 15.5308C25.3938 16.2806 25.2889 17.0733 25.3404 17.8637C26.1465 17.872 26.9441 17.6972 27.673 17.3526C28.4018 17.008 29.043 16.5025 29.5482 15.8742Z" fill="white"/>
<path d="M55.8928 35.2815H49.7394L48.2616 39.6449H45.6553L51.4837 23.5015H54.1916L60.02 39.6449H57.3692L55.8928 35.2815ZM50.3767 33.2681H55.2543L52.8498 26.1866H52.7825L50.3767 33.2681Z" fill="white"/>
<path d="M72.6074 33.7606C72.6074 37.4182 70.6497 39.768 67.6955 39.768C66.9472 39.8072 66.2029 39.6348 65.548 39.2706C64.8931 38.9064 64.3539 38.3652 63.9923 37.7088H63.9364V43.5385H61.5205V27.8751H63.859V29.8327H63.9035C64.2817 29.1795 64.8299 28.641 65.4899 28.2746C66.1498 27.9082 66.8967 27.7276 67.6511 27.7519C70.6383 27.7519 72.6074 30.1133 72.6074 33.7606ZM70.1242 33.7606C70.1242 31.3777 68.8927 29.8111 67.0138 29.8111C65.1679 29.8111 63.9263 31.4107 63.9263 33.7606C63.9263 36.1321 65.1679 37.7203 67.0138 37.7203C68.8927 37.7203 70.1242 36.1651 70.1242 33.7606Z" fill="white"/>
<path d="M85.5619 33.7607C85.5619 37.4182 83.6043 39.7681 80.6501 39.7681C79.9018 39.8072 79.1575 39.6349 78.5026 39.2707C77.8477 38.9065 77.3085 38.3652 76.9469 37.7089H76.891V43.5386H74.4751V27.8751H76.8136V29.8327H76.858C77.2362 29.1795 77.7845 28.6411 78.4444 28.2747C79.1043 27.9083 79.8512 27.7277 80.6057 27.752C83.5929 27.752 85.5619 30.1133 85.5619 33.7607ZM83.0787 33.7607C83.0787 31.3778 81.8473 29.8112 79.9684 29.8112C78.1225 29.8112 76.8809 31.4108 76.8809 33.7607C76.8809 36.1322 78.1225 37.7203 79.9684 37.7203C81.8473 37.7203 83.0787 36.1652 83.0787 33.7607Z" fill="white"/>
<path d="M94.1235 35.147C94.3025 36.7479 95.8577 37.799 97.9829 37.799C100.019 37.799 101.484 36.7478 101.484 35.3043C101.484 34.0513 100.601 33.301 98.5084 32.7869L96.4163 32.2829C93.4519 31.5668 92.0757 30.1805 92.0757 27.9309C92.0757 25.1455 94.5031 23.2324 97.9498 23.2324C101.361 23.2324 103.7 25.1455 103.778 27.9309H101.339C101.193 26.3199 99.8617 25.3474 97.9155 25.3474C95.9693 25.3474 94.6376 26.3313 94.6376 27.7633C94.6376 28.9046 95.4882 29.5762 97.569 30.0903L99.3476 30.5271C102.66 31.3104 104.036 32.6409 104.036 35.0021C104.036 38.0224 101.63 39.914 97.8038 39.914C94.2237 39.914 91.8065 38.0668 91.6504 35.1469L94.1235 35.147Z" fill="white"/>
<path d="M109.25 25.0897V27.8751H111.488V29.7883H109.25V36.2768C109.25 37.2848 109.698 37.7546 110.682 37.7546C110.948 37.7499 111.213 37.7313 111.477 37.6987V39.6004C111.034 39.6831 110.585 39.7205 110.135 39.7121C107.752 39.7121 106.823 38.8171 106.823 36.5345V29.7883H105.111V27.8751H106.823V25.0897H109.25Z" fill="white"/>
<path d="M112.784 33.7607C112.784 30.0575 114.965 27.7304 118.366 27.7304C121.779 27.7304 123.95 30.0574 123.95 33.7607C123.95 37.4741 121.79 39.7909 118.366 39.7909C114.944 39.7909 112.784 37.4741 112.784 33.7607ZM121.488 33.7607C121.488 31.2203 120.324 29.721 118.366 29.721C116.409 29.721 115.246 31.2318 115.246 33.7607C115.246 36.3112 116.409 37.7991 118.366 37.7991C120.324 37.7991 121.488 36.3112 121.488 33.7607Z" fill="white"/>
<path d="M125.942 27.8751H128.246V29.8784H128.302C128.458 29.2527 128.824 28.6998 129.34 28.3125C129.856 27.9253 130.489 27.7273 131.133 27.7519C131.411 27.751 131.689 27.7812 131.961 27.8421V30.1018C131.609 29.9944 131.243 29.9451 130.875 29.9558C130.524 29.9416 130.174 30.0035 129.85 30.1372C129.525 30.271 129.233 30.4734 128.994 30.7307C128.754 30.988 128.574 31.2939 128.464 31.6276C128.354 31.9613 128.318 32.3147 128.358 32.6637V39.6449H125.942L125.942 27.8751Z" fill="white"/>
<path d="M143.1 36.188C142.775 38.3246 140.694 39.7909 138.032 39.7909C134.608 39.7909 132.482 37.4968 132.482 33.8165C132.482 30.1247 134.619 27.7303 137.93 27.7303C141.186 27.7303 143.234 29.9673 143.234 33.5359V34.3636H134.921V34.5096C134.883 34.9428 134.937 35.3792 135.08 35.7898C135.224 36.2003 135.452 36.5758 135.752 36.8911C136.051 37.2064 136.415 37.4544 136.817 37.6186C137.22 37.7828 137.653 37.8594 138.087 37.8434C138.658 37.8969 139.231 37.7647 139.721 37.4664C140.211 37.1681 140.591 36.7198 140.805 36.188L143.1 36.188ZM134.933 32.6752H140.817C140.839 32.2857 140.78 31.8959 140.643 31.5304C140.507 31.1648 140.297 30.8313 140.026 30.5508C139.755 30.2703 139.429 30.0489 139.068 29.9004C138.707 29.7519 138.32 29.6796 137.93 29.688C137.537 29.6856 137.147 29.7612 136.783 29.9104C136.418 30.0595 136.088 30.2793 135.809 30.557C135.53 30.8348 135.309 31.1649 135.159 31.5285C135.009 31.892 134.932 32.2817 134.933 32.6752Z" fill="white"/>
<path d="M50.0738 11.3503C50.5803 11.3139 51.0886 11.3905 51.5619 11.5743C52.0353 11.7582 52.4619 12.0448 52.8111 12.4135C53.1602 12.7822 53.4232 13.2238 53.581 13.7065C53.7389 14.1892 53.7876 14.7008 53.7237 15.2046C53.7237 17.6827 52.3844 19.1072 50.0738 19.1072H47.272V11.3503H50.0738ZM48.4767 18.0102H49.9392C50.3012 18.0318 50.6634 17.9725 50.9995 17.8365C51.3356 17.7005 51.6371 17.4913 51.8822 17.224C52.1272 16.9568 52.3096 16.6383 52.416 16.2917C52.5224 15.9451 52.5502 15.5791 52.4973 15.2204C52.5464 14.8631 52.5158 14.4994 52.4077 14.1553C52.2996 13.8113 52.1168 13.4954 51.8723 13.2303C51.6279 12.9652 51.3278 12.7574 50.9936 12.6219C50.6594 12.4864 50.2993 12.4265 49.9392 12.4465H48.4767V18.0102Z" fill="white"/>
<path d="M55.0848 16.1776C55.048 15.7929 55.092 15.4048 55.214 15.0381C55.336 14.6714 55.5333 14.3343 55.7932 14.0483C56.0532 13.7623 56.37 13.5338 56.7234 13.3774C57.0768 13.2211 57.459 13.1403 57.8454 13.1403C58.2319 13.1403 58.6141 13.2211 58.9675 13.3774C59.3209 13.5338 59.6377 13.7623 59.8976 14.0483C60.1576 14.3343 60.3548 14.6714 60.4768 15.0381C60.5988 15.4048 60.6428 15.7929 60.606 16.1776C60.6435 16.5627 60.6 16.9514 60.4784 17.3187C60.3567 17.6859 60.1595 18.0237 59.8995 18.3102C59.6396 18.5968 59.3225 18.8258 58.9687 18.9825C58.615 19.1391 58.2323 19.2201 57.8454 19.2201C57.4585 19.2201 57.0759 19.1391 56.7221 18.9825C56.3684 18.8258 56.0513 18.5968 55.7913 18.3102C55.5313 18.0237 55.3342 17.6859 55.2125 17.3187C55.0908 16.9514 55.0473 16.5627 55.0848 16.1776ZM59.4177 16.1776C59.4177 14.9087 58.8477 14.1667 57.8473 14.1667C56.8431 14.1667 56.2782 14.9087 56.2782 16.1776C56.2782 17.4567 56.8432 18.193 57.8473 18.193C58.8477 18.193 59.4177 17.4516 59.4177 16.1776Z" fill="white"/>
<path d="M67.945 19.107H66.7466L65.5367 14.7957H65.4453L64.2405 19.107H63.0535L61.4399 13.2532H62.6117L63.6604 17.72H63.7467L64.9502 13.2532H66.0585L67.262 17.72H67.3534L68.397 13.2532H69.5522L67.945 19.107Z" fill="white"/>
<path d="M70.9092 13.2532H72.0213V14.1831H72.1076C72.2541 13.8492 72.5011 13.5692 72.8142 13.3822C73.1273 13.1953 73.491 13.1107 73.8545 13.1402C74.1393 13.1188 74.4253 13.1618 74.6913 13.2659C74.9573 13.37 75.1964 13.5326 75.391 13.7417C75.5856 13.9508 75.7306 14.201 75.8154 14.4738C75.9002 14.7466 75.9225 15.0349 75.8807 15.3175V19.107H74.7254V15.6076C74.7254 14.6669 74.3166 14.199 73.4622 14.199C73.2688 14.19 73.0758 14.2229 72.8963 14.2955C72.7168 14.3681 72.5552 14.4786 72.4224 14.6195C72.2896 14.7604 72.1889 14.9284 72.1271 15.1118C72.0654 15.2953 72.044 15.49 72.0644 15.6825V19.107H70.9092L70.9092 13.2532Z" fill="white"/>
<path d="M77.7217 10.9681H78.877V19.107H77.7217V10.9681Z" fill="white"/>
<path d="M80.4828 16.1776C80.446 15.7929 80.49 15.4047 80.612 15.038C80.7341 14.6713 80.9314 14.3342 81.1913 14.0482C81.4513 13.7622 81.7681 13.5337 82.1216 13.3773C82.475 13.221 82.8572 13.1402 83.2437 13.1402C83.6301 13.1402 84.0124 13.221 84.3658 13.3773C84.7192 13.5337 85.0361 13.7622 85.296 14.0482C85.556 14.3342 85.7533 14.6713 85.8753 15.038C85.9973 15.4047 86.0414 15.7929 86.0046 16.1776C86.042 16.5627 85.9985 16.9514 85.8768 17.3187C85.7551 17.6859 85.5579 18.0237 85.2979 18.3102C85.0379 18.5968 84.7208 18.8257 84.367 18.9824C84.0132 19.1391 83.6306 19.22 83.2437 19.22C82.8568 19.22 82.4741 19.1391 82.1203 18.9824C81.7666 18.8257 81.4495 18.5968 81.1895 18.3102C80.9294 18.0237 80.7322 17.6859 80.6105 17.3187C80.4888 16.9514 80.4453 16.5627 80.4828 16.1776ZM84.8157 16.1776C84.8157 14.9087 84.2456 14.1667 83.2453 14.1667C82.2411 14.1667 81.6762 14.9087 81.6762 16.1776C81.6762 17.4567 82.2411 18.193 83.2453 18.193C84.2456 18.193 84.8157 17.4516 84.8157 16.1776Z" fill="white"/>
<path d="M87.2207 17.4516C87.2207 16.3979 88.0053 15.7904 89.3979 15.7041L90.9836 15.6127V15.1074C90.9836 14.4891 90.5748 14.14 89.7852 14.14C89.1402 14.14 88.6934 14.3768 88.5651 14.7906H87.4467C87.5647 13.7852 88.5106 13.1403 89.8385 13.1403C91.3061 13.1403 92.1338 13.8709 92.1338 15.1074V19.1071H91.0217V18.2844H90.9303C90.7447 18.5795 90.4842 18.8201 90.1753 18.9815C89.8664 19.143 89.5202 19.2196 89.172 19.2035C88.9262 19.2291 88.6779 19.2028 88.4429 19.1265C88.2079 19.0502 87.9915 18.9255 87.8076 18.7605C87.6238 18.5954 87.4766 18.3936 87.3755 18.1682C87.2744 17.9428 87.2217 17.6986 87.2207 17.4516ZM90.9836 16.9514V16.462L89.5541 16.5534C88.7479 16.6073 88.3823 16.8816 88.3823 17.3976C88.3823 17.9245 88.8393 18.2311 89.4678 18.2311C89.652 18.2497 89.838 18.2311 90.0148 18.1764C90.1916 18.1217 90.3556 18.0319 90.497 17.9126C90.6384 17.7932 90.7544 17.6465 90.838 17.4814C90.9216 17.3163 90.9711 17.136 90.9836 16.9514Z" fill="white"/>
<path d="M93.6523 16.1776C93.6523 14.3279 94.6032 13.1561 96.0822 13.1561C96.4481 13.1393 96.8112 13.2269 97.129 13.4088C97.4469 13.5906 97.7065 13.8592 97.8773 14.1831H97.9637V10.9681H99.1189V19.107H98.0119V18.1822H97.9205C97.7364 18.5039 97.4678 18.7692 97.1438 18.9492C96.8198 19.1292 96.4527 19.2172 96.0822 19.2035C94.5931 19.2036 93.6523 18.0318 93.6523 16.1776ZM94.8457 16.1776C94.8457 17.4192 95.431 18.1663 96.4098 18.1663C97.3835 18.1663 97.9853 17.4084 97.9853 16.1827C97.9853 14.9627 97.3772 14.194 96.4098 14.194C95.4373 14.194 94.8457 14.9462 94.8457 16.1776Z" fill="white"/>
<path d="M103.899 16.1776C103.862 15.7929 103.906 15.4048 104.028 15.0381C104.15 14.6714 104.347 14.3343 104.607 14.0483C104.867 13.7623 105.184 13.5338 105.537 13.3774C105.891 13.2211 106.273 13.1403 106.659 13.1403C107.046 13.1403 107.428 13.2211 107.781 13.3774C108.135 13.5338 108.452 13.7623 108.712 14.0483C108.972 14.3343 109.169 14.6714 109.291 15.0381C109.413 15.4048 109.457 15.7929 109.42 16.1776C109.457 16.5627 109.414 16.9514 109.292 17.3187C109.171 17.6859 108.973 18.0237 108.714 18.3102C108.454 18.5968 108.136 18.8258 107.783 18.9825C107.429 19.1391 107.046 19.2201 106.659 19.2201C106.272 19.2201 105.89 19.1391 105.536 18.9825C105.182 18.8258 104.865 18.5968 104.605 18.3102C104.345 18.0237 104.148 17.6859 104.026 17.3187C103.905 16.9514 103.861 16.5627 103.899 16.1776ZM108.232 16.1776C108.232 14.9087 107.662 14.1667 106.661 14.1667C105.657 14.1667 105.092 14.9087 105.092 16.1776C105.092 17.4567 105.657 18.193 106.661 18.193C107.662 18.193 108.232 17.4516 108.232 16.1776Z" fill="white"/>
<path d="M110.97 13.2532H112.082V14.1831H112.169C112.315 13.8492 112.562 13.5692 112.875 13.3822C113.188 13.1953 113.552 13.1107 113.916 13.1402C114.2 13.1188 114.486 13.1618 114.752 13.2659C115.018 13.37 115.257 13.5326 115.452 13.7417C115.647 13.9508 115.792 14.201 115.876 14.4738C115.961 14.7466 115.984 15.0349 115.942 15.3175V19.107H114.786V15.6076C114.786 14.6669 114.378 14.199 113.523 14.199C113.33 14.19 113.137 14.2229 112.957 14.2955C112.778 14.3681 112.616 14.4786 112.483 14.6195C112.351 14.7604 112.25 14.9284 112.188 15.1118C112.126 15.2953 112.105 15.49 112.125 15.6825V19.107H110.97V13.2532Z" fill="white"/>
<path d="M122.47 11.7958V13.2799H123.738V14.253H122.47V17.2631C122.47 17.8763 122.722 18.1448 123.297 18.1448C123.445 18.1443 123.592 18.1354 123.738 18.1181V19.0804C123.53 19.1175 123.32 19.1373 123.109 19.1394C121.825 19.1394 121.313 18.6875 121.313 17.5589V14.253H120.384V13.2799H121.313V11.7958H122.47Z" fill="white"/>
<path d="M125.316 10.9681H126.461V14.194H126.552C126.706 13.8568 126.96 13.5753 127.279 13.3876C127.599 13.2 127.968 13.1154 128.337 13.1453C128.621 13.1299 128.904 13.1772 129.167 13.2839C129.43 13.3905 129.666 13.5539 129.859 13.7623C130.051 13.9708 130.195 14.2191 130.281 14.4897C130.366 14.7603 130.391 15.0464 130.353 15.3277V19.1071H129.197V15.6127C129.197 14.6776 128.761 14.2041 127.945 14.2041C127.747 14.1878 127.547 14.2151 127.36 14.2841C127.173 14.3531 127.003 14.462 126.863 14.6034C126.723 14.7447 126.615 14.9151 126.547 15.1025C126.48 15.2898 126.454 15.4897 126.471 15.6882V19.107H125.316L125.316 10.9681Z" fill="white"/>
<path d="M137.089 17.5265C136.932 18.0615 136.592 18.5242 136.129 18.8338C135.665 19.1434 135.107 19.2801 134.553 19.22C134.167 19.2302 133.784 19.1563 133.43 19.0035C133.075 18.8507 132.759 18.6227 132.501 18.3352C132.244 18.0477 132.052 17.7077 131.94 17.3388C131.827 16.9698 131.796 16.5807 131.849 16.1985C131.797 15.8152 131.829 15.4253 131.941 15.0552C132.054 14.6851 132.244 14.3435 132.5 14.0535C132.756 13.7635 133.072 13.5319 133.425 13.3743C133.778 13.2168 134.161 13.1369 134.548 13.1402C136.177 13.1402 137.159 14.253 137.159 16.0912V16.4944H133.026V16.5591C133.007 16.7739 133.034 16.9901 133.105 17.1939C133.175 17.3977 133.287 17.5845 133.434 17.7424C133.581 17.9003 133.759 18.0258 133.957 18.1108C134.155 18.1958 134.369 18.2385 134.585 18.2361C134.861 18.2693 135.141 18.2195 135.389 18.0931C135.637 17.9668 135.842 17.7695 135.977 17.5264L137.089 17.5265ZM133.026 15.6399H135.982C135.997 15.4435 135.97 15.2461 135.904 15.0606C135.838 14.8751 135.733 14.7054 135.598 14.5626C135.462 14.4198 135.298 14.307 135.116 14.2313C134.934 14.1557 134.738 14.119 134.541 14.1235C134.342 14.121 134.143 14.1585 133.958 14.2338C133.773 14.3092 133.605 14.4208 133.464 14.5621C133.322 14.7034 133.211 14.8716 133.136 15.0567C133.06 15.2418 133.023 15.4401 133.026 15.6399Z" fill="white"/>
</g>
<defs>
<clipPath id="clip0_12_12738">
<rect width="155.563" height="52" fill="white" transform="translate(0.899902)"/>
</clipPath>
</defs>
</svg>
