<svg width="91" height="76" viewBox="0 0 91 76" fill="none" xmlns="http://www.w3.org/2000/svg">
<circle cx="33" cy="33" r="33" fill="#FFBF20"/>
<path d="M43.9336 29.0374L76.6721 65.7708L76.719 64.9231L44.4914 28.7587L43.9336 29.0374ZM42.2419 29.892L75.2345 66.9212L76.5548 67.7824L76.5729 67.5117L42.8068 29.6118L42.2491 29.8905L42.2419 29.892ZM47.3256 27.3338L76.9658 60.6007L77.0198 59.7516L47.8834 27.0551L47.3327 27.3323L47.3256 27.3338ZM45.6268 28.1899L76.8126 63.1908L76.8595 62.3431L46.1775 27.9127L45.6197 28.1913L45.6268 28.1899ZM49.0188 26.4863L77.1119 58.0121L77.1588 57.1645L49.5751 26.2005L49.0173 26.4792L49.0188 26.4863ZM52.4036 24.7842L77.4056 52.8421L77.4525 51.9944L52.9543 24.507L52.3965 24.7857L52.4036 24.7842ZM50.7105 25.6317L77.2651 55.4221L77.312 54.5744L51.2682 25.353L50.7105 25.6317ZM35.4595 33.3062L51.564 51.3792L52.7813 52.1727L53.5037 52.6534L36.0172 33.0276L35.4595 33.3062ZM33.7592 34.1552L45.6345 47.4906L47.5814 48.7633L34.317 33.8765L33.7592 34.1552ZM32.0675 35.0098L39.7194 43.599L41.6606 44.8803L32.6253 34.7311L32.0746 35.0083L32.0675 35.0098ZM30.3672 35.8588L33.7971 39.7089L35.7368 40.9831L30.9179 35.5816L30.3672 35.8588ZM37.1441 32.4531L57.4706 55.2652L59.4103 56.5393L37.7018 32.1744L37.1441 32.4531ZM38.8443 31.6041L63.3928 59.1553L65.3326 60.4294L39.4021 31.3255L38.8443 31.6041ZM40.5446 30.7552L69.3151 63.0454L71.2564 64.3266L41.1039 30.4836L40.5461 30.7623L40.5446 30.7552ZM54.4133 23.7822L54.1039 23.9352L77.5603 50.2592L77.6072 49.4115L54.6546 23.6581L54.4062 23.7837L54.4133 23.7822ZM28.9921 36.5588L29.8246 37.1057L29.2277 36.4433L28.9849 36.5603L28.9921 36.5588ZM72.8405 14.5081L79.208 21.6578L79.2605 20.8015L73.3983 14.2295L72.8476 14.5066L72.8405 14.5081ZM74.5337 13.6606L79.3526 19.0621L79.3996 18.2144L75.0829 13.3763L74.5266 13.6621L74.5337 13.6606ZM71.1488 15.3627L79.0619 24.2464L79.1073 23.3916L71.7066 15.0841L71.1488 15.3627ZM79.6549 13.8977L79.7018 13.05L78.482 11.6713L77.9313 11.9485L79.6534 13.8906L79.6549 13.8977ZM79.6244 11.101L79.8067 11.3005L79.826 10.9999L79.6316 11.0995L79.6244 11.101ZM69.3549 16.2607L78.8996 26.9718L78.9465 26.1241L69.9055 15.9835L69.3549 16.2607ZM76.2325 12.8045L79.5059 16.472L79.5542 15.6315L76.7902 12.5259L76.2325 12.8045ZM55.7956 23.0806L77.7064 47.6706L77.7604 46.8214L56.3534 22.802L55.7956 23.0806ZM60.8793 20.5225L78.1533 39.9105L78.2003 39.0628L61.4299 20.2453L60.8722 20.5239L60.8793 20.5225ZM59.1804 21.3785L78.0058 42.4919L78.0527 41.6443L59.7368 21.0928L59.1804 21.3785ZM57.4873 22.226L77.8525 45.082L77.8994 44.2343L58.038 21.9489L57.4802 22.2275L57.4873 22.226ZM65.9558 17.9658L78.5988 32.1433L78.6457 31.2956L66.5207 17.6856L65.9558 17.9658ZM67.6546 17.1097L78.752 29.5532L78.7989 28.7056L68.2124 16.831L67.6561 17.1168L67.6546 17.1097ZM64.2698 18.8118L78.4441 34.7262L78.4981 33.8771L64.8275 18.5331L64.2698 18.8118ZM62.5695 19.6608L78.298 37.3148L78.3449 36.4671L63.1272 19.3821L62.5695 19.6608Z" fill="url(#paint0_linear_118_4244)"/>
<path d="M33.0001 38.5954C27.9911 38.5954 23.9106 34.5149 23.9106 29.506C23.9106 24.497 27.9911 20.4165 33.0001 20.4165C38.0091 20.4165 42.0895 24.497 42.0895 29.506C42.0895 34.5235 38.0091 38.5954 33.0001 38.5954Z" fill="#FDDF7F"/>
<path d="M31.6453 20.9446C31.4408 20.9446 31.2534 20.7912 31.2279 20.5783C31.1938 20.3483 31.3556 20.1268 31.5857 20.0927C32.0542 20.0246 32.5312 19.9905 33.0083 19.9905C33.2468 19.9905 33.4342 20.1779 33.4342 20.4164C33.4342 20.6549 33.2468 20.8423 33.0083 20.8423C32.5738 20.8423 32.1394 20.8764 31.7134 20.9361C31.6879 20.9446 31.6623 20.9446 31.6453 20.9446ZM23.9103 29.9318C23.6718 29.9318 23.4844 29.7444 23.4844 29.5059C23.4844 25.7917 25.6737 22.3928 29.0641 20.8423C29.2771 20.7486 29.5326 20.8423 29.6264 21.0553C29.7201 21.2683 29.6264 21.5238 29.4134 21.6175C26.3296 23.0231 24.3362 26.1239 24.3362 29.5059C24.3362 29.7444 24.1403 29.9318 23.9103 29.9318Z" fill="#1C1D21"/>
<path d="M33.0002 48.4855C31.9354 48.4855 30.879 48.3577 29.8568 48.1021C29.0134 47.8977 28.4257 47.148 28.4257 46.2791V44.8139C28.4257 43.1442 27.5653 41.6194 26.1171 40.7249C24.2515 39.5749 22.6926 37.9563 21.6107 36.0567C20.4947 34.0974 19.8984 31.857 19.8984 29.5825C19.8984 22.3586 25.7763 16.4807 33.0002 16.4807C40.224 16.4807 46.1019 22.3586 46.1019 29.5825C46.1019 31.857 45.5142 34.0974 44.3897 36.0567C43.3078 37.9563 41.7489 39.5749 39.8833 40.7249C38.4351 41.6194 37.5747 43.1528 37.5747 44.8139V46.2791C37.5747 47.148 36.9869 47.8977 36.1436 48.1021C35.1213 48.3577 34.065 48.4855 33.0002 48.4855ZM33.0002 17.3326C26.2449 17.3326 20.7503 22.8271 20.7503 29.5825C20.7503 33.8589 22.9226 37.7519 26.5601 40.0008C28.2638 41.0486 29.2775 42.8546 29.2775 44.8139V46.2791C29.2775 46.7476 29.6012 47.1565 30.0612 47.2758C31.9779 47.7443 34.031 47.7443 35.9391 47.2758C36.3992 47.1651 36.7229 46.7562 36.7229 46.2791V44.8139C36.7229 42.8546 37.7366 41.0486 39.4403 40.0008C43.0778 37.7519 45.2501 33.8503 45.2501 29.5825C45.2501 22.8271 39.7555 17.3326 33.0002 17.3326ZM33.0002 51.5266C31.9694 51.5266 30.9387 51.4244 29.9335 51.22C29.7035 51.1688 29.5586 50.9474 29.6012 50.7174C29.6523 50.4873 29.8738 50.3425 30.1038 50.3851C31.995 50.777 33.9969 50.777 35.888 50.3851C36.118 50.334 36.3395 50.4873 36.3906 50.7174C36.4417 50.9474 36.2884 51.1688 36.0584 51.22C35.0617 51.4244 34.031 51.5266 33.0002 51.5266Z" fill="#1C1D21"/>
<path d="M33.7838 54.5935H32.2248C30.7767 54.5935 29.6011 53.418 29.6011 51.9698V47.736C29.6011 47.4975 29.7885 47.3101 30.027 47.3101C30.2655 47.3101 30.4529 47.4975 30.4529 47.736V51.9698C30.4529 52.9494 31.2452 53.7417 32.2248 53.7417H33.7838C34.7634 53.7417 35.5556 52.9494 35.5556 51.9698V47.736C35.5556 47.4975 35.7431 47.3101 35.9816 47.3101C36.2201 47.3101 36.4075 47.4975 36.4075 47.736V51.9698C36.4075 53.418 35.2234 54.5935 33.7838 54.5935Z" fill="#1C1D21"/>
<path d="M33.0001 51.5268C31.9694 51.5268 30.9386 51.4245 29.9334 51.2201C29.7034 51.169 29.5586 50.9475 29.6012 50.7175C29.6523 50.4875 29.8738 50.3427 30.1038 50.3853C31.9949 50.7771 33.9968 50.7771 35.888 50.3853C36.118 50.3342 36.3395 50.4875 36.3906 50.7175C36.4417 50.9475 36.2883 51.169 36.0583 51.2201C35.0617 51.4245 34.0309 51.5268 33.0001 51.5268ZM31.5519 48.1619C31.3134 48.1619 31.126 47.9745 31.126 47.736V30.196C31.126 29.9574 31.3134 29.77 31.5519 29.77C31.7905 29.77 31.9779 29.9574 31.9779 30.196V47.736C31.9779 47.9745 31.782 48.1619 31.5519 48.1619Z" fill="#1C1D21"/>
<path d="M29.9587 31.789C30.8385 31.789 31.5517 31.0758 31.5517 30.196C31.5517 29.3162 30.8385 28.603 29.9587 28.603C29.0789 28.603 28.3657 29.3162 28.3657 30.196C28.3657 31.0758 29.0789 31.789 29.9587 31.789Z" fill="#83E1E5"/>
<path d="M29.9589 32.2234C28.8429 32.2234 27.9399 31.3204 27.9399 30.2045C27.9399 29.0885 28.8429 28.1855 29.9589 28.1855C31.0748 28.1855 31.9778 29.0885 31.9778 30.2045C31.9778 31.3119 31.0663 32.2234 29.9589 32.2234ZM29.9589 29.0289C29.3115 29.0289 28.7918 29.5485 28.7918 30.196C28.7918 30.8434 29.3115 31.363 29.9589 31.363C30.6063 31.363 31.1259 30.8434 31.1259 30.196C31.1259 29.5571 30.5978 29.0289 29.9589 29.0289ZM34.4482 48.1619C34.2097 48.1619 34.0223 47.9745 34.0223 47.736V30.196C34.0223 29.9574 34.2097 29.77 34.4482 29.77C34.6867 29.77 34.8742 29.9574 34.8742 30.196V47.736C34.8742 47.9745 34.6867 48.1619 34.4482 48.1619Z" fill="#1C1D21"/>
<path d="M36.0412 31.789C36.921 31.789 37.6342 31.0758 37.6342 30.196C37.6342 29.3162 36.921 28.603 36.0412 28.603C35.1615 28.603 34.4482 29.3162 34.4482 30.196C34.4482 31.0758 35.1615 31.789 36.0412 31.789Z" fill="#83E1E5"/>
<path d="M36.0414 32.2234C34.9254 32.2234 34.0225 31.3204 34.0225 30.2045C34.0225 29.0885 34.9254 28.1855 36.0414 28.1855C37.1573 28.1855 38.0603 29.0885 38.0603 30.2045C38.0603 31.3119 37.1573 32.2234 36.0414 32.2234ZM36.0414 29.0289C35.394 29.0289 34.8743 29.5485 34.8743 30.196C34.8743 30.8434 35.394 31.363 36.0414 31.363C36.6888 31.363 37.2085 30.8434 37.2085 30.196C37.2085 29.5571 36.6888 29.0289 36.0414 29.0289Z" fill="#1C1D21"/>
<path d="M33 15.2115C32.7615 15.2115 32.5741 15.0241 32.5741 14.7856V12.4259C32.5741 12.1874 32.7615 12 33 12C33.2385 12 33.4259 12.1874 33.4259 12.4259V14.7856C33.4259 15.0241 33.2385 15.2115 33 15.2115ZM22.4709 18.5509C22.3602 18.5509 22.2494 18.5083 22.1727 18.4231L20.5031 16.7534C20.3327 16.5831 20.3327 16.319 20.5031 16.1486C20.6735 15.9782 20.9375 15.9782 21.1079 16.1486L22.7776 17.8268C22.9479 17.9972 22.9479 18.2612 22.7776 18.4316C22.6924 18.5083 22.5816 18.5509 22.4709 18.5509ZM17.7856 29.0289H15.4259C15.1874 29.0289 15 28.8415 15 28.6029C15 28.3644 15.1874 28.177 15.4259 28.177H17.7856C18.0241 28.177 18.2115 28.3644 18.2115 28.6029C18.2115 28.8415 18.0156 29.0289 17.7856 29.0289Z" fill="#1C1D21"/>
<path d="M43.529 18.5508C43.4182 18.5508 43.3075 18.5082 43.2308 18.423C43.0604 18.2527 43.0604 17.9886 43.2308 17.8182L44.9005 16.1485C45.0708 15.9782 45.3349 15.9782 45.5053 16.1485C45.6757 16.3189 45.6757 16.583 45.5053 16.7534L43.8356 18.423C43.7419 18.5082 43.6312 18.5508 43.529 18.5508Z" fill="#1C1D21"/>
<path d="M50.5742 29.0289H48.2145C47.976 29.0289 47.7886 28.8415 47.7886 28.6029C47.7886 28.3644 47.976 28.177 48.2145 28.177H50.5742C50.8127 28.177 51.0001 28.3644 51.0001 28.6029C51.0001 28.8415 50.8127 29.0289 50.5742 29.0289Z" fill="#1C1D21"/>
<defs>
<linearGradient id="paint0_linear_118_4244" x1="51.7562" y1="66.4186" x2="55.0304" y2="9.62047" gradientUnits="userSpaceOnUse">
<stop stop-color="#FFE033"/>
<stop offset="1" stop-color="#FFE033"/>
</linearGradient>
</defs>
</svg>
