<svg width="101" height="78" viewBox="0 0 101 78" fill="none" xmlns="http://www.w3.org/2000/svg">
<path d="M41.7169 35.0405L89.4092 47.1479L88.9735 46.4193L42.0231 34.4973L41.7169 35.0405ZM40.7937 36.6957L88.8622 48.9061L90.4383 48.8804L90.3017 48.6459L41.1049 36.1473L40.7987 36.6905L40.7937 36.6957ZM43.5737 31.7299L86.7581 42.6997L86.3274 41.9659L43.8798 31.1867L43.5787 31.7247L43.5737 31.7299ZM42.6454 33.3903L88.0812 44.9315L87.6455 44.2029L42.9464 32.8523L42.6403 33.3955L42.6454 33.3903ZM44.5021 30.0797L85.4299 40.473L84.9942 39.7444L44.8031 29.5315L44.4969 30.0746L44.5021 30.0797ZM46.3538 26.7743L82.7787 36.0248L82.343 35.2962L46.6549 26.2363L46.3488 26.7795L46.3538 26.7743ZM45.4254 28.4245L84.1067 38.2412L83.6711 37.5125L45.7315 27.8813L45.4254 28.4245ZM37.0854 43.322L60.5477 49.2806L62.0006 49.2565L62.8684 49.2503L37.3915 42.7788L37.0854 43.322ZM36.1519 44.9773L53.4576 49.3782L55.7833 49.3427L36.458 44.4342L36.1519 44.9773ZM35.2286 46.6326L46.3776 49.4654L48.7035 49.4402L35.5348 46.0894L35.2337 46.6274L35.2286 46.6326ZM34.2951 48.2879L39.2926 49.5578L41.6132 49.5276L34.5962 47.75L34.2951 48.2879ZM38.0035 41.6719L67.6175 49.1935L69.9381 49.1632L38.3097 41.1288L38.0035 41.6719ZM38.9371 40.0166L74.7025 49.101L77.0231 49.0708L39.2432 39.4734L38.9371 40.0166ZM39.8706 38.3612L81.7876 49.0086L84.1134 48.9834L40.1819 37.8231L39.8758 38.3663L39.8706 38.3612ZM47.458 24.8189L47.2873 25.1189L81.4608 33.798L81.0251 33.0694L47.5884 24.581L47.4529 24.8241L47.458 24.8189ZM33.5476 49.6379L34.5436 49.6249L33.6782 49.4103L33.5426 49.6431L33.5476 49.6379ZM57.5342 6.81777L66.813 9.17689L66.3772 8.43802L57.8403 6.2746L57.5393 6.81256L57.5342 6.81777ZM58.4626 5.16759L65.4796 6.94519L65.0439 6.21656L58.7585 4.62455L58.4576 5.17279L58.4626 5.16759ZM56.6109 8.47299L68.1412 11.4036L67.7003 10.6699L56.9171 7.92982L56.6109 8.47299ZM62.8387 2.49681L62.403 1.76819L60.6203 1.30876L60.3193 1.84673L62.8335 2.49173L62.8387 2.49681ZM61.2477 0.196561L61.5104 0.259892L61.3581 -1.09802e-05L61.2528 0.191356L61.2477 0.196561ZM55.6273 10.2214L69.5326 13.7526L69.0969 13.024L55.9284 9.68348L55.6273 10.2214ZM59.3909 3.50716L64.1565 4.71333L63.726 3.98977L59.6971 2.964L59.3909 3.50716ZM48.2106 23.4637L80.1326 31.5713L79.7019 30.8375L48.5167 22.9205L48.2106 23.4637ZM50.9906 18.4979L76.1583 24.8912L75.7226 24.1626L51.2916 17.9599L50.9855 18.5031L50.9906 18.4979ZM50.0622 20.1583L77.4813 27.1128L77.0455 26.3842L50.3632 19.6101L50.0622 20.1583ZM49.1338 21.8085L78.8044 29.3447L78.3687 28.6161L49.4349 21.2705L49.1287 21.8137L49.1338 21.8085ZM53.7655 13.5373L72.1788 18.2061L71.743 17.4774L54.0767 12.9889L53.7655 13.5373ZM54.6938 11.8768L70.8556 15.9742L70.4199 15.2456L54.9999 11.3336L54.699 11.8819L54.6938 11.8768ZM52.8421 15.1822L73.4967 20.4329L73.066 19.699L53.1482 14.639L52.8421 15.1822ZM51.9086 16.8376L74.8249 22.6595L74.3892 21.9309L52.2147 16.2944L51.9086 16.8376Z" fill="url(#paint0_linear_118_4243)"/>
<circle cx="33" cy="43" r="33" fill="#FFBF20"/>
<path d="M40.0387 39.4427C40.0387 39.8465 39.9592 40.2463 39.8047 40.6193C39.6501 40.9923 39.4237 41.3312 39.1382 41.6167C38.8527 41.9022 38.5137 42.1287 38.1407 42.2832C37.7677 42.4377 37.3679 42.5172 36.9641 42.5171C32.8942 42.3765 32.8953 36.5082 36.9641 36.3682C37.3679 36.3682 37.7677 36.4477 38.1407 36.6022C38.5137 36.7567 38.8527 36.9832 39.1382 37.2687C39.4237 37.5542 39.6501 37.8931 39.8047 38.2661C39.9592 38.6392 40.0387 39.039 40.0387 39.4427Z" fill="#FFE033"/>
<path d="M22.4629 56.2671C22.4629 56.2671 25.431 58.4933 27.937 59.8738C28.2358 60.0373 28.5749 60.1123 28.9147 60.09C29.2545 60.0677 29.5809 59.9491 29.8557 59.7479L30.1936 59.5016C30.2856 59.4347 30.363 59.3499 30.4214 59.2523C30.4797 59.1547 30.5177 59.0464 30.533 58.9337C30.5484 58.8211 30.5408 58.7065 30.5107 58.5968C30.4807 58.4872 30.4287 58.3847 30.358 58.2957C29.2638 56.9116 28.3779 55.3749 27.7285 53.7344L22.4629 56.2671Z" fill="#4E73A8"/>
<path d="M22.6558 42.0677C22.6558 42.0677 26.2649 34.929 29.2027 30.1568C29.295 30.0075 29.4221 29.8828 29.5733 29.7936C29.7244 29.7043 29.895 29.6531 30.0704 29.6444C30.2457 29.6357 30.4205 29.6697 30.5797 29.7436C30.739 29.8174 30.8779 29.9289 30.9845 30.0683L44.6106 47.8702C44.7167 48.0084 44.7878 48.1701 44.818 48.3416C44.8483 48.5132 44.8367 48.6894 44.7842 48.8556C44.7318 49.0217 44.6401 49.1727 44.5169 49.2958C44.3937 49.4189 44.2426 49.5105 44.0764 49.5627C41.2076 50.4663 34.6988 52.3839 29.7517 52.856C29.7517 52.856 25.3437 51.4071 22.6558 42.0677Z" fill="white"/>
<path d="M15.5108 51.2528C15.7619 52.7552 17.0236 55.1744 18.849 56.2594C20.8591 57.3557 25.1227 56.3963 29.7514 52.856C29.7514 52.856 24.8174 47.4885 22.6554 42.0676C22.6554 42.0676 19.0252 44.7035 16.5919 47.6073C16.2357 48.0278 15.9569 48.5082 15.7686 49.0261C15.509 49.7378 15.4207 50.5006 15.5108 51.2528Z" fill="#FF6670"/>
<path d="M19.2575 50.8859C18.7948 50.8972 18.6 50.2506 19.0041 50.0076L20.1545 49.2846C20.2613 49.2175 20.3904 49.1955 20.5133 49.2236C20.6363 49.2516 20.7431 49.3274 20.8102 49.4342C20.8773 49.541 20.8993 49.6701 20.8712 49.7931C20.8432 49.9161 20.7674 50.0228 20.6606 50.09L19.5102 50.8129C19.4346 50.8606 19.347 50.886 19.2575 50.8859ZM20.1232 52.2633C19.6605 52.2746 19.4656 51.6278 19.8697 51.3849L21.02 50.6621C21.1268 50.595 21.2559 50.573 21.3789 50.6011C21.5018 50.6291 21.6086 50.7049 21.6758 50.8117C21.7429 50.9185 21.7648 51.0476 21.7367 51.1706C21.7087 51.2935 21.6329 51.4003 21.5261 51.4674L20.3762 52.1903C20.3005 52.2381 20.2127 52.2634 20.1232 52.2633ZM20.9887 53.6408C20.526 53.652 20.3311 53.0054 20.7353 52.7624L21.8857 52.0394C21.9925 51.9723 22.1215 51.9504 22.2445 51.9784C22.3675 52.0065 22.4743 52.0823 22.5414 52.1891C22.6085 52.2959 22.6305 52.4249 22.6024 52.5479C22.5743 52.6709 22.4986 52.7777 22.3918 52.8448L21.2414 53.5678C21.1657 53.6155 21.0782 53.6408 20.9887 53.6408Z" fill="white"/>
<path d="M39.4952 41.6633C39.409 41.6622 39.3246 41.6377 39.2511 41.5926C39.1775 41.5475 39.1176 41.4833 39.0775 41.4069C39.0375 41.3305 39.0188 41.2446 39.0235 41.1585C39.0283 41.0723 39.0562 40.9891 39.1043 40.9175C39.4152 40.4653 39.575 39.9264 39.561 39.3779C39.547 38.8294 39.3598 38.2994 39.0263 37.8637C38.6928 37.428 38.23 37.1089 37.7041 36.9522C37.1783 36.7955 36.6164 36.8091 36.0987 36.9912C35.5074 37.1901 35.1952 36.3121 35.782 36.0944C38.0291 35.2608 40.557 37.0396 40.5139 39.4427C40.5499 39.9868 40.1539 41.6616 39.4952 41.6633ZM28.7937 60.5682C28.414 60.5688 28.0405 60.4733 27.7077 60.2906C25.5927 59.1255 23.1355 57.3521 22.4328 56.8363C22.3328 56.7611 22.2665 56.6494 22.2482 56.5256C22.23 56.4018 22.2613 56.2758 22.3353 56.1749C22.4094 56.074 22.5202 56.0064 22.6438 55.9867C22.7674 55.9669 22.8938 55.9967 22.9955 56.0696C23.6866 56.5766 26.1018 58.3197 28.1666 59.458C28.8086 59.8046 29.3939 59.555 29.9136 59.118C29.9536 59.0887 29.9872 59.0517 30.0126 59.0091C30.0379 58.9665 30.0544 58.9193 30.0612 58.8702C30.0679 58.8212 30.0647 58.7712 30.0517 58.7234C30.0387 58.6756 30.0163 58.6309 29.9857 58.592C29.3093 57.7351 28.7086 56.821 28.1904 55.8601C27.903 55.3068 28.7215 54.8622 29.0277 55.4083C29.5192 56.32 30.089 57.1872 30.7306 58.0001C30.8416 58.139 30.9231 58.299 30.9701 58.4705C31.0172 58.6419 31.0287 58.8211 31.0041 58.9972C30.953 59.5218 30.5492 59.862 30.1356 60.1322C29.7456 60.4158 29.2758 60.5684 28.7937 60.5682Z" fill="#383A49"/>
<path d="M29.7512 53.3316C29.1567 53.3214 29.1104 52.4495 29.7065 52.3827C34.6688 51.9085 41.3091 49.935 43.9337 49.1084C44.0269 49.0791 44.1116 49.0277 44.1806 48.9586C44.2497 48.8896 44.3011 48.8049 44.3305 48.7117C44.3598 48.6186 44.3663 48.5197 44.3493 48.4235C44.3324 48.3274 44.2924 48.2367 44.233 48.1592L30.607 30.3575C30.5472 30.2793 30.4694 30.2167 30.3801 30.1753C30.2909 30.1338 30.1929 30.1146 30.0946 30.1194C29.9963 30.1242 29.9006 30.1527 29.8158 30.2027C29.731 30.2526 29.6596 30.3224 29.6077 30.406C26.7142 35.1063 23.1162 42.211 23.0805 42.2823C22.7959 42.8337 21.9557 42.4167 22.2316 41.8531C22.2673 41.7817 25.8834 34.6419 28.7979 29.9075C29.3281 28.992 30.7425 28.9207 31.3624 29.7794L44.9883 47.581C45.1406 47.7799 45.2428 48.0126 45.2861 48.2593C45.3295 48.506 45.3127 48.7596 45.2373 48.9985C45.1618 49.2373 45.0299 49.4545 44.8527 49.6316C44.6755 49.8087 44.4582 49.9404 44.2193 50.0157C41.5591 50.8514 34.8054 52.8634 29.7512 53.3316Z" fill="#383A49"/>
<path d="M20.8255 57.1695C19.9774 57.1695 19.2302 57.009 18.6211 56.6768C16.6847 55.5381 15.3303 53.0334 15.0387 51.3123C14.9515 50.598 15.012 49.8734 15.2165 49.1835C15.421 48.4936 15.7652 47.8531 16.2277 47.3018C18.7363 44.424 22.4526 41.3414 22.7883 41.6106C22.8577 41.6308 22.9217 41.6667 22.9752 41.7153C23.0288 41.764 23.0706 41.8242 23.0974 41.8914C25.2018 47.1658 30.0526 52.4811 30.1018 52.5342C30.146 52.583 30.1797 52.6405 30.2007 52.703C30.2217 52.7655 30.2296 52.8317 30.2239 52.8974C30.2181 52.963 30.1989 53.0268 30.1673 53.0847C30.1358 53.1426 30.0926 53.1934 30.0406 53.2338C26.7388 55.7589 23.3397 57.1695 20.8255 57.1695ZM22.4521 42.8164C21.3909 43.632 18.8044 45.7075 16.9562 47.9128C16.5779 48.3638 16.2963 48.8876 16.1287 49.4519C15.9612 50.0162 15.9114 50.6088 15.9824 51.1932C16.2116 52.539 17.3917 54.8326 19.0766 55.8419C20.711 56.7335 24.4992 56.1363 29.0516 52.7863C27.922 51.4984 24.3805 47.2716 22.4521 42.8164ZM38.3233 27.8845C38.3771 27.9163 38.4366 27.9371 38.4984 27.9459C38.5602 27.9547 38.6232 27.9512 38.6837 27.9357C38.7442 27.9202 38.801 27.8928 38.8509 27.8553C38.9009 27.8178 38.9429 27.7708 38.9747 27.7171L40.1541 25.7209C40.1865 25.6671 40.2079 25.6074 40.2171 25.5453C40.2263 25.4832 40.2232 25.4199 40.2078 25.359C40.1924 25.2982 40.1651 25.241 40.1275 25.1907C40.0899 25.1404 40.0427 25.0981 39.9887 25.0661C39.9346 25.0342 39.8748 25.0133 39.8126 25.0046C39.7504 24.9959 39.6871 24.9996 39.6264 25.0155C39.5656 25.0314 39.5087 25.0591 39.4587 25.0971C39.4087 25.1351 39.3668 25.1827 39.3353 25.237L38.1558 27.2332C38.0916 27.3418 38.0732 27.4714 38.1047 27.5935C38.1361 27.7157 38.2147 27.8203 38.3233 27.8845ZM50.471 41.2478L48.1708 41.539C47.5874 41.6188 47.6446 42.4816 48.2302 42.4865C48.2504 42.4865 48.2706 42.4852 48.2906 42.4827L50.5905 42.1914C51.2083 42.1024 51.0935 41.1808 50.471 41.2478ZM48.8255 30.6478C48.7452 30.5505 48.6295 30.4892 48.504 30.4772C48.3784 30.4652 48.2533 30.5036 48.156 30.5839L46.3682 32.0604C46.3201 32.1003 46.2803 32.1492 46.251 32.2044C46.2218 32.2596 46.2037 32.32 46.1978 32.3822C46.1919 32.4444 46.1983 32.5072 46.2167 32.5669C46.235 32.6266 46.2649 32.6821 46.3048 32.7303C46.3446 32.7784 46.3935 32.8183 46.4487 32.8475C46.5039 32.8768 46.5643 32.8949 46.6265 32.9008C46.6887 32.9067 46.7515 32.9002 46.8112 32.8819C46.8709 32.8635 46.9264 32.8336 46.9746 32.7938L48.7617 31.3173C48.8589 31.2369 48.9203 31.1213 48.9322 30.9957C48.9442 30.8702 48.9058 30.745 48.8255 30.6478ZM42.5406 50.0336L30.7443 34.2085C30.6609 34.0966 30.5366 34.0225 30.3985 34.0024C30.2605 33.9822 30.1202 34.0178 30.0083 34.1011C29.8965 34.1845 29.8224 34.3088 29.8022 34.4468C29.7821 34.5849 29.8176 34.7252 29.901 34.8371L41.4649 50.3503C41.8429 50.241 42.203 50.1348 42.5406 50.0336Z" fill="#383A49"/>
<defs>
<linearGradient id="paint0_linear_118_4243" x1="69.1271" y1="61.6343" x2="40.0406" y2="12.7393" gradientUnits="userSpaceOnUse">
<stop stop-color="#FFE033"/>
<stop offset="1" stop-color="#FFE033"/>
</linearGradient>
</defs>
</svg>
