<svg width="100" height="101" viewBox="0 0 100 101" fill="none" xmlns="http://www.w3.org/2000/svg">
<path d="M100 51C100 57.5661 98.7067 64.0679 96.194 70.1342C93.6812 76.2005 89.9983 81.7124 85.3553 86.3553C80.7124 90.9983 75.2004 94.6812 69.1342 97.194C63.0679 99.7067 56.5661 101 50 101C43.4339 101 36.9321 99.7067 30.8658 97.194C24.7995 94.6812 19.2876 90.9983 14.6447 86.3553C10.0017 81.7124 6.31876 76.2004 3.80602 70.1342C1.29329 64.0679 -5.74026e-07 57.5661 0 51L50 51H100Z" fill="#FFBF20"/>
<circle cx="24" cy="24" r="24" fill="#E9F4D9"/>
<circle cx="76" cy="24" r="24" fill="#FF99CE"/>
</svg>
