<svg width="103" height="80" viewBox="0 0 103 80" fill="none" xmlns="http://www.w3.org/2000/svg">
<circle cx="33" cy="33" r="33" fill="#FFBF20"/>
<path d="M45.0917 34.4504L90.2901 53.8991L89.9743 53.1111L45.4794 33.962L45.0917 34.4504ZM43.9199 35.94L89.4737 55.5495L91.0342 55.7717L90.9362 55.5188L44.3134 35.4474L43.9258 35.9357L43.9199 35.94ZM47.4455 31.4725L88.3706 49.0897L88.0606 48.2973L47.8332 30.9842L47.4513 31.4682L47.4455 31.4725ZM46.2679 32.9665L89.3267 51.5016L89.0109 50.7136L46.6497 32.4825L46.262 32.9709L46.2679 32.9665ZM48.6216 29.9887L87.4086 46.682L87.0928 45.894L49.0049 29.4945L48.6173 29.9829L48.6216 29.9887ZM50.9695 27.0152L85.4891 41.8726L85.1733 41.0845L51.3514 26.5312L50.9637 27.0195L50.9695 27.0152ZM49.7934 28.499L86.4525 44.27L86.1367 43.482L50.1811 28.0107L49.7934 28.499ZM39.2168 41.9015L61.4519 51.4717L62.8905 51.6761L63.7485 51.8063L39.6045 41.4132L39.2168 41.9015ZM38.0349 43.3897L54.4345 50.4543L56.7369 50.7846L38.4225 42.9014L38.0349 43.3897ZM36.8631 44.8794L47.4287 49.4283L49.7296 49.7688L37.2507 44.391L36.8689 44.875L36.8631 44.8794ZM35.6811 46.3675L40.4171 48.4067L42.7136 48.7413L36.063 45.8835L35.6811 46.3675ZM40.3828 40.4162L68.4475 52.4962L70.7441 52.8308L40.7705 39.9279L40.3828 40.4162ZM41.5647 38.928L75.4591 53.5179L77.7557 53.8525L41.9524 38.4397L41.5647 38.928ZM42.7467 37.4398L82.4708 54.5395L84.7716 54.88L43.1387 36.9573L42.751 37.4457L42.7467 37.4398ZM52.3672 25.2575L52.1515 25.527L84.5374 39.4664L84.2215 38.6784L52.5333 25.043L52.3614 25.2618L52.3672 25.2575ZM34.7309 47.5833L35.7165 47.727L34.8955 47.379L34.725 47.5877L34.7309 47.5833ZM65.1459 9.06266L73.939 12.85L73.6247 12.0519L65.5336 8.57432L65.1518 9.05831L65.1459 9.06266ZM66.3221 7.57881L72.9727 10.4366L72.6569 9.64856L66.6996 7.08899L66.3162 7.58315L66.3221 7.57881ZM63.9742 10.5523L74.901 15.2577L74.5808 14.4639L64.3618 10.064L63.9742 10.5523ZM71.0634 5.62859L70.7475 4.84058L69.0592 4.10682L68.6773 4.59082L71.059 5.62276L71.0634 5.62859ZM69.8534 3.10698L70.1029 3.21079L69.9933 2.93019L69.8592 3.10263L69.8534 3.10698ZM62.7281 12.1245L75.9061 17.7962L75.5903 17.0082L63.1099 11.6405L62.7281 12.1245ZM67.4997 6.08481L72.0166 8.0246L71.7051 7.2424L67.8873 5.59649L67.4997 6.08481ZM53.3233 24.0374L83.5754 37.0587L83.2654 36.2664L53.7109 23.549L53.3233 24.0374ZM56.8488 19.5699L80.6998 29.8373L80.3839 29.0492L57.2306 19.0859L56.843 19.5742L56.8488 19.5699ZM55.6712 21.0639L81.6574 32.2391L81.3415 31.4511L56.0545 20.5697L55.6712 21.0639ZM54.4951 22.5477L82.6135 34.6511L82.2976 33.8631L54.8769 22.0637L54.4892 22.5521L54.4951 22.5477ZM60.3685 15.1067L77.8198 22.61L77.5039 21.822L60.762 14.614L60.3685 15.1067ZM61.5461 13.6127L76.8637 20.198L76.5478 19.41L61.9338 13.1244L61.5504 13.6185L61.5461 13.6127ZM59.1982 16.5862L78.7716 25.0162L78.4615 24.2238L59.5859 16.0979L59.1982 16.5862ZM58.0163 18.0744L79.7335 27.4238L79.4177 26.6358L58.4039 17.5861L58.0163 18.0744Z" fill="url(#paint0_linear_118_4245)"/>
<path d="M39.8437 45.4688V42.2812C39.8437 38.8125 36.9375 35.9062 33.4687 35.9062C30 35.9062 27.0938 38.8125 27.0938 42.2812V45.4688H39.8437Z" fill="#36D7B7"/>
<path d="M30.375 41.8125V45.4688" stroke="#414042" stroke-miterlimit="10"/>
<path d="M36.8438 41.8125V45.4688" stroke="#414042" stroke-miterlimit="10"/>
<path d="M28.2187 31.7812H27.9375C27.5625 31.7812 27.2812 31.5 27.2812 31.125V30.0937C27.2812 29.7187 27.5625 29.4375 27.9375 29.4375H28.2187V31.7812Z" fill="white"/>
<path d="M38.9062 31.7812H39.1875C39.5625 31.7812 39.8437 31.5 39.8437 31.125V30.0937C39.8437 29.7187 39.5625 29.4375 39.1875 29.4375H38.9062V31.7812Z" fill="white"/>
<path d="M28.2187 31.7812H27.9375C27.5625 31.7812 27.2812 31.5 27.2812 31.125V30.0937C27.2812 29.7187 27.5625 29.4375 27.9375 29.4375H28.2187V31.7812Z" stroke="#414042" stroke-miterlimit="10" stroke-linecap="round"/>
<path d="M38.9062 31.7812H39.1875C39.5625 31.7812 39.8437 31.5 39.8437 31.125V30.0937C39.8437 29.7187 39.5625 29.4375 39.1875 29.4375H38.9062V31.7812Z" stroke="#414042" stroke-miterlimit="10" stroke-linecap="round"/>
<path d="M28.2188 27.375V31.875C28.2188 34.7812 30.5625 37.2188 33.5625 37.2188C36.4687 37.2188 38.9062 34.875 38.9062 31.875V27.6563C38.25 23.9063 34.875 22.875 33.2812 22.875C31.6875 22.875 28.7812 24.4687 28.2188 27.375Z" fill="white"/>
<path d="M38.8124 28.9689C38.8124 28.9689 36.0937 25.7814 31.6874 25.3126L28.2187 29.1564C28.2187 29.1564 27.2812 23.7189 33.2812 22.8751C33.2812 22.8751 38.9062 22.6876 38.8124 28.9689Z" fill="#F5AB35"/>
<path d="M28.2188 29.0625C28.2188 29.0625 30.4688 27.75 31.6875 25.2188C31.6875 25.2188 37.125 26.1562 38.8125 28.875" stroke="#414042" stroke-miterlimit="10"/>
<path d="M38.8125 28.125C38.8125 25.2188 36.4688 22.7812 33.4688 22.7812C30.5625 22.7812 28.125 25.125 28.125 28.125V31.7813C28.125 34.6875 30.4688 37.125 33.4688 37.125C36.375 37.125 38.8125 34.7813 38.8125 31.7813V28.125Z" stroke="#414042" stroke-miterlimit="10"/>
<path d="M38.5311 21.5625C38.5311 21.5625 34.7811 25.3125 31.4061 23.7187C31.4061 23.7187 30.5624 26.9062 35.1561 26.625C35.2499 26.5312 39.8436 26.4375 38.5311 21.5625Z" fill="#F5AB35"/>
<path d="M31.5 24.75C31.6875 25.6875 32.4375 26.7187 35.25 26.5312C35.25 26.5312 39.9375 26.4375 38.625 21.5625C38.625 21.5625 37.3125 22.875 35.4375 23.625" stroke="#414042" stroke-miterlimit="10" stroke-linecap="round"/>
<path d="M33.4688 48.8438C42.1155 48.8438 49.125 41.8342 49.125 33.1875C49.125 24.5408 42.1155 17.5312 33.4688 17.5312C24.822 17.5312 17.8125 24.5408 17.8125 33.1875C17.8125 41.8342 24.822 48.8438 33.4688 48.8438Z" stroke="#414042" stroke-miterlimit="10" stroke-dasharray="1 1"/>
<path d="M15 33.1875H21.1875" stroke="#414042" stroke-miterlimit="10"/>
<path d="M45.75 33.1875H51" stroke="#414042" stroke-miterlimit="10"/>
<path d="M33.5625 20.3437V15" stroke="#414042" stroke-miterlimit="10"/>
<path d="M33.5625 51.1875V46.6875" stroke="#414042" stroke-miterlimit="10"/>
<defs>
<linearGradient id="paint0_linear_118_4245" x1="67.9842" y1="65.0197" x2="46.9394" y2="12.1627" gradientUnits="userSpaceOnUse">
<stop stop-color="#FFE033"/>
<stop offset="1" stop-color="#FFE033"/>
</linearGradient>
</defs>
</svg>
