<svg width="176" height="52" viewBox="0 0 176 52" fill="none" xmlns="http://www.w3.org/2000/svg">
<g clip-path="url(#clip0_12_12773)">
<path d="M169 0H6.5C2.91015 0 0 2.91015 0 6.5V45.5C0 49.0898 2.91015 52 6.5 52H169C172.59 52 175.5 49.0898 175.5 45.5V6.5C175.5 2.91015 172.59 0 169 0Z" fill="black"/>
<path d="M169 1.04C170.448 1.04 171.837 1.61525 172.861 2.6392C173.885 3.66315 174.46 5.05192 174.46 6.5V45.5C174.46 46.9481 173.885 48.3369 172.861 49.3608C171.837 50.3848 170.448 50.96 169 50.96H6.5C5.05192 50.96 3.66315 50.3848 2.6392 49.3608C1.61525 48.3369 1.04 46.9481 1.04 45.5V6.5C1.04 5.05192 1.61525 3.66315 2.6392 2.6392C3.66315 1.61525 5.05192 1.04 6.5 1.04H169ZM169 0H6.5C4.77609 0 3.12279 0.684819 1.90381 1.90381C0.684819 3.12279 0 4.77609 0 6.5L0 45.5C0 47.2239 0.684819 48.8772 1.90381 50.0962C3.12279 51.3152 4.77609 52 6.5 52H169C170.724 52 172.377 51.3152 173.596 50.0962C174.815 48.8772 175.5 47.2239 175.5 45.5V6.5C175.5 4.77609 174.815 3.12279 173.596 1.90381C172.377 0.684819 170.724 0 169 0Z" fill="#A6A6A6"/>
<path d="M61.6462 13.312C61.6675 13.7888 61.5922 14.2649 61.4246 14.7117C61.257 15.1586 61.0007 15.5669 60.6712 15.912C60.3019 16.2933 59.8562 16.5923 59.3634 16.7895C58.8705 16.9866 58.3416 17.0774 57.8112 17.056C57.2777 17.0679 56.7475 16.9702 56.2534 16.769C55.7592 16.5677 55.3116 16.2672 54.9382 15.886C54.553 15.5123 54.2492 15.063 54.0456 14.5664C53.8421 14.0698 53.7432 13.5366 53.7552 13C53.7414 12.4613 53.8394 11.9256 54.043 11.4266C54.2466 10.9276 54.5514 10.4763 54.9382 10.101C55.5173 9.53512 56.2508 9.15299 57.0465 9.00264C57.8421 8.8523 58.6645 8.94045 59.4102 9.25603C59.879 9.44873 60.2971 9.74676 60.6322 10.127L59.9432 10.816C59.685 10.505 59.3579 10.2585 58.9878 10.096C58.6177 9.93355 58.2149 9.85959 57.8112 9.88003C57.4051 9.87804 57.0028 9.95806 56.6285 10.1153C56.2541 10.2726 55.9153 10.5038 55.6324 10.7951C55.3496 11.0865 55.1285 11.432 54.9824 11.8108C54.8363 12.1897 54.7682 12.5942 54.7822 13C54.7737 13.606 54.9448 14.2009 55.274 14.7097C55.6032 15.2186 56.0758 15.6185 56.632 15.8591C57.1882 16.0996 57.8033 16.1701 58.3995 16.0615C58.9957 15.9529 59.5465 15.6702 59.9822 15.249C60.383 14.8149 60.6178 14.2533 60.6452 13.663H57.8112V12.727H61.5942C61.6233 12.9208 61.6406 13.1162 61.6462 13.312Z" fill="white" stroke="white" stroke-width="0.2" stroke-miterlimit="10"/>
<path d="M67.6002 10.062H64.0902V12.532H67.2882V13.468H64.0902V15.938H67.6002V16.9H63.0762V9.09998H67.6002V10.062Z" fill="white" stroke="white" stroke-width="0.2" stroke-miterlimit="10"/>
<path d="M71.8642 16.9H70.8632V10.062H68.6792V9.09998H74.1002V10.062H71.8642V16.9Z" fill="white" stroke="white" stroke-width="0.2" stroke-miterlimit="10"/>
<path d="M77.9219 16.9V9.09998H78.9229V16.9H77.9219Z" fill="white" stroke="white" stroke-width="0.2" stroke-miterlimit="10"/>
<path d="M83.3691 16.9H82.3681V10.062H80.1841V9.09998H85.5401V10.062H83.3691V16.9Z" fill="white" stroke="white" stroke-width="0.2" stroke-miterlimit="10"/>
<path d="M95.6931 15.886C95.3177 16.2618 94.8718 16.5599 94.3811 16.7633C93.8904 16.9666 93.3644 17.0713 92.8331 17.0713C92.3019 17.0713 91.7759 16.9666 91.2852 16.7633C90.7945 16.5599 90.3486 16.2618 89.9731 15.886C89.595 15.5089 89.2984 15.0582 89.1016 14.5617C88.9048 14.0653 88.8121 13.5337 88.8291 13C88.8121 12.4662 88.9048 11.9347 89.1016 11.4383C89.2984 10.9418 89.595 10.4911 89.9731 10.114C90.3405 9.72763 90.7849 9.42269 91.2776 9.21891C91.7702 9.01513 92.3002 8.91704 92.8331 8.93099C93.3654 8.92257 93.8936 9.02319 94.3855 9.22664C94.8774 9.43009 95.3224 9.73207 95.6931 10.114C96.0669 10.4942 96.3608 10.9455 96.5573 11.4412C96.7537 11.9369 96.8489 12.4669 96.8371 13C96.8542 13.5337 96.7615 14.0653 96.5647 14.5617C96.3679 15.0582 96.0712 15.5089 95.6931 15.886ZM90.7141 15.236C90.9911 15.5166 91.321 15.7395 91.6848 15.8916C92.0485 16.0437 92.4389 16.122 92.8331 16.122C93.2274 16.122 93.6178 16.0437 93.9815 15.8916C94.3453 15.7395 94.6752 15.5166 94.9521 15.236C95.2401 14.9409 95.4657 14.5909 95.6153 14.2067C95.765 13.8225 95.8356 13.4121 95.8231 13C95.8289 12.5842 95.75 12.1716 95.5913 11.7872C95.4326 11.4028 95.1975 11.0547 94.9001 10.764C94.6232 10.4834 94.2933 10.2605 93.9295 10.1084C93.5658 9.95633 93.1754 9.87801 92.7811 9.87801C92.3869 9.87801 91.9965 9.95633 91.6328 10.1084C91.269 10.2605 90.9391 10.4834 90.6621 10.764C90.3835 11.0633 90.1675 11.4153 90.0269 11.7993C89.8862 12.1833 89.8237 12.5915 89.8431 13C89.8306 13.4121 89.9013 13.8225 90.051 14.2067C90.2006 14.5909 90.4262 14.9409 90.7141 15.236Z" fill="white" stroke="white" stroke-width="0.2" stroke-miterlimit="10"/>
<path d="M98.2539 16.9V9.09998H99.4629L103.259 15.171V13.663V9.09998H104.26V16.9H103.22L99.2549 10.543V12.038V16.9H98.2539Z" fill="white" stroke="white" stroke-width="0.2" stroke-miterlimit="10"/>
<path d="M88.5819 28.275C87.4866 28.2776 86.4167 28.6049 85.5074 29.2156C84.5981 29.8262 83.8903 30.6928 83.4735 31.7057C83.0568 32.7186 82.9497 33.8324 83.1659 34.9062C83.3821 35.9799 83.9119 36.9655 84.6882 37.7381C85.4645 38.5108 86.4525 39.0359 87.5273 39.2471C88.6021 39.4583 89.7153 39.346 90.7262 38.9245C91.7372 38.5029 92.6004 37.7911 93.2068 36.8789C93.8132 35.9668 94.1355 34.8953 94.1329 33.8C94.1435 33.0693 94.007 32.344 93.7315 31.6672C93.4559 30.9903 93.047 30.3759 92.5291 29.8604C92.0111 29.3449 91.3948 28.9388 90.7166 28.6665C90.0385 28.3941 89.3126 28.261 88.5819 28.275ZM88.5819 37.154C87.9106 37.201 87.2406 37.0449 86.6592 36.706C86.0777 36.3672 85.6117 35.8612 85.3216 35.254C85.0315 34.6467 84.9307 33.9663 85.0325 33.301C85.1343 32.6358 85.4338 32.0165 85.8922 31.5238C86.3506 31.031 86.9466 30.6875 87.6027 30.538C88.2589 30.3885 88.9449 30.4398 89.5715 30.6853C90.1981 30.9308 90.7363 31.3591 91.1163 31.9146C91.4962 32.4701 91.7003 33.127 91.7019 33.8C91.7229 34.2264 91.6582 34.6527 91.5118 35.0538C91.3653 35.4548 91.1401 35.8224 90.8493 36.135C90.5585 36.4476 90.2081 36.6988 89.8187 36.8738C89.4293 37.0488 89.0088 37.1441 88.5819 37.154ZM76.4659 28.275C75.3706 28.2776 74.3007 28.6049 73.3914 29.2156C72.4821 29.8262 71.7743 30.6928 71.3575 31.7057C70.9408 32.7186 70.8337 33.8324 71.0499 34.9062C71.2661 35.9799 71.7959 36.9655 72.5722 37.7381C73.3485 38.5108 74.3365 39.0359 75.4113 39.2471C76.4861 39.4583 77.5993 39.346 78.6102 38.9245C79.6212 38.5029 80.4844 37.7911 81.0908 36.8789C81.6972 35.9668 82.0195 34.8953 82.0169 33.8C82.0275 33.0693 81.891 32.344 81.6155 31.6672C81.3399 30.9903 80.931 30.3759 80.4131 29.8604C79.8951 29.3449 79.2788 28.9388 78.6006 28.6665C77.9225 28.3941 77.1966 28.261 76.4659 28.275ZM76.4659 37.154C75.7946 37.201 75.1246 37.0449 74.5432 36.706C73.9617 36.3672 73.4957 35.8612 73.2056 35.254C72.9155 34.6467 72.8147 33.9663 72.9165 33.301C73.0183 32.6358 73.3178 32.0165 73.7762 31.5238C74.2346 31.031 74.8306 30.6875 75.4867 30.538C76.1429 30.3885 76.8289 30.4398 77.4555 30.6853C78.0821 30.9308 78.6203 31.3591 79.0003 31.9146C79.3802 32.4701 79.5843 33.127 79.5859 33.8C79.6069 34.2264 79.5422 34.6527 79.3958 35.0538C79.2494 35.4548 79.0241 35.8224 78.7333 36.135C78.4425 36.4476 78.0921 36.6988 77.7027 36.8738C77.3133 37.0488 76.8927 37.1441 76.4659 37.154ZM62.0619 29.978V32.318H67.6779C67.5899 33.4202 67.1317 34.4601 66.3779 35.269C65.8146 35.843 65.137 36.2923 64.3891 36.5879C63.6411 36.8835 62.8395 37.0188 62.0359 36.985C60.381 36.985 58.7938 36.3276 57.6236 35.1574C56.4534 33.9871 55.7959 32.4 55.7959 30.745C55.7959 29.0901 56.4534 27.5029 57.6236 26.3327C58.7938 25.1624 60.381 24.505 62.0359 24.505C63.6225 24.4814 65.1545 25.0839 66.2999 26.182L67.9509 24.531C67.1761 23.7647 66.2561 23.1607 65.2449 22.7544C64.2337 22.3481 63.1516 22.1477 62.0619 22.165C60.9062 22.12 59.7533 22.3088 58.6723 22.7201C57.5913 23.1313 56.6045 23.7566 55.7709 24.5583C54.9373 25.3601 54.2742 26.3219 53.8212 27.3861C53.3683 28.4503 53.1348 29.5949 53.1348 30.7515C53.1348 31.9081 53.3683 33.0528 53.8212 34.117C54.2742 35.1811 54.9373 36.1429 55.7709 36.9447C56.6045 37.7465 57.5913 38.3717 58.6723 38.7829C59.7533 39.1942 60.9062 39.383 62.0619 39.338C63.174 39.3824 64.2828 39.1911 65.3157 38.7766C66.3486 38.3621 67.2821 37.7338 68.0549 36.933C69.4201 35.4333 70.1475 33.4609 70.0829 31.434C70.0876 30.9462 70.0484 30.4589 69.9659 29.978H62.0619ZM120.965 31.798C120.626 30.8006 119.992 29.9296 119.147 29.3005C118.302 28.6714 117.286 28.3138 116.233 28.275C115.522 28.2736 114.818 28.4181 114.165 28.6995C113.512 28.9809 112.923 29.3933 112.436 29.9111C111.949 30.4289 111.573 31.0412 111.331 31.7101C111.09 32.379 110.988 33.0903 111.033 33.8C111.022 34.9867 111.395 36.1452 112.096 37.1024C112.798 38.0595 113.79 38.7641 114.925 39.1107C116.06 39.4573 117.277 39.4275 118.394 39.0256C119.51 38.6238 120.467 37.8714 121.121 36.881L119.236 35.581C118.955 36.0494 118.556 36.4361 118.08 36.7029C117.603 36.9697 117.065 37.1073 116.519 37.102C115.955 37.1253 115.398 36.9776 114.92 36.6782C114.442 36.3789 114.066 35.9421 113.841 35.425L121.238 32.37L120.965 31.798ZM113.425 33.644C113.399 33.2402 113.453 32.8352 113.585 32.4527C113.717 32.0702 113.924 31.7179 114.194 31.4165C114.464 31.115 114.792 30.8705 115.157 30.6972C115.523 30.5238 115.92 30.4252 116.324 30.407C116.743 30.3814 117.16 30.4801 117.523 30.6905C117.886 30.9009 118.179 31.2138 118.365 31.59L113.425 33.644ZM107.419 39H109.85V22.75H107.419V39ZM103.441 29.51H103.35C102.981 29.1082 102.53 28.7902 102.028 28.5771C101.525 28.3641 100.983 28.2611 100.438 28.275C99.0173 28.3439 97.6776 28.9568 96.6965 29.9866C95.7154 31.0164 95.1682 32.3842 95.1682 33.8065C95.1682 35.2288 95.7154 36.5966 96.6965 37.6265C97.6776 38.6563 99.0173 39.2691 100.438 39.338C100.989 39.3491 101.536 39.2383 102.039 39.0135C102.543 38.7888 102.99 38.4557 103.35 38.038H103.441V38.831C103.441 40.95 102.31 42.081 100.49 42.081C99.882 42.0677 99.2917 41.8739 98.794 41.5244C98.2964 41.1749 97.9138 40.6854 97.6949 40.118L95.5889 40.989C95.9783 41.9669 96.6553 42.8037 97.5303 43.3886C98.4054 43.9736 99.4374 44.2791 100.49 44.265C103.337 44.265 105.69 42.588 105.69 38.506V28.6H103.441V29.51ZM100.646 37.154C99.7942 37.1009 98.9947 36.7251 98.4103 36.1032C97.826 35.4812 97.5006 34.6599 97.5006 33.8065C97.5006 32.9531 97.826 32.1318 98.4103 31.5098C98.9947 30.8879 99.7942 30.5121 100.646 30.459C101.062 30.477 101.471 30.5785 101.847 30.7575C102.223 30.9366 102.56 31.1895 102.836 31.5012C103.113 31.8129 103.324 32.177 103.457 32.572C103.59 32.9669 103.642 33.3845 103.61 33.8C103.645 34.2169 103.596 34.6367 103.465 35.0339C103.333 35.4311 103.123 35.7976 102.845 36.1111C102.568 36.4247 102.231 36.6787 101.853 36.858C101.475 37.0372 101.064 37.1379 100.646 37.154ZM132.353 22.75H126.529V39H128.96V32.838H132.353C133.046 32.8878 133.741 32.7943 134.397 32.5634C135.052 32.3324 135.652 31.969 136.161 31.4958C136.669 31.0225 137.075 30.4496 137.352 29.8127C137.629 29.1758 137.772 28.4886 137.772 27.794C137.772 27.0994 137.629 26.4122 137.352 25.7753C137.075 25.1384 136.669 24.5655 136.161 24.0923C135.652 23.619 135.052 23.2556 134.397 23.0247C133.741 22.7937 133.046 22.7002 132.353 22.75ZM132.353 30.55H128.96V25.012H132.405C133.143 25.012 133.85 25.3051 134.372 25.8268C134.894 26.3486 135.187 27.0562 135.187 27.794C135.187 28.5318 134.894 29.2395 134.372 29.7612C133.85 30.2829 133.143 30.576 132.405 30.576L132.353 30.55ZM147.355 28.223C146.47 28.1684 145.588 28.3745 144.818 28.8158C144.049 29.2571 143.426 29.9143 143.026 30.706L145.171 31.603C145.388 31.2122 145.713 30.8926 146.107 30.6826C146.502 30.4727 146.949 30.3815 147.394 30.42C147.703 30.384 148.015 30.4097 148.314 30.4958C148.612 30.5819 148.891 30.7266 149.133 30.9214C149.375 31.1163 149.576 31.3573 149.723 31.6306C149.871 31.9039 149.963 32.2038 149.994 32.513V32.669C149.212 32.2581 148.342 32.0439 147.459 32.045C145.145 32.045 142.779 33.345 142.779 35.711C142.802 36.2139 142.926 36.7071 143.143 37.1612C143.36 37.6154 143.666 38.0212 144.043 38.3547C144.42 38.6882 144.861 38.9425 145.338 39.1024C145.815 39.2624 146.32 39.3249 146.822 39.286C147.432 39.3198 148.04 39.1907 148.584 38.912C149.127 38.6333 149.587 38.215 149.916 37.7H149.994V39H152.334V32.747C152.334 29.9 150.176 28.249 147.407 28.249L147.355 28.223ZM147.056 37.128C146.263 37.128 145.158 36.725 145.158 35.75C145.158 34.45 146.536 34.008 147.758 34.008C148.53 33.989 149.293 34.1775 149.968 34.554C149.886 35.26 149.552 35.9125 149.026 36.3905C148.5 36.8686 147.818 37.1398 147.108 37.154L147.056 37.128ZM160.862 28.6L158.08 35.646H158.002L155.116 28.6H152.516L156.845 38.454L154.375 43.927H156.975L163.566 28.6H160.862ZM139.022 39H141.44V22.75H139.022V39Z" fill="white"/>
<path d="M13.5722 9.802C13.1578 10.3143 12.9534 10.9648 13.0002 11.622V40.378C12.956 41.0415 13.1756 41.6956 13.6112 42.198L13.7022 42.302L29.7702 26.195V25.805L13.6632 9.711L13.5722 9.802Z" fill="url(#paint0_linear_12_12773)"/>
<path d="M35.1 31.564L29.77 26.195V25.805L35.1 20.436L35.217 20.514L41.6 24.128C43.42 25.155 43.42 26.845 41.6 27.885L35.243 31.499L35.1 31.564Z" fill="url(#paint1_linear_12_12773)"/>
<path d="M35.2558 31.486L29.7698 26L13.5718 42.198C13.9391 42.525 14.4093 42.7131 14.9008 42.7297C15.3923 42.7463 15.8742 42.5904 16.2628 42.289L35.2558 31.486Z" fill="url(#paint2_linear_12_12773)"/>
<path d="M35.2558 20.514L16.2628 9.72397C15.8767 9.41836 15.3953 9.25865 14.9031 9.27291C14.4109 9.28718 13.9395 9.47451 13.5718 9.80197L29.7698 26L35.2558 20.514Z" fill="url(#paint3_linear_12_12773)"/>
<path opacity="0.2" d="M35.0998 31.369L16.2628 42.094C15.8883 42.3766 15.4319 42.5295 14.9628 42.5295C14.4936 42.5295 14.0373 42.3766 13.6628 42.094L13.5718 42.185L13.6628 42.289C14.0373 42.5716 14.4936 42.7245 14.9628 42.7245C15.4319 42.7245 15.8883 42.5716 16.2628 42.289L35.2558 31.486L35.0998 31.369Z" fill="black"/>
<path opacity="0.12" d="M13.5721 42.016C13.1546 41.5004 12.9499 40.8446 13.0001 40.183V40.378C12.9559 41.0415 13.1755 41.6956 13.6111 42.198L13.7021 42.107L13.5721 42.016Z" fill="black"/>
<path opacity="0.12" d="M41.6001 27.69L35.1001 31.369L35.2171 31.486L41.6001 27.872C41.9769 27.7127 42.3037 27.4547 42.5462 27.1253C42.7887 26.7958 42.9379 26.4071 42.9781 26C42.8968 26.3699 42.7298 26.7156 42.4904 27.0092C42.2511 27.3027 41.9461 27.5359 41.6001 27.69Z" fill="black"/>
<path opacity="0.25" d="M16.263 9.90598L41.6 24.31C41.946 24.4641 42.251 24.6973 42.4903 24.9908C42.7297 25.2844 42.8967 25.63 42.978 26C42.9378 25.5929 42.7886 25.2041 42.5461 24.8747C42.3036 24.5453 41.9768 24.2873 41.6 24.128L16.263 9.72398C14.456 8.68398 13 9.54198 13 11.622V11.817C13 9.73698 14.456 8.87898 16.263 9.90598Z" fill="white"/>
</g>
<defs>
<linearGradient id="paint0_linear_12_12773" x1="28.3402" y1="11.323" x2="6.52623" y2="33.137" gradientUnits="userSpaceOnUse">
<stop stop-color="#00A0FF"/>
<stop offset="0.01" stop-color="#00A1FF"/>
<stop offset="0.26" stop-color="#00BEFF"/>
<stop offset="0.51" stop-color="#00D2FF"/>
<stop offset="0.76" stop-color="#00DFFF"/>
<stop offset="1" stop-color="#00E3FF"/>
</linearGradient>
<linearGradient id="paint1_linear_12_12773" x1="43.979" y1="26" x2="12.532" y2="26" gradientUnits="userSpaceOnUse">
<stop stop-color="#FFE000"/>
<stop offset="0.41" stop-color="#FFBD00"/>
<stop offset="0.78" stop-color="#FFA500"/>
<stop offset="1" stop-color="#FF9C00"/>
</linearGradient>
<linearGradient id="paint2_linear_12_12773" x1="32.2788" y1="28.99" x2="2.69077" y2="58.565" gradientUnits="userSpaceOnUse">
<stop stop-color="#FF3A44"/>
<stop offset="1" stop-color="#C31162"/>
</linearGradient>
<linearGradient id="paint3_linear_12_12773" x1="9.48978" y1="0.233972" x2="22.6978" y2="13.442" gradientUnits="userSpaceOnUse">
<stop stop-color="#32A071"/>
<stop offset="0.07" stop-color="#2DA771"/>
<stop offset="0.48" stop-color="#15CF74"/>
<stop offset="0.8" stop-color="#06E775"/>
<stop offset="1" stop-color="#00F076"/>
</linearGradient>
<clipPath id="clip0_12_12773">
<rect width="175.5" height="52" fill="white"/>
</clipPath>
</defs>
</svg>
