<svg width="308" height="399" viewBox="0 0 308 399" fill="none" xmlns="http://www.w3.org/2000/svg">
<path d="M0 20C0 8.9543 8.95431 0 20 0H288C299.046 0 308 8.95431 308 20V399H0V20Z" fill="#F9F9FB"/>
<g clip-path="url(#clip0_117_4237)">
<path d="M110.169 200.78C110.169 176.578 129.795 156.952 154.002 156.952C167.142 156.952 178.93 162.737 186.964 171.895L198.866 161.091C187.877 148.687 171.839 140.853 154.002 140.853C120.952 140.853 94.0635 167.736 94.0635 200.778C94.0635 216.54 100.185 230.897 110.172 241.606L122.073 230.802C114.693 222.96 110.169 212.399 110.169 200.78Z" fill="white"/>
<path d="M154.002 260.703C187.05 260.703 213.937 233.821 213.937 200.779C213.937 185.57 208.237 171.669 198.866 161.091L186.964 171.895C193.731 179.609 197.835 189.715 197.835 200.78C197.835 224.985 178.209 244.604 154.002 244.604C141.415 244.604 130.068 239.298 122.073 230.802L110.172 241.607C121.121 253.348 136.717 260.703 154.002 260.703Z" fill="white"/>
<path d="M178.904 200.781C178.904 214.529 167.754 225.674 154.002 225.674C150.659 225.679 147.349 225.008 144.272 223.702C141.195 222.396 138.412 220.483 136.093 218.076L122.073 230.803C130.068 239.298 141.415 244.604 154.002 244.604C178.209 244.604 197.835 224.985 197.835 200.781C197.835 189.715 193.731 179.609 186.964 171.895L172.946 184.621C176.799 189.123 178.912 194.855 178.904 200.781Z" fill="#36BA5B"/>
<path d="M154.002 156.953C129.795 156.953 110.169 176.578 110.169 200.781C110.169 212.399 114.693 222.96 122.073 230.802L136.093 218.076C131.6 213.44 129.091 207.236 129.099 200.781C129.099 187.028 140.248 175.881 154.002 175.881C161.587 175.881 168.378 179.273 172.946 184.621L186.964 171.895C178.93 162.737 167.142 156.953 154.002 156.953Z" fill="#C1D53E"/>
<path d="M142.635 200.78C142.635 194.503 147.723 189.416 154 189.416C155.715 189.415 157.408 189.803 158.951 190.55C160.495 191.297 161.848 192.385 162.911 193.73L172.946 184.621C168.378 179.273 161.587 175.881 154.002 175.881C140.248 175.881 129.099 187.028 129.099 200.78C129.091 207.236 131.6 213.44 136.093 218.076L146.126 208.967C145.021 207.909 144.142 206.638 143.542 205.231C142.942 203.824 142.634 202.309 142.635 200.78Z" fill="white"/>
<path d="M154.002 225.674C167.755 225.674 178.904 214.529 178.904 200.78C178.912 194.855 176.799 189.123 172.946 184.621L162.911 193.73C164.503 195.735 165.368 198.22 165.365 200.779C165.365 207.054 160.277 212.14 154 212.14C151.063 212.144 148.24 211.006 146.126 208.967L136.093 218.076C138.413 220.482 141.195 222.396 144.272 223.702C147.35 225.007 150.659 225.678 154.002 225.674Z" fill="white"/>
<path d="M154 212.14C160.276 212.14 165.365 207.054 165.365 200.78C165.368 198.22 164.503 195.735 162.911 193.73L146.126 208.967C148.24 211.006 151.063 212.144 154 212.14Z" fill="#36BA5B"/>
<path d="M154 189.416C147.723 189.416 142.635 194.503 142.635 200.78C142.634 202.309 142.942 203.824 143.542 205.231C144.142 206.638 145.021 207.909 146.126 208.967L162.911 193.73C161.848 192.385 160.495 191.297 158.951 190.55C157.408 189.802 155.715 189.415 154 189.416Z" fill="#C1D53E"/>
<path d="M213.894 175.48C211.142 168.967 207.34 162.948 202.639 157.666L200.762 159.369L198.866 161.091C208.237 171.669 213.936 185.57 213.936 200.779C213.936 233.821 187.05 260.703 154.002 260.703C136.717 260.703 121.121 253.348 110.172 241.607L108.275 243.328L106.399 245.031C106.935 245.606 107.478 246.175 108.036 246.733C113.957 252.669 120.974 257.399 128.698 260.66C136.714 264.05 145.227 265.769 154.002 265.769C162.776 265.769 171.289 264.05 179.304 260.66C194.885 254.056 207.288 241.654 213.894 226.076C217.284 218.062 219.003 209.551 219.003 200.779C219.003 192.006 217.284 183.494 213.894 175.48Z" fill="#FFA39C"/>
<path d="M199.965 154.823C194.044 148.888 187.028 144.158 179.304 140.896C171.289 137.506 162.776 135.788 154.002 135.788C145.228 135.788 136.714 137.506 128.699 140.896C113.117 147.5 100.713 159.902 94.1066 175.48C90.7162 183.494 88.9971 192.006 88.9971 200.779C88.9971 209.551 90.7162 218.063 94.1066 226.076C97.0606 233.067 101.222 239.483 106.4 245.031L108.276 243.328L110.172 241.607C100.185 230.898 94.0636 216.54 94.0636 200.779C94.0636 167.736 120.952 140.853 154.002 140.853C171.839 140.853 187.877 148.687 198.866 161.091L200.762 159.369L202.639 157.666C201.777 156.696 200.886 155.748 199.965 154.823Z" fill="#EA5C52"/>
<path d="M154.872 201.352L165.337 231.827L169.988 220.288L179.515 229.632L182.147 226.974L154.872 201.352Z" fill="#607D8B"/>
<path d="M165.337 232.297C165.333 232.297 165.329 232.297 165.325 232.297C165.229 232.294 165.136 232.263 165.059 232.206C164.982 232.149 164.924 232.07 164.893 231.98L154.428 201.504C154.394 201.405 154.394 201.297 154.428 201.198C154.463 201.098 154.529 201.014 154.617 200.957C154.705 200.9 154.81 200.874 154.915 200.883C155.019 200.893 155.118 200.937 155.194 201.009L182.469 226.631C182.515 226.674 182.551 226.726 182.577 226.783C182.602 226.841 182.616 226.903 182.617 226.965C182.618 227.028 182.607 227.09 182.583 227.149C182.56 227.207 182.525 227.26 182.481 227.305L179.849 229.963C179.762 230.051 179.643 230.101 179.519 230.102C179.394 230.103 179.275 230.055 179.186 229.968L170.161 221.116L165.773 232.003C165.738 232.09 165.678 232.164 165.6 232.217C165.523 232.269 165.431 232.297 165.337 232.297ZM155.933 202.992L165.373 230.482L169.552 220.112C169.581 220.041 169.627 219.977 169.687 219.928C169.746 219.878 169.817 219.844 169.892 219.828C169.968 219.812 170.046 219.815 170.121 219.837C170.195 219.859 170.262 219.899 170.318 219.953L179.51 228.969L181.474 226.986L155.933 202.992Z" fill="white"/>
<path d="M154.872 201.352L186.039 209.782L175.269 214.992L184.845 224.077L182.147 226.974L154.872 201.352Z" fill="#465D66"/>
<path d="M182.147 227.444C182.028 227.444 181.912 227.398 181.825 227.317L154.55 201.694C154.474 201.622 154.424 201.527 154.408 201.423C154.392 201.32 154.411 201.214 154.462 201.122C154.513 201.031 154.593 200.959 154.69 200.918C154.786 200.878 154.894 200.871 154.995 200.898L186.162 209.329C186.254 209.354 186.337 209.406 186.399 209.48C186.46 209.553 186.498 209.643 186.507 209.739C186.516 209.834 186.495 209.93 186.448 210.013C186.401 210.097 186.33 210.164 186.244 210.205L176.086 215.119L185.169 223.736C185.259 223.821 185.311 223.939 185.315 224.062C185.319 224.186 185.274 224.307 185.189 224.397L182.491 227.294C182.449 227.34 182.398 227.376 182.342 227.402C182.286 227.427 182.225 227.442 182.163 227.444C182.158 227.444 182.152 227.444 182.147 227.444ZM156.564 202.296L182.125 226.308L184.184 224.097L174.946 215.333C174.891 215.281 174.849 215.216 174.824 215.144C174.8 215.072 174.793 214.995 174.805 214.92C174.817 214.845 174.846 214.774 174.891 214.713C174.937 214.652 174.996 214.603 175.065 214.569L184.701 209.907L156.564 202.296Z" fill="white"/>
<path d="M154.872 201.352L165.337 231.827L169.988 220.288L179.515 229.632L182.147 226.974L154.872 201.352Z" fill="#607D8B"/>
<path d="M154.872 201.352L186.039 209.782L175.269 214.992L184.845 224.077L182.147 226.974L154.872 201.352Z" fill="#465D66"/>
<path d="M242.524 124.408C242.591 124.331 242.675 124.269 242.769 124.229C242.863 124.188 242.965 124.17 243.068 124.174H246.167C246.269 124.17 246.371 124.188 246.465 124.229C246.559 124.269 246.643 124.331 246.71 124.408L247.35 123.746H241.885L242.524 124.408Z" fill="#FFBF00"/>
<path d="M247.197 118.714H246.92H245.949H245.746H244.947H244.617H244.407H243.277H243.074H242.876H241.682V119.356H247.625V118.693L247.197 118.702V118.714Z" fill="#FFBF00"/>
<path d="M247.625 121.337H241.682V121.926H247.625V121.337Z" fill="#FFBF00"/>
<path d="M243.1 110.283C242.944 110.111 242.72 110.023 242.435 110.023C242.232 110.023 242.078 110.08 241.964 110.198C241.744 110.426 241.755 110.807 241.755 110.81L241.755 110.82L241.754 110.83C241.747 110.983 241.799 111.133 241.899 111.249C242.019 111.38 242.212 111.433 242.472 111.433H243.374L243.375 111.313C243.375 111.307 243.438 110.658 243.1 110.283Z" fill="#FFBF00"/>
<path d="M247.868 119.784H241.366C241.274 119.783 241.183 119.801 241.098 119.836C241.013 119.87 240.936 119.921 240.87 119.986C240.805 120.051 240.753 120.128 240.718 120.213C240.683 120.297 240.665 120.388 240.665 120.48C240.665 120.572 240.683 120.663 240.718 120.748C240.753 120.833 240.805 120.909 240.87 120.974C240.936 121.039 241.013 121.09 241.098 121.125C241.183 121.159 241.274 121.177 241.366 121.176H247.868C247.96 121.177 248.051 121.159 248.136 121.125C248.221 121.09 248.299 121.039 248.364 120.974C248.429 120.91 248.481 120.833 248.516 120.748C248.552 120.663 248.57 120.572 248.57 120.48C248.57 120.388 248.552 120.297 248.516 120.212C248.481 120.128 248.429 120.051 248.364 119.986C248.299 119.921 248.221 119.87 248.136 119.835C248.051 119.801 247.96 119.783 247.868 119.784Z" fill="#FFBF00"/>
<path d="M247.868 122.14H241.366C240.979 122.14 240.665 122.475 240.665 122.862C240.665 123.25 240.979 123.585 241.366 123.585H247.868C248.256 123.585 248.57 123.25 248.57 122.862C248.57 122.475 248.256 122.14 247.868 122.14Z" fill="#FFBF00"/>
<path d="M246.713 124.639C246.647 124.559 246.564 124.494 246.469 124.449C246.375 124.404 246.271 124.381 246.167 124.381H243.068C242.964 124.381 242.861 124.404 242.767 124.449C242.673 124.494 242.59 124.559 242.525 124.639L242.525 124.64C242.441 124.743 242.388 124.868 242.371 125C242.355 125.133 242.377 125.267 242.433 125.388C242.49 125.508 242.58 125.61 242.692 125.682C242.804 125.754 242.935 125.793 243.068 125.794H246.167C246.3 125.793 246.43 125.755 246.542 125.683C246.655 125.611 246.744 125.51 246.801 125.389C246.858 125.269 246.88 125.135 246.864 125.003C246.848 124.87 246.795 124.746 246.711 124.642L246.713 124.639Z" fill="#FFBF00"/>
<path d="M244.617 99.1255H244.617C240.136 99.1255 236.49 102.702 236.49 107.098C236.49 109.356 237.445 111.83 239.042 113.719L239.109 113.807C239.317 114.072 241.144 116.441 241.144 118.094C241.145 118.239 241.194 118.38 241.284 118.494C241.374 118.609 241.499 118.689 241.64 118.724V118.744H241.715V118.659H243.374V111.749H242.472C242.125 111.749 241.859 111.651 241.682 111.456C241.529 111.277 241.451 111.047 241.463 110.813C241.462 110.741 241.466 110.296 241.753 109.997C241.922 109.821 242.151 109.732 242.435 109.732C242.807 109.732 243.104 109.852 243.317 110.089C243.724 110.541 243.673 111.258 243.665 111.348V111.458H245.58V111.348C245.571 111.258 245.52 110.541 245.927 110.089C246.141 109.852 246.437 109.732 246.809 109.732C247.093 109.732 247.322 109.821 247.491 109.997C247.778 110.296 247.782 110.741 247.781 110.813C247.793 111.047 247.715 111.277 247.562 111.456C247.385 111.651 247.119 111.749 246.772 111.749H245.871V118.659H247.661V118.693L247.72 118.692C247.837 118.643 247.938 118.56 248.009 118.454C248.08 118.347 248.118 118.223 248.118 118.095C248.118 116.633 249.587 114.505 250.153 113.808C250.175 113.782 250.194 113.753 250.209 113.722L250.263 113.637C251.819 111.748 252.744 109.309 252.744 107.098C252.744 102.702 249.099 99.1256 244.617 99.1255ZM243.186 101.347C242.543 101.489 241.923 101.718 241.343 102.028C240.085 102.699 239.258 103.62 238.888 104.766C237.977 107.58 239.52 109.988 239.535 110.012C239.565 110.057 239.586 110.109 239.596 110.162C239.606 110.216 239.606 110.271 239.594 110.324C239.583 110.378 239.562 110.429 239.531 110.474C239.5 110.519 239.461 110.557 239.415 110.587C239.369 110.617 239.318 110.638 239.264 110.648C239.211 110.658 239.156 110.658 239.102 110.646C239.049 110.635 238.998 110.614 238.953 110.583C238.908 110.552 238.869 110.513 238.839 110.467C238.821 110.439 238.382 109.761 238.072 108.693C237.661 107.277 237.669 105.831 238.096 104.51C238.344 103.749 238.767 103.056 239.331 102.488C239.813 102.003 240.368 101.596 240.975 101.282C241.624 100.936 242.317 100.683 243.036 100.529C243.145 100.509 243.256 100.533 243.347 100.596C243.438 100.659 243.5 100.755 243.52 100.863C243.54 100.972 243.516 101.084 243.453 101.174C243.39 101.265 243.294 101.327 243.186 101.347Z" fill="#FFBF00"/>
<path d="M244.724 111.755H244.52H243.663V118.66H245.591V111.755H244.724Z" fill="#FFBF00"/>
<path d="M245.871 111.433H246.772C247.032 111.433 247.225 111.38 247.345 111.249C247.445 111.131 247.497 110.979 247.49 110.823L247.49 110.817L247.49 110.809C247.49 110.805 247.5 110.425 247.28 110.197C247.167 110.08 247.013 110.023 246.81 110.023C246.524 110.023 246.3 110.11 246.144 110.283C245.806 110.658 245.869 111.307 245.87 111.313L245.871 111.433Z" fill="#FFBF00"/>
<path d="M245.859 118.66V118.714H245.591V118.66H243.663V118.714H243.396V118.66H241.736V118.767H242.876H243.074H243.277H244.408H244.617H244.947H245.746H245.95H246.921H247.197V118.701L247.679 118.693V118.66H245.859Z" fill="#FFBF00"/>
<path d="M245.859 118.66H245.591V118.714H245.859V118.66Z" fill="#FFBF00"/>
<path d="M243.663 118.66H243.396V118.714H243.663V118.66Z" fill="#FFBF00"/>
<path d="M70.6556 116.138C70.5971 115.951 70.7228 115.777 70.7321 115.594C71.1059 113.216 73.1836 111.234 75.5806 110.94C76.0989 110.858 76.6267 110.911 77.1442 110.882C76.9894 109.444 76.2341 108.094 75.2271 107.062C75.2285 107.06 75.23 107.058 75.2318 107.056C75.2293 107.054 75.227 107.052 75.2247 107.051C75.2189 107.045 75.2141 107.04 75.2083 107.034C75.196 107.021 75.1846 107.007 75.174 106.993C75.069 106.925 74.9713 106.846 74.8827 106.758C73.6233 105.644 71.9334 105.066 70.2581 105.075C68.9047 105.077 67.5522 105.078 66.2006 105.077C64.7598 105.077 63.3193 105.078 61.8793 105.08C61.1381 105.133 60.3916 105.245 59.6996 105.529C58.6341 105.9 57.7089 106.594 56.944 107.409C56.9441 107.408 56.9439 107.407 56.9436 107.406C56.9403 107.409 56.9363 107.412 56.933 107.415C56.9341 107.415 56.9349 107.416 56.9363 107.416C56.3883 108.096 55.8928 108.895 55.6217 109.729C55.2046 110.882 55.2345 112.131 55.2828 113.342C55.4139 115.7 56.9198 117.919 59.0503 118.96C60.0678 119.481 61.2248 119.703 62.3632 119.688C63.1861 119.698 64.015 119.669 64.8383 119.703C64.3438 121.106 63.8069 122.495 63.288 123.894C64.2602 123.22 65.231 122.546 66.2006 121.871C67.2026 121.172 68.2045 120.472 69.2063 119.771C69.2647 119.742 69.3182 119.693 69.3859 119.693C69.9816 119.665 70.5868 119.736 71.1781 119.616C71.1249 119.355 70.9751 119.129 70.9119 118.869C70.602 117.991 70.6261 117.051 70.6556 116.138ZM62.0483 113.516C61.8057 113.516 61.5686 113.444 61.3668 113.309C61.1651 113.174 61.0079 112.983 60.9151 112.759C60.8222 112.534 60.7979 112.288 60.8453 112.05C60.8926 111.812 61.0094 111.594 61.1809 111.422C61.3524 111.25 61.571 111.134 61.8089 111.086C62.0469 111.039 62.2935 111.063 62.5176 111.156C62.7418 111.249 62.9334 111.406 63.0682 111.607C63.2031 111.809 63.2751 112.046 63.2752 112.289C63.2753 112.45 63.2436 112.609 63.182 112.758C63.1204 112.907 63.03 113.042 62.9161 113.156C62.8021 113.27 62.6668 113.361 62.5179 113.422C62.369 113.484 62.2095 113.516 62.0483 113.516ZM66.2006 113.512C66.1769 113.513 66.1544 113.516 66.1315 113.516C65.8061 113.516 65.4941 113.386 65.264 113.156C65.034 112.926 64.9047 112.614 64.9047 112.289C64.9047 111.964 65.034 111.652 65.264 111.422C65.4941 111.192 65.8061 111.063 66.1315 111.063C66.1544 111.063 66.1769 111.065 66.2006 111.065C66.5133 111.083 66.8074 111.219 67.0226 111.447C67.2378 111.674 67.3577 111.975 67.3577 112.289C67.3577 112.602 67.2378 112.903 67.0226 113.13C66.8074 113.358 66.5133 113.494 66.2006 113.512ZM70.2142 113.516C69.9716 113.516 69.7344 113.444 69.5327 113.309C69.331 113.174 69.1737 112.983 69.0809 112.759C68.988 112.535 68.9637 112.288 69.011 112.05C69.0583 111.812 69.1751 111.594 69.3466 111.422C69.5182 111.25 69.7367 111.134 69.9747 111.086C70.2126 111.039 70.4592 111.063 70.6834 111.156C70.9076 111.249 71.0992 111.406 71.234 111.607C71.3689 111.809 71.4409 112.046 71.4409 112.289C71.4409 112.614 71.3117 112.926 71.0817 113.156C70.8516 113.386 70.5396 113.516 70.2142 113.516Z" fill="#C1D53E"/>
<path d="M78.8903 111.785C78.0047 111.783 77.1189 111.783 76.2349 111.791C75.5971 111.808 74.9692 111.953 74.3879 112.216C73.8066 112.479 73.2836 112.855 72.8493 113.322C72.4151 113.79 72.0783 114.339 71.8588 114.938C71.6392 115.537 71.5413 116.173 71.5707 116.811C71.5225 117.795 71.7542 118.798 72.2824 119.638C73.1009 121.002 74.6556 121.899 76.2587 121.914C76.4818 121.952 76.738 121.856 76.9323 121.995C77.5837 122.452 78.2364 122.907 78.8903 123.361C79.3886 123.707 79.8869 124.052 80.3852 124.397C80.7869 124.692 81.422 124.306 81.3104 123.809C81.1312 123.168 80.8213 122.57 80.6415 121.923C81.2573 121.904 81.8911 121.967 82.4922 121.802C83.1511 121.653 83.7712 121.367 84.312 120.963C84.8528 120.558 85.3021 120.044 85.6307 119.454C86.1393 118.557 86.261 117.553 86.202 116.475C86.2004 116.257 86.1873 116.039 86.1628 115.823C85.9224 114.332 84.8532 112.893 83.4899 112.249C82.8251 111.942 82.1012 111.783 81.3688 111.785C80.5429 111.788 79.7166 111.786 78.8903 111.785Z" fill="#C1D53E"/>
<path d="M66.5782 273.108C58.4791 273.108 51.9141 279.672 51.9141 287.769C51.9141 295.867 58.4791 302.431 66.5782 302.431C74.677 302.431 81.2422 295.867 81.2422 287.769C81.2422 279.672 74.677 273.108 66.5782 273.108ZM66.5782 300.63C63.1745 300.629 59.9103 299.277 57.5035 296.871C55.0967 294.465 53.7445 291.201 53.7441 287.798C53.7441 280.712 59.4899 274.967 66.5782 274.967C69.9819 274.967 73.2462 276.319 75.653 278.725C78.0598 281.131 79.4121 284.395 79.4123 287.798C79.4123 294.885 73.6662 300.63 66.5782 300.63Z" fill="#FFBF00"/>
<path d="M66.5784 277.494C66.7818 277.494 66.9806 277.434 67.1497 277.321C67.3189 277.208 67.4507 277.047 67.5285 276.86C67.6064 276.672 67.6268 276.465 67.5871 276.266C67.5475 276.066 67.4496 275.883 67.3058 275.739C67.162 275.595 66.9788 275.497 66.7793 275.458C66.5798 275.418 66.3731 275.438 66.1852 275.516C65.9973 275.594 65.8367 275.726 65.7237 275.895C65.6106 276.064 65.5503 276.263 65.5503 276.466C65.5502 276.601 65.5768 276.735 65.6285 276.859C65.6801 276.984 65.7558 277.098 65.8513 277.193C65.9468 277.289 66.0601 277.364 66.1849 277.416C66.3097 277.468 66.4434 277.494 66.5784 277.494Z" fill="#FFBF00"/>
<path d="M66.5784 298.102C66.3751 298.102 66.1762 298.162 66.0071 298.275C65.8379 298.388 65.7061 298.549 65.6282 298.736C65.5503 298.924 65.5299 299.131 65.5695 299.33C65.6091 299.53 65.707 299.713 65.8508 299.857C65.9946 300.001 66.1778 300.099 66.3773 300.138C66.5768 300.178 66.7835 300.158 66.9715 300.08C67.1594 300.002 67.32 299.871 67.433 299.701C67.546 299.532 67.6064 299.334 67.6064 299.13C67.6064 298.858 67.4982 298.596 67.3054 298.403C67.1126 298.211 66.8511 298.102 66.5784 298.102Z" fill="#FFBF00"/>
<path d="M77.9129 286.77C77.7095 286.77 77.5107 286.831 77.3417 286.944C77.1726 287.056 77.0408 287.217 76.963 287.405C76.8852 287.593 76.8648 287.799 76.9045 287.999C76.9442 288.198 77.0421 288.381 77.1859 288.525C77.3297 288.669 77.5129 288.767 77.7123 288.806C77.9118 288.846 78.1185 288.826 78.3063 288.748C78.4942 288.67 78.6548 288.538 78.7677 288.369C78.8807 288.2 78.941 288.001 78.941 287.798C78.9409 287.525 78.8326 287.264 78.6398 287.071C78.447 286.879 78.1855 286.77 77.9129 286.77Z" fill="#FFBF00"/>
<path d="M55.2437 286.77C55.0403 286.77 54.8416 286.83 54.6725 286.943C54.5035 287.056 54.3718 287.217 54.294 287.405C54.2162 287.593 54.1959 287.799 54.2356 287.999C54.2753 288.198 54.3733 288.381 54.5171 288.525C54.6609 288.669 54.8441 288.767 55.0435 288.806C55.243 288.846 55.4497 288.825 55.6375 288.748C55.8254 288.67 55.9859 288.538 56.0989 288.369C56.2119 288.2 56.2722 288.001 56.2722 287.798C56.2722 287.663 56.2455 287.529 56.1939 287.405C56.1422 287.28 56.0664 287.166 55.9709 287.071C55.8754 286.976 55.762 286.9 55.6372 286.848C55.5125 286.797 55.3787 286.77 55.2437 286.77Z" fill="#FFBF00"/>
<path d="M61.8403 278.285C61.8403 278.158 61.8029 278.035 61.7328 277.93C61.6626 277.825 61.563 277.743 61.4463 277.695C61.3297 277.647 61.2014 277.634 61.0776 277.659C60.9538 277.683 60.8401 277.744 60.7508 277.833C60.6616 277.923 60.6008 278.036 60.5762 278.16C60.5516 278.284 60.5643 278.412 60.6126 278.529C60.6609 278.645 60.7427 278.745 60.8477 278.815C60.9526 278.885 61.076 278.923 61.2023 278.923C61.3715 278.923 61.5338 278.855 61.6534 278.736C61.7731 278.616 61.8403 278.454 61.8403 278.285Z" fill="#FFBF00"/>
<path d="M57.7277 282.822C57.7277 282.696 57.6903 282.572 57.6202 282.468C57.5501 282.363 57.4504 282.281 57.3338 282.232C57.2172 282.184 57.0888 282.171 56.965 282.196C56.8412 282.221 56.7275 282.281 56.6382 282.371C56.5489 282.46 56.4881 282.574 56.4635 282.697C56.4388 282.821 56.4514 282.949 56.4997 283.066C56.548 283.183 56.6298 283.282 56.7347 283.352C56.8397 283.423 56.9631 283.46 57.0893 283.46C57.2586 283.46 57.4209 283.393 57.5406 283.273C57.6603 283.154 57.7276 282.991 57.7277 282.822Z" fill="#FFBF00"/>
<path d="M75.952 291.755C75.8258 291.755 75.7024 291.793 75.5975 291.863C75.4926 291.933 75.4108 292.033 75.3625 292.149C75.3142 292.266 75.3016 292.394 75.3262 292.518C75.3509 292.642 75.4116 292.755 75.5009 292.845C75.5901 292.934 75.7038 292.995 75.8276 293.019C75.9514 293.044 76.0797 293.031 76.1963 292.983C76.3129 292.935 76.4126 292.853 76.4827 292.748C76.5528 292.643 76.5902 292.52 76.5902 292.393C76.5902 292.224 76.523 292.062 76.4033 291.942C76.2836 291.823 76.1213 291.755 75.952 291.755Z" fill="#FFBF00"/>
<path d="M71.8391 296.293C71.7129 296.293 71.5895 296.33 71.4846 296.401C71.3797 296.471 71.2979 296.57 71.2497 296.687C71.2014 296.804 71.1888 296.932 71.2135 297.056C71.2381 297.179 71.2989 297.293 71.3882 297.382C71.4775 297.472 71.5912 297.532 71.715 297.557C71.8388 297.581 71.9671 297.569 72.0837 297.52C72.2003 297.472 72.3 297.39 72.3701 297.285C72.4402 297.18 72.4776 297.057 72.4776 296.931C72.4776 296.847 72.4611 296.764 72.429 296.687C72.3969 296.609 72.3499 296.539 72.2906 296.48C72.2313 296.42 72.1609 296.373 72.0835 296.341C72.006 296.309 71.923 296.293 71.8391 296.293Z" fill="#FFBF00"/>
<path d="M57.3731 291.826C57.2469 291.826 57.1235 291.864 57.0185 291.934C56.9136 292.004 56.8318 292.104 56.7834 292.22C56.7351 292.337 56.7225 292.465 56.7471 292.589C56.7718 292.713 56.8325 292.827 56.9218 292.916C57.0111 293.005 57.1248 293.066 57.2486 293.09C57.3724 293.115 57.5007 293.102 57.6174 293.054C57.734 293.006 57.8337 292.924 57.9038 292.819C57.974 292.714 58.0114 292.591 58.0114 292.465C58.0115 292.381 57.995 292.298 57.9629 292.22C57.9308 292.143 57.8838 292.073 57.8245 292.013C57.7653 291.954 57.6949 291.907 57.6174 291.875C57.54 291.843 57.457 291.826 57.3731 291.826Z" fill="#FFBF00"/>
<path d="M61.9116 295.938C61.7854 295.938 61.662 295.976 61.5571 296.046C61.4521 296.116 61.3703 296.216 61.322 296.332C61.2737 296.449 61.2611 296.577 61.2857 296.701C61.3103 296.825 61.3711 296.938 61.4603 297.028C61.5496 297.117 61.6633 297.178 61.787 297.202C61.9108 297.227 62.0391 297.214 62.1558 297.166C62.2724 297.118 62.3721 297.036 62.4422 296.931C62.5123 296.826 62.5498 296.703 62.5498 296.577C62.5498 296.407 62.4826 296.245 62.3629 296.125C62.2432 296.006 62.0809 295.938 61.9116 295.938Z" fill="#FFBF00"/>
<path d="M71.4848 278.356C71.6111 278.356 71.7345 278.318 71.8395 278.248C71.9444 278.178 72.0263 278.078 72.0746 277.962C72.1229 277.845 72.1356 277.717 72.111 277.593C72.0864 277.469 72.0256 277.356 71.9363 277.266C71.8471 277.177 71.7333 277.116 71.6095 277.092C71.4857 277.067 71.3574 277.08 71.2407 277.128C71.1241 277.176 71.0244 277.258 70.9543 277.363C70.8841 277.468 70.8467 277.591 70.8467 277.717C70.8467 277.887 70.9139 278.049 71.0336 278.169C71.1532 278.288 71.3156 278.356 71.4848 278.356Z" fill="#FFBF00"/>
<path d="M76.0228 281.191C75.8966 281.191 75.7732 281.229 75.6683 281.299C75.5634 281.369 75.4816 281.469 75.4333 281.585C75.385 281.702 75.3724 281.83 75.3971 281.954C75.4217 282.078 75.4825 282.192 75.5718 282.281C75.661 282.37 75.7747 282.431 75.8985 282.455C76.0223 282.48 76.1507 282.467 76.2673 282.419C76.3839 282.371 76.4835 282.289 76.5537 282.184C76.6238 282.079 76.6612 281.956 76.6612 281.829C76.6612 281.746 76.6447 281.663 76.6126 281.585C76.5806 281.508 76.5335 281.437 76.4742 281.378C76.415 281.319 76.3446 281.272 76.2671 281.24C76.1897 281.208 76.1066 281.191 76.0228 281.191Z" fill="#FFBF00"/>
<path d="M71.503 295.974C71.6 295.916 71.67 295.822 71.6977 295.713C71.7255 295.604 71.7086 295.488 71.6508 295.391L67.63 288.728C67.7768 288.56 67.8809 288.36 67.9333 288.143C67.9857 287.927 67.9849 287.701 67.931 287.485C67.8772 287.268 67.7718 287.069 67.6238 286.902C67.4759 286.735 67.2899 286.607 67.0816 286.528C67.082 286.521 67.0818 286.514 67.0818 286.506V281.074C67.0837 281.009 67.0726 280.945 67.0493 280.885C67.0259 280.825 66.9907 280.77 66.9458 280.724C66.9008 280.678 66.8471 280.641 66.7877 280.616C66.7282 280.591 66.6644 280.578 66.5999 280.578C66.5354 280.578 66.4715 280.591 66.4121 280.616C66.3527 280.641 66.2989 280.678 66.254 280.724C66.2091 280.77 66.1739 280.825 66.1505 280.885C66.1272 280.945 66.1161 281.009 66.118 281.074V286.506C66.118 286.514 66.1073 286.521 66.1077 286.528C65.7793 286.651 65.51 286.894 65.3542 287.208C65.1985 287.521 65.168 287.883 65.269 288.218C65.37 288.554 65.5949 288.838 65.898 289.014C66.2012 289.19 66.5599 289.244 66.9013 289.165L70.9209 295.826C70.9494 295.874 70.987 295.916 71.0317 295.949C71.0764 295.983 71.1272 296.007 71.1813 296.021C71.2354 296.035 71.2916 296.037 71.3468 296.029C71.402 296.021 71.4551 296.003 71.503 295.974Z" fill="#FFBF00"/>
<path d="M239.867 273.108V290.269C239.867 290.269 243.704 285.323 246.531 284.919H248.147V278.862L246.834 278.761C246.834 278.761 241.583 277.247 239.867 273.108Z" fill="#FFA39C"/>
<path d="M239.44 273.108H238.439V290.269H239.44V273.108Z" fill="#FFA39C"/>
<path d="M253.685 278.583H249.043V285.344H253.685V278.583Z" fill="#FFA39C"/>
<path d="M254.365 279.063V284.584C254.365 284.584 256.086 283.944 256.086 281.824C256.086 279.703 254.365 279.063 254.365 279.063Z" fill="#FFA39C"/>
<path d="M249.243 285.904H252.965L249.043 293.265C249.043 293.265 248.803 294.305 247.643 293.865C246.482 293.425 247.162 292.385 247.162 292.385L249.243 285.904Z" fill="#FFA39C"/>
<path d="M238.44 279.423C238.44 279.423 235.958 279.434 235.958 281.689C235.958 283.944 238.44 284.224 238.44 284.224V279.423Z" fill="#FFA39C"/>
<path d="M234.638 284.622C234.536 284.622 234.437 284.582 234.363 284.511C233.42 283.61 232.967 282.652 233.016 281.663C233.092 280.144 234.34 279.151 234.393 279.109C234.476 279.044 234.581 279.015 234.686 279.028C234.791 279.04 234.886 279.094 234.951 279.177C235.016 279.26 235.046 279.365 235.033 279.47C235.021 279.575 234.967 279.67 234.884 279.736C234.873 279.745 233.865 280.556 233.811 281.708C233.776 282.454 234.147 283.204 234.913 283.936C234.971 283.991 235.01 284.062 235.027 284.14C235.044 284.217 235.037 284.298 235.007 284.372C234.978 284.446 234.927 284.509 234.861 284.553C234.795 284.598 234.718 284.622 234.638 284.622Z" fill="#FFA39C"/>
<path d="M232.557 287.062C232.462 287.062 232.369 287.028 232.297 286.965C232.206 286.887 230.079 285.008 230.079 281.689C230.079 278.348 232.234 276.765 232.326 276.699C232.411 276.638 232.518 276.613 232.622 276.63C232.726 276.647 232.819 276.705 232.881 276.791C232.942 276.876 232.967 276.983 232.95 277.087C232.933 277.191 232.876 277.284 232.79 277.346C232.706 277.407 230.875 278.777 230.875 281.689C230.875 284.648 232.798 286.346 232.818 286.363C232.879 286.416 232.923 286.487 232.943 286.566C232.963 286.644 232.959 286.727 232.931 286.803C232.902 286.879 232.851 286.945 232.784 286.991C232.718 287.037 232.638 287.062 232.557 287.062Z" fill="#FFA39C"/>
<path d="M230.476 289.462C230.376 289.463 230.28 289.425 230.207 289.357C230.072 289.233 226.917 286.265 226.917 281.689C226.917 277.089 230.1 274.609 230.235 274.506C230.319 274.442 230.425 274.414 230.529 274.428C230.634 274.442 230.729 274.497 230.793 274.58C230.857 274.664 230.885 274.77 230.871 274.875C230.857 274.98 230.802 275.074 230.718 275.138C230.678 275.17 227.714 277.503 227.714 281.689C227.714 285.908 230.717 288.744 230.747 288.772C230.806 288.827 230.847 288.898 230.864 288.976C230.882 289.054 230.876 289.135 230.847 289.21C230.818 289.284 230.767 289.348 230.701 289.393C230.634 289.438 230.556 289.462 230.476 289.462Z" fill="#FFA39C"/>
<path d="M44.8429 192.341C40.1895 192.341 36.4033 196.126 36.4033 200.778C36.4033 205.431 40.1895 209.216 44.8429 209.216C49.4965 209.216 53.2819 205.431 53.2819 200.778C53.2819 196.126 49.4965 192.341 44.8429 192.341ZM45.6649 206.268V208.111H43.9515V206.393C42.6665 206.339 41.5534 206.016 40.8717 205.622L41.3949 203.523C42.1483 203.936 43.2 204.312 44.3658 204.312C45.3885 204.312 46.0843 203.917 46.0843 203.2C46.0843 202.518 45.5086 202.088 44.1812 201.639C42.2609 200.993 40.962 200.097 40.962 198.356C40.962 196.778 42.0776 195.541 44.0051 195.164V193.444H45.772V195.038C46.9499 195.092 47.7653 195.343 48.3574 195.63L47.8293 197.657C47.3627 197.46 46.5329 197.047 45.2415 197.047C44.0753 197.047 43.6965 197.549 43.6965 198.052C43.6965 198.644 44.3236 199.02 45.8486 199.595C47.9834 200.348 48.8516 201.334 48.8516 202.949C48.8516 204.545 47.753 205.909 45.6649 206.268Z" fill="#FFA39C"/>
<path d="M44.8427 188.938C38.3025 188.938 33 194.239 33 200.778C33 207.318 38.3025 212.619 44.8427 212.619C51.3835 212.619 56.686 207.318 56.686 200.778C56.686 194.239 51.3835 188.938 44.8427 188.938ZM44.843 211.174C39.1095 211.174 34.4453 206.511 34.4453 200.778C34.4453 195.046 39.1095 190.383 44.843 190.383C50.5762 190.383 55.2408 195.046 55.2408 200.778C55.2408 206.511 50.5762 211.174 44.843 211.174Z" fill="#FFA39C"/>
<path d="M254.014 203.709V198.842H250.298V204.979L252.601 204.192L254.014 203.709Z" fill="#C1D53E"/>
<path d="M257.032 202.673L257.125 202.75L258.621 203.98V194.045H254.907V203.402L256.073 203.003L257.032 202.673Z" fill="#C1D53E"/>
<path d="M260.505 205.524L260.755 205.428L263.229 204.483V192.628H259.516V204.711L260.365 205.41L260.505 205.524Z" fill="#C1D53E"/>
<path d="M267.837 202.722V194.045H264.122V204.141L265.572 203.587L267.837 202.722Z" fill="#C1D53E"/>
<path d="M269.699 200.989L270.403 202.763L270.298 202.805L267.837 203.743L265.572 204.61L264.121 205.165L263.528 205.393L263.229 205.506L260.755 206.45L260.504 206.547L260.365 206.432L259.516 205.735L258.621 205.001L257.125 203.773L257.032 203.698L256.072 204.026L254.907 204.426L254.014 204.731L252.6 205.216L250.298 206.004L249.667 206.22L250.512 208.229L254.014 207.039L254.907 206.737L256.36 206.242L256.562 206.174L256.665 206.258L258.621 207.875L259.895 208.928L261.514 208.324L263.229 207.683L264.121 207.349L265.873 206.694L265.982 206.654L267.837 205.96L271.012 204.772L271.857 206.547L275 201.828L269.699 200.989Z" fill="#C1D53E"/>
<path d="M162.28 110.578L163.854 107.864C163.932 107.731 164.035 107.613 164.157 107.52C164.28 107.426 164.42 107.357 164.57 107.317C164.719 107.278 164.875 107.268 165.028 107.288C165.181 107.309 165.329 107.359 165.463 107.437L169.911 110.018C169.914 109.162 169.717 108.318 169.335 107.553C168.953 106.787 168.397 106.122 167.712 105.61C167.026 105.098 166.23 104.753 165.388 104.604C164.545 104.455 163.68 104.506 162.86 104.752C162.569 104.628 162.305 104.448 162.085 104.22L155.421 97.2862L155.419 97.288L150.716 92.3938C150.478 92.1457 150.297 91.8484 150.186 91.523C150.513 90.4702 150.515 89.3435 150.191 88.2897C149.868 87.236 149.235 86.304 148.374 85.6154C147.513 84.9268 146.465 84.5135 145.365 84.4293C144.266 84.3452 143.167 84.5941 142.211 85.1437L146.66 87.7254C146.93 87.8821 147.126 88.1396 147.207 88.4412C147.287 88.7428 147.244 89.064 147.088 89.3341L145.513 92.047C145.436 92.1809 145.333 92.2981 145.21 92.392C145.087 92.486 144.946 92.5548 144.797 92.5945C144.647 92.6342 144.491 92.6441 144.338 92.6235C144.185 92.603 144.037 92.5524 143.903 92.4747L139.456 89.8929C139.453 90.7482 139.651 91.5923 140.033 92.3576C140.415 93.1229 140.971 93.7882 141.656 94.3002C142.342 94.8122 143.137 95.1567 143.98 95.3062C144.822 95.4556 145.688 95.4059 146.507 95.1609C146.798 95.2835 147.062 95.4638 147.281 95.6908L153.946 102.626L153.948 102.623L158.652 107.518C158.89 107.766 159.07 108.064 159.18 108.389C158.854 109.442 158.852 110.569 159.176 111.622C159.499 112.676 160.133 113.607 160.994 114.296C161.854 114.984 162.903 115.397 164.002 115.481C165.101 115.565 166.2 115.316 167.155 114.767L162.708 112.185C162.574 112.108 162.457 112.005 162.363 111.883C162.269 111.76 162.2 111.62 162.16 111.471C162.12 111.321 162.11 111.165 162.131 111.012C162.151 110.859 162.202 110.711 162.28 110.578Z" fill="#A48CC1"/>
<path d="M169.179 85.9237L167.256 84L164.021 85.3136L162.708 88.5496L149.924 101.331C149.344 101.911 149.867 102.294 150.398 102.824C150.929 103.354 151.267 103.834 151.846 103.253L164.632 90.4707L167.867 89.1591L169.179 85.9237Z" fill="#A48CC1"/>
<path d="M152.372 102.728L150.449 100.804C149.653 100.009 148.301 100.068 147.431 100.939L137.451 110.916C136.58 111.787 136.522 113.137 137.318 113.934L139.241 115.856C140.037 116.653 141.388 116.594 142.259 115.722L152.239 105.746C153.109 104.875 153.169 103.524 152.372 102.728ZM138.342 112.332L137.957 111.948C137.798 111.789 138.235 111.095 138.93 110.399L146.913 102.416C147.61 101.722 148.303 101.285 148.464 101.444L148.848 101.83C149.007 101.988 148.571 102.683 147.874 103.378L139.891 111.36C139.195 112.056 138.502 112.492 138.342 112.332ZM139.785 113.775L139.4 113.39C139.241 113.231 139.677 112.538 140.372 111.84L148.357 103.86C149.052 103.163 149.745 102.728 149.904 102.886L150.291 103.272C150.449 103.431 150.014 104.125 149.319 104.821L141.334 112.803C140.637 113.498 139.944 113.934 139.785 113.775ZM150.761 106.262L142.776 114.244C142.08 114.94 141.386 115.376 141.227 115.217L140.843 114.832C140.683 114.673 141.119 113.979 141.815 113.283L149.799 105.302C150.494 104.606 151.188 104.17 151.347 104.329L151.732 104.714C151.891 104.874 151.455 105.567 150.761 106.262Z" fill="#A48CC1"/>
<path d="M153.335 306.359L166.177 295.661C166.111 295.641 166.042 295.627 165.973 295.62H140.696C140.627 295.627 140.559 295.641 140.494 295.661L153.335 306.359Z" fill="#A48CC1"/>
<path d="M167.122 296.769C167.117 296.652 167.094 296.536 167.054 296.427L157.948 304.012L167.067 313.131C167.097 313.04 167.115 312.946 167.122 312.851V296.769Z" fill="#A48CC1"/>
<path d="M139.617 296.425C139.575 296.535 139.551 296.651 139.546 296.769V312.851C139.553 312.947 139.573 313.041 139.604 313.132L148.724 304.013L139.617 296.425Z" fill="#A48CC1"/>
<path d="M157.06 304.752L153.702 307.548C153.599 307.635 153.469 307.682 153.335 307.682C153.2 307.682 153.07 307.635 152.967 307.548L149.61 304.753L140.417 313.943C140.507 313.974 140.6 313.994 140.695 314H165.973C166.069 313.994 166.164 313.974 166.254 313.943L157.06 304.752Z" fill="#A48CC1"/>
</g>
<defs>
<clipPath id="clip0_117_4237">
<rect width="242" height="230" fill="white" transform="translate(33 84)"/>
</clipPath>
</defs>
</svg>
