<svg width="308" height="399" viewBox="0 0 308 399" fill="none" xmlns="http://www.w3.org/2000/svg">
<path d="M0 20C0 8.9543 8.95431 0 20 0H288C299.046 0 308 8.95431 308 20V399H0V20Z" fill="#F9F9FB"/>
<g clip-path="url(#clip0_117_4242)">
<path d="M171.598 51H160.104C160.288 51.7873 160.381 52.5933 160.381 53.4019C160.381 56.2267 159.261 58.9359 157.269 60.9333C155.276 62.9308 152.573 64.0529 149.754 64.0529C146.936 64.0529 144.233 62.9308 142.24 60.9333C140.247 58.9359 139.128 56.2267 139.128 53.4019C139.127 52.5932 139.22 51.7872 139.405 51L127.91 51C127.685 51.3166 127.562 51.6953 127.56 52.0844V54.7156C127.567 55.1951 127.749 55.6553 128.073 56.0087C128.396 56.3621 128.837 56.5842 129.313 56.6327L129.823 56.677C130.322 56.7511 130.79 56.9657 131.173 57.2959C131.555 57.6261 131.836 58.0583 131.983 58.5422C132.365 59.871 132.895 61.1522 133.564 62.3615C133.801 62.8078 133.908 63.3125 133.87 63.8169C133.833 64.3213 133.654 64.8048 133.353 65.2111L133.024 65.6034C132.721 65.974 132.564 66.4437 132.583 66.9228C132.603 67.402 132.798 67.8571 133.131 68.2013L134.989 70.0628C135.332 70.3964 135.786 70.592 136.264 70.6125C136.741 70.6329 137.21 70.4769 137.581 70.1739L137.972 69.8445C138.377 69.5427 138.859 69.3623 139.363 69.3243C139.866 69.2863 140.37 69.3922 140.815 69.6298C142.022 70.2994 143.3 70.8308 144.626 71.2138C145.109 71.3612 145.54 71.6429 145.869 72.0262C146.199 72.4094 146.413 72.8785 146.487 73.3789L146.531 73.8895C146.579 74.366 146.8 74.8082 147.152 75.1322C147.504 75.4562 147.962 75.6396 148.44 75.6474H151.065C151.543 75.6403 152.003 75.4573 152.355 75.1333C152.708 74.8092 152.929 74.3666 152.978 73.8895L153.022 73.3789C153.096 72.8785 153.31 72.4094 153.64 72.0262C153.969 71.6429 154.4 71.3612 154.883 71.2138C156.208 70.8308 157.487 70.2994 158.693 69.6298C159.139 69.3925 159.642 69.2863 160.146 69.3237C160.649 69.3611 161.131 69.5404 161.537 69.8409L161.928 70.1739C162.299 70.4769 162.767 70.6329 163.245 70.6125C163.723 70.592 164.177 70.3964 164.52 70.0628L166.377 68.2013C166.709 67.8567 166.904 67.4021 166.924 66.9235C166.945 66.4448 166.79 65.9752 166.488 65.6034L166.156 65.2111C165.855 64.8048 165.676 64.3213 165.638 63.8169C165.601 63.3125 165.707 62.8078 165.945 62.3615C166.614 61.1522 167.144 59.8709 167.526 58.5422C167.671 58.0576 167.952 57.6248 168.335 57.2944C168.717 56.9641 169.186 56.7499 169.685 56.677L170.195 56.6327C170.672 56.5848 171.113 56.3629 171.437 56.0094C171.76 55.6558 171.943 55.1953 171.949 54.7156V52.088C171.948 51.6976 171.825 51.3174 171.598 51Z" fill="#D1DCF8"/>
<path d="M219 270.347L215.067 263.52L211.135 256.693L207.202 263.52L203.27 270.347H207.689V347.064H214.581V270.347H219Z" fill="#D1DCF8"/>
<path d="M122.467 79.7814L118.534 72.9546L114.601 66.1277L110.669 72.9546L106.737 79.7814H111.156V127.853H118.048V79.7814H122.467Z" fill="#D1DCF8"/>
<path d="M215.432 179.173L213.283 175.443L211.135 171.713L208.986 175.443L206.837 179.173H209.252V207.814H213.018V179.173H215.432Z" fill="#D1DCF8"/>
<path d="M114.737 271.352L117.909 271.64L123.242 261.767H121.657L116.178 268.414L114.737 271.352Z" fill="#D1AA8F"/>
<path d="M212.498 160.904C212.498 161.174 212.418 161.439 212.269 161.663C212.119 161.888 211.906 162.063 211.657 162.167C211.407 162.27 211.133 162.297 210.869 162.245C210.604 162.192 210.361 162.062 210.17 161.87C209.98 161.679 209.85 161.436 209.797 161.171C209.745 160.906 209.772 160.631 209.875 160.381C209.978 160.131 210.153 159.918 210.377 159.767C210.601 159.617 210.865 159.537 211.135 159.537C211.496 159.537 211.843 159.681 212.099 159.937C212.355 160.194 212.498 160.541 212.498 160.904Z" fill="#D1DCF8"/>
<path d="M212.498 151.808C212.498 152.078 212.418 152.343 212.269 152.567C212.119 152.792 211.906 152.967 211.657 153.071C211.407 153.174 211.133 153.201 210.869 153.149C210.604 153.096 210.361 152.966 210.17 152.775C209.98 152.583 209.85 152.34 209.797 152.075C209.745 151.81 209.772 151.535 209.875 151.285C209.978 151.035 210.153 150.822 210.377 150.672C210.601 150.521 210.865 150.441 211.135 150.441C211.496 150.441 211.843 150.585 212.099 150.841C212.355 151.098 212.498 151.445 212.498 151.808Z" fill="#D1DCF8"/>
<path d="M212.498 142.712C212.498 142.982 212.418 143.246 212.269 143.471C212.119 143.696 211.906 143.871 211.657 143.975C211.407 144.078 211.133 144.105 210.869 144.052C210.604 144 210.361 143.869 210.17 143.678C209.98 143.487 209.85 143.244 209.797 142.978C209.745 142.713 209.772 142.439 209.875 142.189C209.978 141.939 210.153 141.726 210.377 141.575C210.601 141.425 210.865 141.345 211.135 141.345C211.496 141.345 211.843 141.489 212.099 141.745C212.355 142.002 212.498 142.349 212.498 142.712Z" fill="#D1DCF8"/>
<path d="M211.135 134.983C211.888 134.983 212.498 134.371 212.498 133.616C212.498 132.861 211.888 132.249 211.135 132.249C210.382 132.249 209.771 132.861 209.771 133.616C209.771 134.371 210.382 134.983 211.135 134.983Z" fill="#D1DCF8"/>
<path d="M211.135 125.887C211.888 125.887 212.498 125.275 212.498 124.52C212.498 123.765 211.888 123.153 211.135 123.153C210.382 123.153 209.771 123.765 209.771 124.52C209.771 125.275 210.382 125.887 211.135 125.887Z" fill="#D1DCF8"/>
<path d="M212.498 115.424C212.498 115.694 212.418 115.958 212.269 116.183C212.119 116.408 211.906 116.583 211.657 116.687C211.407 116.79 211.133 116.817 210.869 116.764C210.604 116.712 210.361 116.581 210.17 116.39C209.98 116.199 209.85 115.956 209.797 115.69C209.745 115.425 209.772 115.15 209.875 114.901C209.978 114.651 210.153 114.437 210.377 114.287C210.601 114.137 210.865 114.057 211.135 114.057C211.314 114.057 211.491 114.092 211.657 114.161C211.822 114.23 211.972 114.33 212.099 114.457C212.226 114.584 212.326 114.735 212.395 114.901C212.463 115.067 212.498 115.244 212.498 115.424Z" fill="#D1DCF8"/>
<path d="M115.965 254.522C115.965 254.792 115.885 255.056 115.735 255.281C115.586 255.506 115.373 255.681 115.123 255.785C114.874 255.888 114.6 255.915 114.335 255.862C114.071 255.81 113.828 255.68 113.637 255.488C113.446 255.297 113.317 255.054 113.264 254.789C113.211 254.523 113.238 254.249 113.342 253.999C113.445 253.749 113.62 253.536 113.844 253.385C114.068 253.235 114.332 253.155 114.602 253.155C114.781 253.155 114.958 253.19 115.123 253.259C115.289 253.328 115.439 253.428 115.566 253.555C115.692 253.682 115.793 253.833 115.861 253.999C115.93 254.165 115.965 254.342 115.965 254.522Z" fill="#D1DCF8"/>
<path d="M115.965 245.426C115.965 245.696 115.885 245.96 115.736 246.185C115.586 246.41 115.373 246.585 115.124 246.689C114.874 246.792 114.6 246.82 114.336 246.767C114.071 246.714 113.828 246.584 113.637 246.393C113.447 246.202 113.317 245.958 113.264 245.693C113.211 245.428 113.238 245.153 113.342 244.903C113.445 244.653 113.62 244.44 113.844 244.29C114.068 244.139 114.332 244.059 114.602 244.059C114.963 244.059 115.31 244.203 115.566 244.459C115.821 244.716 115.965 245.063 115.965 245.426Z" fill="#D1DCF8"/>
<path d="M115.965 236.33C115.965 236.6 115.885 236.864 115.735 237.089C115.586 237.314 115.373 237.489 115.123 237.593C114.874 237.696 114.6 237.723 114.335 237.67C114.071 237.618 113.828 237.487 113.637 237.296C113.447 237.105 113.317 236.862 113.264 236.596C113.211 236.331 113.238 236.056 113.342 235.807C113.445 235.557 113.62 235.343 113.844 235.193C114.068 235.043 114.332 234.963 114.602 234.963C114.781 234.963 114.958 234.998 115.123 235.067C115.289 235.136 115.439 235.236 115.566 235.363C115.692 235.49 115.793 235.641 115.861 235.807C115.93 235.972 115.965 236.15 115.965 236.33Z" fill="#D1DCF8"/>
<path d="M115.965 227.234C115.965 227.504 115.885 227.768 115.735 227.993C115.586 228.218 115.373 228.393 115.123 228.496C114.874 228.6 114.6 228.627 114.335 228.574C114.071 228.521 113.828 228.391 113.637 228.2C113.447 228.009 113.317 227.765 113.264 227.5C113.211 227.235 113.238 226.96 113.342 226.71C113.445 226.461 113.62 226.247 113.844 226.097C114.068 225.947 114.332 225.867 114.602 225.867C114.781 225.867 114.958 225.902 115.123 225.971C115.289 226.039 115.439 226.14 115.566 226.267C115.692 226.394 115.793 226.545 115.861 226.71C115.93 226.876 115.965 227.054 115.965 227.234Z" fill="#D1DCF8"/>
<path d="M115.965 164.825C115.965 165.096 115.885 165.36 115.735 165.585C115.586 165.809 115.373 165.985 115.123 166.088C114.874 166.192 114.6 166.219 114.335 166.166C114.071 166.113 113.828 165.983 113.637 165.792C113.447 165.601 113.317 165.357 113.264 165.092C113.211 164.827 113.238 164.552 113.342 164.302C113.445 164.053 113.62 163.839 113.844 163.689C114.068 163.539 114.332 163.458 114.602 163.458C114.781 163.458 114.958 163.494 115.123 163.563C115.289 163.631 115.439 163.732 115.566 163.859C115.692 163.986 115.793 164.136 115.861 164.302C115.93 164.468 115.965 164.646 115.965 164.825Z" fill="#D1DCF8"/>
<path d="M115.965 155.729C115.965 156 115.885 156.264 115.736 156.489C115.586 156.714 115.373 156.889 115.124 156.992C114.875 157.096 114.6 157.123 114.336 157.07C114.071 157.018 113.828 156.887 113.637 156.696C113.447 156.505 113.317 156.262 113.264 155.996C113.211 155.731 113.238 155.456 113.342 155.207C113.445 154.957 113.62 154.743 113.844 154.593C114.068 154.443 114.332 154.363 114.602 154.363C114.963 154.363 115.31 154.507 115.566 154.763C115.821 155.019 115.965 155.367 115.965 155.729Z" fill="#D1DCF8"/>
<path d="M115.965 146.633C115.965 146.904 115.885 147.168 115.735 147.393C115.586 147.618 115.373 147.793 115.123 147.896C114.874 148 114.6 148.027 114.335 147.974C114.071 147.921 113.828 147.791 113.637 147.6C113.447 147.409 113.317 147.165 113.264 146.9C113.211 146.635 113.238 146.36 113.342 146.11C113.445 145.861 113.62 145.647 113.844 145.497C114.068 145.347 114.332 145.267 114.602 145.267C114.781 145.267 114.958 145.302 115.123 145.371C115.289 145.439 115.439 145.54 115.566 145.667C115.692 145.794 115.793 145.945 115.861 146.11C115.93 146.276 115.965 146.454 115.965 146.633Z" fill="#D1DCF8"/>
<path d="M114.602 138.904C115.355 138.904 115.965 138.292 115.965 137.537C115.965 136.782 115.355 136.17 114.602 136.17C113.848 136.17 113.238 136.782 113.238 137.537C113.238 138.292 113.848 138.904 114.602 138.904Z" fill="#D1DCF8"/>
<path d="M191.682 98.5778C200.757 98.5778 208.113 91.2046 208.113 82.1092C208.113 73.0139 200.757 65.6406 191.682 65.6406C182.608 65.6406 175.251 73.0139 175.251 82.1092C175.251 91.2046 182.608 98.5778 191.682 98.5778Z" fill="#EA5C52"/>
<path d="M218.865 86.0832C218.923 85.7767 218.866 85.4597 218.707 85.192C218.547 84.9244 218.294 84.7249 217.998 84.6313L216.815 84.2807C216.509 84.1749 216.244 83.9755 216.057 83.7106C215.871 83.4456 215.772 83.1286 215.775 82.8044C215.819 81.4039 215.738 80.0023 215.534 78.6162C215.494 78.2951 215.556 77.9695 215.711 77.6854C215.865 77.4012 216.104 77.1727 216.395 77.0321L217.527 76.5444C217.811 76.4164 218.039 76.1886 218.166 75.9041C218.294 75.6195 218.313 75.298 218.22 75.0001L217.207 71.9273C217.104 71.6329 216.898 71.3866 216.626 71.2352C216.354 71.0838 216.036 71.0379 215.732 71.1063L214.529 71.3958C214.211 71.4575 213.882 71.4175 213.589 71.2817C213.295 71.1458 213.051 70.9209 212.892 70.6387C212.226 69.4079 211.456 68.2362 210.592 67.1365C210.397 66.8778 210.288 66.5644 210.28 66.2404C210.273 65.9165 210.367 65.5982 210.549 65.3307L211.291 64.3381C211.474 64.085 211.557 63.7735 211.526 63.4627C211.495 63.1519 211.351 62.8635 211.121 62.6521L208.708 60.5018C208.472 60.2983 208.17 60.1889 207.859 60.1943C207.548 60.1997 207.25 60.3195 207.021 60.531L206.125 61.3801C205.881 61.5927 205.577 61.7231 205.255 61.7527C204.934 61.7823 204.611 61.7097 204.333 61.5451C203.142 60.8106 201.891 60.1813 200.591 59.6644C200.294 59.5382 200.043 59.3216 199.874 59.045C199.706 58.7685 199.628 58.446 199.651 58.1228L199.798 56.8953C199.831 56.5842 199.748 56.272 199.566 56.0181C199.384 55.7643 199.114 55.5865 198.81 55.5187L195.651 54.8647C195.344 54.8067 195.028 54.8634 194.76 55.0242C194.493 55.185 194.294 55.4386 194.201 55.7368L193.849 56.9217C193.744 57.228 193.545 57.4936 193.282 57.6807C193.018 57.8678 192.702 57.967 192.379 57.9643C190.982 57.9224 189.583 58.0032 188.2 58.2057C187.879 58.2467 187.554 58.1853 187.27 58.0302C186.985 57.8752 186.757 57.6344 186.617 57.342L186.131 56.2068C186.004 55.9215 185.777 55.6929 185.493 55.5644C185.209 55.4359 184.887 55.4163 184.59 55.5095L181.53 56.5268C181.236 56.6298 180.989 56.8373 180.838 57.1102C180.686 57.3831 180.64 57.7022 180.707 58.0072L180.996 59.2162C181.056 59.5344 181.016 59.8637 180.881 60.1578C180.745 60.452 180.521 60.6963 180.241 60.8567C179.011 61.5206 177.842 62.2912 176.747 63.1595C176.489 63.3541 176.176 63.463 175.853 63.4711C175.53 63.4792 175.212 63.3861 174.945 63.2047L173.954 62.4611C173.702 62.2778 173.391 62.1936 173.08 62.2244C172.77 62.2552 172.482 62.3989 172.27 62.6283L170.125 65.0445C169.922 65.2814 169.813 65.5847 169.818 65.8968C169.823 66.209 169.943 66.5084 170.154 66.7382L171.004 67.6363C171.215 67.881 171.344 68.1859 171.373 68.508C171.402 68.8302 171.329 69.1534 171.165 69.4319C170.433 70.6251 169.805 71.8798 169.289 73.1819C169.164 73.4804 168.948 73.7319 168.673 73.9011C168.397 74.0703 168.076 74.1487 167.754 74.1252L166.526 73.9768C166.216 73.9442 165.905 74.0269 165.652 74.2091C165.399 74.3912 165.221 74.6603 165.153 74.9651L164.5 78.1342C164.442 78.4415 164.499 78.7593 164.659 79.0275C164.819 79.2957 165.072 79.4957 165.37 79.5895L166.553 79.9402C166.858 80.0469 167.122 80.2465 167.309 80.5112C167.495 80.7759 167.594 81.0924 167.593 81.4164C167.551 82.8157 167.632 84.216 167.834 85.6013C167.874 85.9227 167.813 86.2487 167.659 86.5334C167.505 86.8182 167.266 87.0474 166.975 87.1889L165.839 87.6761C165.555 87.8028 165.327 88.0298 165.199 88.314C165.071 88.5982 165.051 88.9197 165.144 89.2174L166.159 92.2871C166.262 92.5826 166.469 92.8299 166.742 92.982C167.015 93.1342 167.334 93.1806 167.639 93.1124L168.841 92.8255C169.159 92.7641 169.488 92.8042 169.781 92.94C170.075 93.0758 170.319 93.3006 170.478 93.5826C171.14 94.8144 171.909 95.9853 172.776 97.0816C172.971 97.3403 173.08 97.6536 173.088 97.9775C173.096 98.3014 173.003 98.6197 172.821 98.8879L172.079 99.8805C171.897 100.134 171.814 100.446 171.845 100.757C171.876 101.068 172.02 101.357 172.249 101.569L174.657 103.715C174.893 103.92 175.195 104.031 175.507 104.026C175.819 104.021 176.118 103.902 176.347 103.69L177.24 102.84C177.484 102.627 177.789 102.497 178.112 102.468C178.435 102.438 178.758 102.511 179.037 102.676C180.226 103.413 181.478 104.042 182.778 104.557C183.076 104.683 183.326 104.9 183.495 105.176C183.663 105.453 183.74 105.775 183.716 106.098L183.572 107.323C183.539 107.634 183.622 107.946 183.804 108.199C183.985 108.453 184.254 108.631 184.558 108.699L187.717 109.353C188.024 109.412 188.341 109.356 188.609 109.195C188.876 109.034 189.076 108.78 189.169 108.482L189.519 107.299C189.625 106.993 189.824 106.728 190.088 106.541C190.352 106.354 190.668 106.255 190.991 106.257C192.388 106.3 193.787 106.219 195.17 106.016C195.49 105.975 195.815 106.036 196.099 106.191C196.382 106.346 196.61 106.587 196.75 106.879L197.234 108.013C197.361 108.299 197.588 108.527 197.872 108.655C198.157 108.783 198.478 108.802 198.775 108.708L201.84 107.692C202.134 107.589 202.381 107.381 202.532 107.108C202.684 106.835 202.73 106.516 202.663 106.211L202.374 105.008C202.312 104.69 202.351 104.36 202.486 104.066C202.621 103.771 202.845 103.527 203.126 103.367C204.357 102.702 205.528 101.932 206.626 101.065C206.883 100.869 207.196 100.759 207.519 100.751C207.843 100.743 208.16 100.837 208.428 101.02L209.416 101.76C209.668 101.944 209.978 102.028 210.288 101.996C210.598 101.965 210.885 101.82 211.095 101.589L213.24 99.173C213.443 98.937 213.552 98.6343 213.548 98.3227C213.543 98.011 213.424 97.712 213.213 97.4825L212.366 96.585C212.155 96.3398 212.025 96.0343 211.996 95.7116C211.967 95.3889 212.039 95.0651 212.202 94.7855C212.937 93.5945 213.566 92.3409 214.081 91.0394C214.206 90.7409 214.422 90.4893 214.697 90.3201C214.973 90.1509 215.294 90.0726 215.616 90.0963L216.843 90.2443C217.153 90.2758 217.464 90.1923 217.717 90.0096C217.97 89.827 218.147 89.5577 218.215 89.253L218.865 86.0832ZM211.742 87.7097C211.585 88.459 211.375 89.1959 211.113 89.9148C210.672 91.0186 210.137 92.0823 209.514 93.0943C209.096 93.7335 208.631 94.3413 208.125 94.9131L206.308 96.9558C205.801 97.5271 205.251 98.0599 204.665 98.55C203.707 99.3132 202.682 99.9892 201.604 100.57C200.921 100.914 200.215 101.209 199.489 101.451L196.884 102.318C196.159 102.559 195.417 102.746 194.664 102.876C193.503 103.044 192.329 103.114 191.156 103.084C190.393 103.042 189.635 102.943 188.886 102.789L186.078 102.208C185.331 102.052 184.595 101.842 183.878 101.578C182.792 101.141 181.744 100.613 180.747 99.9983C180.108 99.5792 179.5 99.1133 178.93 98.6045L176.87 96.7682C176.301 96.2584 175.769 95.7089 175.278 95.1236C174.522 94.1643 173.851 93.1402 173.273 92.0632C172.927 91.3799 172.634 90.6716 172.394 89.9443L171.523 87.3192C171.284 86.5921 171.098 85.8488 170.966 85.0951C170.798 83.9319 170.728 82.7565 170.758 81.5816C170.8 80.8162 170.899 80.055 171.053 79.3041L171.626 76.5083C171.781 75.7587 171.991 75.0216 172.255 74.303C172.692 73.2081 173.222 72.153 173.84 71.1492C174.257 70.5073 174.722 69.8975 175.23 69.325L177.057 67.2613C177.566 66.6907 178.116 66.157 178.701 65.6645C179.661 64.9046 180.686 64.2307 181.764 63.6505C182.445 63.3049 183.151 63.0105 183.875 62.7696L186.49 61.901C187.215 61.6617 187.957 61.4752 188.709 61.3429C189.876 61.1744 191.055 61.106 192.234 61.1384C192.995 61.1805 193.753 61.2788 194.5 61.4327L197.27 62.0059C198.019 62.1619 198.755 62.3728 199.473 62.6369C200.568 63.0764 201.623 63.6083 202.628 64.227C203.267 64.6464 203.874 65.1121 204.445 65.6204L206.496 67.4493C207.066 67.9594 207.599 68.511 208.089 69.0996C208.847 70.061 209.52 71.0864 210.102 72.1644C210.445 72.848 210.739 73.5553 210.981 74.2809L211.841 76.8892C212.081 77.6172 212.268 78.3618 212.4 79.1169C212.57 80.2896 212.64 81.4746 212.608 82.6591C212.565 83.4233 212.466 84.1834 212.314 84.9336L211.742 87.7097Z" fill="#36BA5B"/>
<path d="M196.214 60.4552L196.149 60.4415C190.417 59.2607 184.452 60.4088 179.565 63.6336C174.678 66.8584 171.268 71.896 170.084 77.6394C168.901 83.3829 170.041 89.3624 173.254 94.2639C176.466 99.1654 181.489 102.588 187.218 103.78L187.284 103.793C193.01 104.96 198.965 103.805 203.842 100.579C208.719 97.3535 212.122 92.3215 213.304 86.5858C214.485 80.8501 213.35 74.8788 210.147 69.9806C206.943 65.0825 201.933 61.6571 196.214 60.4552ZM211.113 89.9149C210.672 91.0187 210.137 92.0824 209.514 93.0944C209.096 93.7336 208.631 94.3414 208.125 94.9132L206.308 96.9559C205.8 97.5272 205.251 98.06 204.665 98.5501C203.706 99.3133 202.682 99.9893 201.604 100.57C200.921 100.914 200.214 101.209 199.489 101.451L196.883 102.318C196.158 102.559 195.417 102.746 194.664 102.876C193.503 103.044 192.329 103.114 191.156 103.084C190.393 103.042 189.634 102.944 188.886 102.789L186.078 102.208C185.33 102.052 184.595 101.842 183.878 101.578C182.791 101.141 181.744 100.613 180.747 99.9984C180.108 99.5793 179.5 99.1134 178.929 98.6046L176.869 96.7683C176.301 96.2585 175.769 95.709 175.278 95.1237C174.522 94.1644 173.851 93.1403 173.273 92.0633C172.927 91.38 172.634 90.6717 172.394 89.9444L171.522 87.3193C171.284 86.5922 171.098 85.8489 170.966 85.0952C170.798 83.932 170.728 82.7566 170.758 81.5816C170.8 80.8163 170.899 80.0551 171.053 79.3042L171.626 76.5084C171.781 75.7588 171.991 75.0217 172.255 74.3031C172.692 73.2082 173.222 72.1531 173.839 71.1493C174.257 70.5074 174.722 69.8976 175.23 69.3251L177.057 67.2614C177.566 66.6908 178.116 66.1571 178.701 65.6646C179.661 64.9047 180.686 64.2308 181.764 63.6506C182.445 63.305 183.15 63.0106 183.875 62.7697L186.49 61.9011C187.215 61.6618 187.957 61.4753 188.709 61.343C189.876 61.1745 191.055 61.1061 192.233 61.1385C192.995 61.1806 193.753 61.2789 194.5 61.4328L197.27 62.006C198.019 62.162 198.755 62.3729 199.473 62.637C200.568 63.0765 201.623 63.6084 202.628 64.227C203.267 64.6465 203.874 65.1122 204.445 65.6205L206.495 67.4494C207.066 67.9595 207.599 68.5111 208.088 69.0997C208.847 70.0611 209.52 71.0865 210.102 72.1645C210.445 72.8481 210.738 73.5554 210.981 74.281L211.841 76.8893C212.081 77.6173 212.268 78.3619 212.4 79.117C212.57 80.2896 212.639 81.4747 212.608 82.6592C212.565 83.4234 212.466 84.1835 212.314 84.9337L211.742 87.7098C211.585 88.459 211.375 89.196 211.113 89.9149Z" fill="#36BA5B"/>
<path d="M200.839 78.454C200.87 78.2247 200.9 77.9946 200.914 77.7603H182.669C182.683 77.9946 182.713 78.2247 182.745 78.454H179.978L180.034 78.9827C180.04 79.0409 180.715 84.7869 186.674 84.7941C187.698 85.4931 188.854 85.9746 190.071 86.2087V90.8217H189.877C189.814 90.8217 189.753 90.8469 189.708 90.8917C189.663 90.9366 189.638 90.9975 189.638 91.0609C189.638 91.1244 189.663 91.1852 189.708 91.2301C189.753 91.275 189.814 91.3002 189.877 91.3002H193.368C193.431 91.3002 193.492 91.275 193.537 91.2301C193.582 91.1852 193.607 91.1244 193.607 91.0609C193.607 90.9975 193.582 90.9366 193.537 90.8917C193.492 90.8469 193.431 90.8217 193.368 90.8217H193.174V86.2584C194.52 86.0547 195.802 85.5499 196.926 84.7816V84.7943C202.896 84.7943 203.571 79.0409 203.577 78.9827L203.633 78.454H200.839ZM181.08 79.411H182.924C183.329 81.0432 184.174 82.5323 185.367 83.715C182.285 83.1313 181.345 80.5454 181.08 79.411ZM198.211 83.7207C199.407 82.5372 200.254 81.0459 200.659 79.411H202.533C202.272 80.55 201.332 83.1508 198.211 83.7207Z" fill="#FCDB7A"/>
<path d="M178.732 115.903L177.647 110.739C177.583 110.459 177.419 110.212 177.186 110.045C176.952 109.878 176.666 109.803 176.381 109.834L173.674 110.167C173.372 110.19 173.071 110.123 172.808 109.974C172.545 109.825 172.331 109.601 172.196 109.33C171.189 107.188 169.846 105.221 168.217 103.505C168.014 103.281 167.882 103.001 167.838 102.702C167.793 102.402 167.839 102.096 167.969 101.822L169.262 99.412C169.393 99.1566 169.427 98.8619 169.356 98.5836C169.285 98.3053 169.114 98.0626 168.877 97.9015L164.467 95.0166C164.224 94.8647 163.934 94.8069 163.652 94.854C163.369 94.901 163.113 95.0498 162.932 95.2723L161.254 97.4308C161.056 97.6601 160.795 97.8255 160.504 97.9058C160.212 97.9862 159.904 97.9779 159.617 97.882C157.394 97.0815 155.057 96.6428 152.695 96.5827C152.394 96.5676 152.104 96.4631 151.861 96.2826C151.619 96.1021 151.436 95.8536 151.335 95.5686L150.544 92.9524C150.458 92.6788 150.274 92.4463 150.028 92.2995C149.783 92.1526 149.491 92.1015 149.21 92.156L144.055 93.2448C143.775 93.3078 143.528 93.472 143.361 93.706C143.194 93.94 143.12 94.2273 143.151 94.5131L143.487 97.2255C143.508 97.5275 143.439 97.8289 143.29 98.0919C143.14 98.355 142.917 98.5679 142.647 98.704C140.51 99.7154 138.547 101.062 136.833 102.692C136.61 102.896 136.331 103.028 136.033 103.072C135.734 103.117 135.43 103.071 135.157 102.941L132.756 101.643C132.5 101.513 132.206 101.48 131.928 101.552C131.65 101.623 131.407 101.793 131.245 102.031L128.371 106.453C128.218 106.696 128.159 106.988 128.206 107.271C128.253 107.555 128.403 107.811 128.626 107.991L130.776 109.674C131.005 109.872 131.17 110.134 131.251 110.426C131.332 110.717 131.325 111.027 131.23 111.314C130.428 113.542 129.989 115.885 129.93 118.253C129.915 118.555 129.811 118.846 129.631 119.089C129.451 119.331 129.203 119.515 128.919 119.616L126.308 120.406C126.034 120.492 125.802 120.677 125.655 120.924C125.509 121.171 125.458 121.464 125.513 121.746L126.599 126.91C126.662 127.19 126.826 127.438 127.06 127.606C127.293 127.773 127.58 127.849 127.866 127.818L130.572 127.482C130.873 127.46 131.173 127.528 131.435 127.678C131.698 127.827 131.91 128.05 132.046 128.32C133.054 130.464 134.399 132.431 136.029 134.147C136.231 134.372 136.362 134.651 136.405 134.951C136.449 135.25 136.402 135.555 136.273 135.828L134.983 138.237C134.851 138.492 134.817 138.787 134.888 139.066C134.959 139.345 135.13 139.587 135.368 139.748L139.778 142.633C140.022 142.786 140.313 142.844 140.596 142.796C140.88 142.748 141.136 142.597 141.316 142.372L142.992 140.218C143.189 139.99 143.449 139.826 143.74 139.745C144.03 139.664 144.338 139.671 144.624 139.764C146.849 140.566 149.187 141.006 151.55 141.066C151.852 141.083 152.142 141.188 152.385 141.369C152.628 141.55 152.812 141.798 152.915 142.083L153.698 144.698C153.784 144.972 153.968 145.205 154.215 145.351C154.462 145.498 154.754 145.548 155.035 145.493L160.191 144.404C160.47 144.341 160.716 144.176 160.882 143.943C161.048 143.709 161.122 143.422 161.091 143.137L160.762 140.427C160.74 140.125 160.808 139.823 160.956 139.559C161.105 139.295 161.328 139.082 161.598 138.945C163.736 137.935 165.697 136.588 167.408 134.954C167.633 134.752 167.913 134.622 168.211 134.578C168.51 134.534 168.815 134.58 169.089 134.709L171.492 136.001C171.746 136.135 172.041 136.169 172.319 136.098C172.598 136.026 172.84 135.854 172.999 135.615L175.874 131.196C176.027 130.952 176.085 130.662 176.038 130.378C175.991 130.095 175.842 129.838 175.619 129.658L173.466 127.976C173.237 127.778 173.072 127.517 172.992 127.226C172.911 126.934 172.92 126.625 173.016 126.338C173.814 124.108 174.251 121.765 174.312 119.397C174.327 119.094 174.432 118.803 174.613 118.561C174.794 118.318 175.042 118.134 175.327 118.033L177.939 117.247C178.212 117.158 178.443 116.973 178.589 116.726C178.735 116.478 178.786 116.186 178.732 115.903ZM135.508 122.332C134.816 119.039 135.114 115.614 136.364 112.49C137.614 109.366 139.761 106.684 142.532 104.783C145.303 102.882 148.574 101.847 151.932 101.809C155.29 101.771 158.583 102.732 161.396 104.57C164.209 106.408 166.415 109.041 167.735 112.136C169.055 115.231 169.43 118.649 168.812 121.957C168.195 125.265 166.612 128.316 164.265 130.723C161.917 133.129 158.91 134.784 155.624 135.479C151.218 136.404 146.625 135.539 142.854 133.075C139.083 130.61 136.441 126.747 135.508 122.332Z" fill="#36BA5B"/>
<path d="M154.311 127.052C153.596 127.241 152.86 127.337 152.121 127.337C151.064 127.338 150.015 127.139 149.031 126.752L152.121 118.825L154.311 127.052Z" fill="#EA5C52"/>
<path d="M160.614 118.825C160.613 120.7 159.995 122.523 158.856 124.011C157.716 125.498 156.118 126.567 154.311 127.052L152.121 118.825L149.031 126.752C147.592 126.188 146.333 125.241 145.391 124.014C144.449 122.787 143.859 121.325 143.684 119.786C143.51 118.248 143.757 116.69 144.4 115.282C145.043 113.874 146.057 112.668 147.333 111.795C148.609 110.922 150.099 110.414 151.641 110.326C153.184 110.239 154.721 110.575 156.087 111.298C157.454 112.021 158.597 113.104 159.395 114.43C160.192 115.757 160.614 117.276 160.614 118.825Z" fill="#FCDB7A"/>
<path d="M160.614 118.825C160.614 120.7 159.996 122.523 158.856 124.011C157.716 125.498 156.119 126.567 154.311 127.052L152.122 118.825H160.614Z" fill="#36BA5B"/>
<path d="M202.635 151.346L202.126 151.303C201.627 151.229 201.158 151.014 200.775 150.684C200.393 150.353 200.112 149.92 199.965 149.436C199.584 148.107 199.054 146.826 198.385 145.617C198.148 145.17 198.042 144.665 198.079 144.16C198.117 143.656 198.296 143.172 198.597 142.766L198.928 142.374C199.23 142.002 199.386 141.533 199.365 141.054C199.345 140.575 199.15 140.121 198.818 139.776L196.962 137.917C196.619 137.583 196.165 137.387 195.687 137.367C195.209 137.346 194.741 137.503 194.37 137.806L193.977 138.135C193.572 138.438 193.089 138.618 192.586 138.655C192.082 138.693 191.578 138.586 191.133 138.348C189.925 137.679 188.647 137.148 187.322 136.764C186.839 136.617 186.408 136.335 186.078 135.952C185.749 135.569 185.534 135.1 185.46 134.6L185.419 134.088C185.37 133.611 185.149 133.169 184.796 132.845C184.444 132.521 183.986 132.337 183.508 132.33H180.881C180.403 132.337 179.945 132.521 179.593 132.845C179.24 133.169 179.019 133.611 178.971 134.088L178.929 134.6C178.855 135.1 178.64 135.569 178.31 135.952C177.981 136.335 177.549 136.617 177.066 136.764C175.741 137.147 174.463 137.678 173.256 138.348C172.811 138.586 172.307 138.693 171.803 138.655C171.3 138.618 170.817 138.437 170.412 138.135L170.021 137.806C169.651 137.502 169.182 137.346 168.704 137.366C168.226 137.386 167.772 137.582 167.429 137.917L165.571 139.776C165.239 140.121 165.044 140.575 165.024 141.054C165.003 141.533 165.159 142.003 165.461 142.374L165.792 142.766C166.093 143.172 166.272 143.656 166.31 144.16C166.347 144.665 166.241 145.17 166.004 145.617C165.335 146.826 164.805 148.107 164.424 149.436C164.277 149.92 163.996 150.353 163.613 150.684C163.231 151.014 162.762 151.229 162.263 151.303L161.754 151.346C161.279 151.394 160.837 151.616 160.514 151.968C160.19 152.321 160.007 152.78 160 153.259V155.892C160.007 156.371 160.19 156.83 160.514 157.184C160.837 157.537 161.278 157.758 161.754 157.807L162.263 157.851C162.762 157.925 163.231 158.139 163.613 158.47C163.996 158.8 164.277 159.233 164.424 159.717C164.805 161.046 165.335 162.327 166.004 163.536C166.242 163.983 166.348 164.488 166.311 164.993C166.273 165.498 166.093 165.981 165.792 166.387L165.463 166.779C165.16 167.15 165.004 167.62 165.024 168.099C165.044 168.578 165.239 169.032 165.571 169.377L167.429 171.237C167.773 171.571 168.226 171.766 168.704 171.787C169.182 171.807 169.65 171.651 170.021 171.347L170.412 171.018C170.817 170.716 171.3 170.535 171.803 170.498C172.307 170.46 172.811 170.567 173.256 170.806C174.463 171.474 175.741 172.005 177.066 172.389C177.549 172.536 177.981 172.818 178.31 173.201C178.64 173.584 178.855 174.053 178.929 174.553L178.971 175.063C179.019 175.54 179.24 175.983 179.592 176.307C179.944 176.632 180.403 176.816 180.881 176.823H183.508C183.986 176.816 184.445 176.632 184.797 176.307C185.149 175.983 185.371 175.54 185.419 175.063L185.462 174.553C185.536 174.053 185.75 173.584 186.079 173.201C186.408 172.818 186.839 172.536 187.322 172.389C188.647 172.006 189.926 171.475 191.133 170.806C191.578 170.567 192.082 170.46 192.585 170.498C193.089 170.535 193.572 170.714 193.977 171.016L194.368 171.347C194.739 171.651 195.207 171.807 195.685 171.787C196.163 171.766 196.616 171.571 196.96 171.237L198.818 169.377C199.15 169.032 199.345 168.578 199.365 168.099C199.386 167.62 199.23 167.151 198.928 166.779L198.597 166.387C198.296 165.981 198.117 165.497 198.079 164.993C198.042 164.488 198.148 163.983 198.385 163.536C199.054 162.327 199.584 161.046 199.965 159.717C200.111 159.233 200.392 158.8 200.775 158.469C201.158 158.139 201.627 157.924 202.126 157.851L202.635 157.807C203.111 157.759 203.552 157.537 203.876 157.184C204.199 156.831 204.382 156.371 204.389 155.892V153.262C204.382 152.783 204.199 152.323 203.875 151.97C203.552 151.617 203.111 151.395 202.635 151.346ZM182.194 165.226C180.093 165.226 178.038 164.601 176.291 163.431C174.543 162.26 173.182 160.597 172.377 158.651C171.573 156.705 171.363 154.563 171.773 152.497C172.183 150.431 173.195 148.534 174.681 147.044C176.167 145.555 178.061 144.54 180.122 144.13C182.183 143.719 184.32 143.93 186.261 144.736C188.203 145.542 189.862 146.907 191.03 148.659C192.197 150.41 192.821 152.469 192.821 154.576C192.817 157.399 191.697 160.106 189.705 162.103C187.712 164.1 185.011 165.223 182.194 165.226Z" fill="#D1DCF8"/>
<path d="M185.655 156.292C185.767 156.404 185.856 156.538 185.917 156.685C185.978 156.832 186.009 156.989 186.009 157.148C186.009 157.307 185.978 157.465 185.917 157.612C185.856 157.759 185.767 157.892 185.655 158.004C185.428 158.232 185.121 158.359 184.801 158.359C184.48 158.359 184.173 158.231 183.946 158.004L178.272 152.316C178.045 152.089 177.918 151.781 177.918 151.46C177.918 151.139 178.045 150.831 178.272 150.604C178.498 150.377 178.806 150.249 179.126 150.249C179.447 150.249 179.754 150.377 179.98 150.604L185.655 156.292Z" fill="#EA5C52"/>
<path d="M183.947 150.604C184.173 150.377 184.481 150.249 184.801 150.25C185.122 150.25 185.429 150.377 185.656 150.604C185.768 150.717 185.857 150.85 185.917 150.997C185.978 151.144 186.009 151.302 186.009 151.461C186.009 151.62 185.978 151.777 185.917 151.924C185.856 152.071 185.767 152.204 185.655 152.317L179.98 158.005C179.754 158.232 179.447 158.359 179.126 158.359C178.806 158.359 178.499 158.232 178.272 158.005C178.16 157.892 178.071 157.759 178.01 157.612C177.949 157.465 177.918 157.307 177.918 157.148C177.918 156.989 177.949 156.832 178.01 156.685C178.071 156.538 178.16 156.404 178.272 156.292L183.947 150.604Z" fill="#EA5C52"/>
<path d="M159.962 193.87C159.962 197.344 158.934 200.74 157.008 203.629C155.083 206.518 152.345 208.769 149.143 210.099C145.94 211.429 142.416 211.776 139.017 211.099C135.617 210.421 132.494 208.748 130.043 206.291C127.592 203.834 125.923 200.704 125.246 197.297C124.57 193.889 124.917 190.357 126.244 187.147C127.57 183.938 129.817 181.194 132.699 179.264C135.581 177.334 138.97 176.303 142.436 176.303C147.084 176.304 151.542 178.154 154.829 181.449C158.116 184.743 159.962 189.211 159.962 193.87Z" fill="#D1DCF8"/>
<path d="M177.067 191.828C177.061 191.435 176.911 191.057 176.645 190.767C176.379 190.477 176.016 190.295 175.626 190.256L174.074 190.125C173.67 190.072 173.291 189.893 172.993 189.614C172.695 189.334 172.492 188.968 172.413 188.566C172.111 186.824 171.655 185.113 171.049 183.452C170.918 183.065 170.912 182.647 171.03 182.256C171.149 181.865 171.387 181.522 171.71 181.274L172.986 180.381C173.304 180.15 173.527 179.81 173.613 179.426C173.698 179.041 173.639 178.639 173.448 178.295L171.414 174.757C171.212 174.419 170.894 174.167 170.519 174.05C170.144 173.932 169.739 173.957 169.381 174.119L167.968 174.785C167.592 174.942 167.175 174.977 166.777 174.884C166.38 174.791 166.021 174.576 165.753 174.268C164.616 172.917 163.366 171.666 162.017 170.528C161.711 170.258 161.496 169.899 161.404 169.5C161.312 169.101 161.348 168.684 161.505 168.307L162.169 166.89C162.33 166.531 162.354 166.124 162.236 165.748C162.119 165.372 161.867 165.052 161.529 164.85L158 162.81C157.656 162.619 157.255 162.561 156.872 162.647C156.489 162.733 156.15 162.957 155.921 163.277L155.031 164.556C154.784 164.881 154.441 165.12 154.051 165.239C153.661 165.358 153.243 165.351 152.858 165.219C151.2 164.615 149.492 164.158 147.755 163.851C147.355 163.771 146.99 163.568 146.711 163.269C146.432 162.971 146.253 162.592 146.2 162.186L146.07 160.632C146.03 160.239 145.848 159.874 145.558 159.607C145.268 159.34 144.891 159.189 144.497 159.183H140.426C140.033 159.19 139.656 159.341 139.366 159.608C139.077 159.875 138.896 160.239 138.857 160.632L138.723 162.186C138.671 162.592 138.493 162.971 138.215 163.27C137.937 163.568 137.571 163.772 137.171 163.851C135.434 164.157 133.726 164.614 132.069 165.219C131.682 165.351 131.264 165.359 130.873 165.24C130.483 165.121 130.139 164.882 129.892 164.556L129.002 163.277C128.772 162.957 128.433 162.733 128.049 162.647C127.665 162.56 127.263 162.618 126.92 162.81L123.397 164.85C123.059 165.053 122.808 165.372 122.69 165.748C122.572 166.124 122.596 166.531 122.757 166.89L123.422 168.311C123.577 168.689 123.612 169.106 123.519 169.504C123.426 169.902 123.212 170.261 122.906 170.531C121.556 171.667 120.307 172.918 119.174 174.271C118.904 174.578 118.546 174.792 118.149 174.885C117.751 174.978 117.335 174.944 116.958 174.788L115.545 174.123C115.186 173.961 114.78 173.936 114.405 174.054C114.029 174.171 113.709 174.422 113.506 174.76L111.47 178.295C111.28 178.639 111.222 179.042 111.308 179.427C111.393 179.811 111.617 180.151 111.937 180.381L113.216 181.274C113.539 181.522 113.777 181.866 113.894 182.257C114.012 182.648 114.005 183.066 113.873 183.452C113.271 185.114 112.815 186.825 112.51 188.566C112.431 188.967 112.228 189.333 111.931 189.613C111.633 189.892 111.256 190.072 110.852 190.125L109.297 190.256C108.906 190.295 108.542 190.476 108.276 190.766C108.009 191.056 107.859 191.434 107.852 191.828V195.912C107.858 196.307 108.009 196.685 108.276 196.976C108.542 197.266 108.906 197.449 109.297 197.488L110.848 197.619C111.253 197.673 111.63 197.852 111.928 198.132C112.226 198.411 112.429 198.777 112.51 199.178C112.815 200.918 113.271 202.628 113.873 204.289C114.005 204.676 114.012 205.094 113.894 205.485C113.777 205.877 113.539 206.221 113.216 206.47L111.937 207.363C111.617 207.592 111.393 207.931 111.307 208.315C111.221 208.699 111.279 209.102 111.47 209.446L113.506 212.98C113.708 213.319 114.028 213.571 114.403 213.69C114.779 213.808 115.185 213.784 115.545 213.621L116.958 212.959C117.335 212.802 117.752 212.767 118.149 212.86C118.547 212.953 118.905 213.168 119.174 213.476C120.306 214.829 121.555 216.079 122.906 217.213C123.212 217.483 123.427 217.842 123.519 218.24C123.612 218.639 123.578 219.056 123.422 219.434L122.757 220.85C122.596 221.21 122.573 221.617 122.69 221.993C122.808 222.37 123.059 222.69 123.397 222.894L126.92 224.93C127.263 225.123 127.665 225.183 128.049 225.097C128.433 225.012 128.772 224.787 129.002 224.467L129.888 223.188C130.137 222.862 130.481 222.623 130.872 222.504C131.263 222.386 131.682 222.393 132.069 222.526C133.726 223.131 135.433 223.589 137.171 223.893C137.571 223.973 137.936 224.176 138.215 224.475C138.493 224.774 138.671 225.152 138.723 225.558L138.857 227.109C138.896 227.501 139.077 227.865 139.366 228.132C139.656 228.399 140.033 228.551 140.426 228.557H144.497C144.891 228.551 145.268 228.4 145.558 228.133C145.848 227.866 146.03 227.501 146.07 227.109L146.2 225.558C146.254 225.152 146.432 224.774 146.711 224.475C146.99 224.177 147.355 223.973 147.755 223.893C149.493 223.588 151.2 223.13 152.858 222.526C153.243 222.393 153.661 222.386 154.051 222.505C154.441 222.624 154.784 222.863 155.031 223.188L155.918 224.467C156.148 224.787 156.487 225.011 156.871 225.097C157.255 225.182 157.657 225.123 158 224.93L161.529 222.89C161.867 222.688 162.118 222.368 162.236 221.992C162.354 221.616 162.33 221.21 162.169 220.85L161.505 219.437C161.348 219.06 161.312 218.642 161.404 218.244C161.496 217.845 161.711 217.486 162.017 217.216C163.369 216.08 164.62 214.829 165.756 213.476C166.025 213.168 166.383 212.952 166.781 212.86C167.178 212.767 167.595 212.802 167.972 212.959L169.381 213.621C169.74 213.784 170.145 213.808 170.52 213.69C170.895 213.572 171.213 213.319 171.414 212.98L173.448 209.446C173.64 209.102 173.698 208.7 173.613 208.316C173.528 207.932 173.305 207.593 172.986 207.363L171.71 206.47C171.387 206.222 171.149 205.877 171.03 205.486C170.912 205.095 170.918 204.676 171.049 204.289C171.654 202.629 172.112 200.918 172.417 199.178C172.496 198.777 172.698 198.411 172.996 198.131C173.293 197.852 173.67 197.673 174.074 197.619L175.629 197.488C176.02 197.448 176.383 197.265 176.649 196.975C176.914 196.684 177.065 196.306 177.071 195.912L177.067 191.828ZM168.678 195.661C168.676 196.627 168.604 197.592 168.463 198.547C168.199 200.024 167.808 201.476 167.296 202.886C166.941 203.783 166.522 204.653 166.042 205.49L164.318 208.478C163.836 209.315 163.292 210.114 162.692 210.869C161.702 212.058 160.608 213.155 159.423 214.149C158.668 214.75 157.869 215.294 157.035 215.778L154.034 217.517C153.2 218 152.331 218.421 151.434 218.775C150.041 219.28 148.608 219.666 147.151 219.93C146.197 220.072 145.235 220.144 144.271 220.145H140.652C139.688 220.144 138.726 220.072 137.772 219.93C136.318 219.668 134.889 219.283 133.5 218.778C132.603 218.424 131.734 218.004 130.899 217.521L127.885 215.778C127.052 215.294 126.255 214.751 125.5 214.153C124.32 213.16 123.23 212.066 122.241 210.883C121.641 210.127 121.097 209.327 120.616 208.489L118.87 205.468C118.391 204.63 117.971 203.759 117.615 202.861C117.112 201.467 116.726 200.032 116.464 198.572C116.321 197.616 116.249 196.65 116.248 195.682L116.245 192.08C116.246 191.114 116.318 190.149 116.46 189.193C116.722 187.728 117.108 186.289 117.615 184.89C117.968 183.99 118.388 183.117 118.87 182.28L120.602 179.262C121.086 178.426 121.629 177.626 122.227 176.868C123.22 175.683 124.316 174.588 125.5 173.595C126.253 172.994 127.051 172.449 127.885 171.966L130.895 170.223C131.731 169.742 132.6 169.321 133.496 168.966C134.896 168.459 136.336 168.073 137.8 167.811C138.753 167.668 139.714 167.596 140.677 167.595H144.246C145.211 167.596 146.175 167.668 147.13 167.811C148.595 168.074 150.034 168.462 151.434 168.969C152.33 169.324 153.199 169.744 154.034 170.227L157.035 171.962C157.87 172.447 158.668 172.992 159.423 173.595C160.605 174.589 161.699 175.684 162.692 176.868C163.291 177.624 163.834 178.423 164.318 179.258L166.046 182.262C166.527 183.101 166.947 183.973 167.304 184.872C167.812 186.278 168.2 187.725 168.463 189.197C168.604 190.153 168.676 191.117 168.678 192.083V195.661Z" fill="#FCDB7A"/>
<path d="M142.546 165.948H142.462C135.073 165.948 127.986 168.89 122.762 174.127C117.537 179.364 114.602 186.466 114.602 193.872C114.602 201.278 117.537 208.38 122.762 213.617C127.986 218.854 135.073 221.796 142.462 221.796H142.546C149.92 221.773 156.985 218.822 162.191 213.587C167.398 208.353 170.322 201.263 170.322 193.872C170.322 186.481 167.398 179.391 162.191 174.157C156.985 168.923 149.92 165.971 142.546 165.948ZM168.463 198.547C168.198 200.024 167.808 201.476 167.296 202.886C166.941 203.783 166.522 204.653 166.042 205.49L164.318 208.478C163.836 209.315 163.292 210.114 162.692 210.869C161.702 212.058 160.608 213.155 159.423 214.149C158.668 214.75 157.869 215.294 157.035 215.778L154.034 217.517C153.2 218 152.331 218.421 151.434 218.775C150.041 219.28 148.608 219.666 147.151 219.93C146.197 220.072 145.235 220.144 144.271 220.145H140.652C139.688 220.144 138.726 220.072 137.772 219.93C136.318 219.668 134.889 219.283 133.5 218.778C132.603 218.424 131.733 218.004 130.898 217.521L127.885 215.778C127.052 215.294 126.255 214.751 125.499 214.153C124.32 213.16 123.23 212.066 122.241 210.883C121.641 210.127 121.097 209.327 120.615 208.489L118.87 205.468C118.391 204.63 117.971 203.759 117.615 202.861C117.111 201.467 116.726 200.032 116.464 198.572C116.321 197.616 116.249 196.65 116.248 195.682L116.245 192.08C116.246 191.114 116.318 190.149 116.46 189.193C116.722 187.728 117.108 186.289 117.615 184.89C117.968 183.99 118.388 183.117 118.87 182.279L120.602 179.262C121.086 178.426 121.629 177.626 122.227 176.868C123.22 175.683 124.315 174.588 125.499 173.595C126.253 172.994 127.051 172.449 127.885 171.966L130.895 170.223C131.731 169.742 132.6 169.321 133.496 168.966C134.895 168.459 136.335 168.073 137.8 167.811C138.752 167.668 139.714 167.596 140.677 167.595H144.246C145.211 167.596 146.175 167.668 147.13 167.811C148.594 168.074 150.034 168.462 151.434 168.969C152.33 169.324 153.199 169.744 154.034 170.227L157.035 171.962C157.87 172.447 158.668 172.992 159.423 173.595C160.605 174.589 161.699 175.684 162.692 176.868C163.291 177.624 163.834 178.423 164.318 179.258L166.046 182.262C166.527 183.101 166.947 183.973 167.304 184.872C167.812 186.278 168.2 187.725 168.463 189.197C168.604 190.153 168.675 191.117 168.678 192.083V195.661C168.676 196.627 168.604 197.592 168.463 198.547Z" fill="#FCDB7A"/>
<path d="M137.119 190.805H129.344V200.056H137.119V190.805Z" fill="#36BA5B"/>
<path d="M155.396 187.683H147.621V200.056H155.396V187.683Z" fill="#36BA5B"/>
<path d="M146.325 194.269H138.55V200.057H146.325V194.269Z" fill="#36BA5B"/>
<path d="M137.119 197.684H129.344V200.056H137.119V197.684Z" fill="#EA5C52"/>
<path d="M146.325 198.871H138.55V200.057H146.325V198.871Z" fill="#EA5C52"/>
<path d="M155.396 194.269H147.621V200.057H155.396V194.269Z" fill="#EA5C52"/>
<path d="M187.502 241.08C193.148 241.08 197.725 236.492 197.725 230.833C197.725 225.174 193.148 220.586 187.502 220.586C181.856 220.586 177.278 225.174 177.278 230.833C177.278 236.492 181.856 241.08 187.502 241.08Z" fill="#D1DCF8"/>
<path d="M213.414 226.234L211.874 221.267C211.786 220.998 211.602 220.77 211.358 220.628C211.113 220.486 210.825 220.439 210.549 220.495L207.922 221.072C207.628 221.123 207.326 221.084 207.054 220.962C206.782 220.84 206.553 220.64 206.395 220.387C205.21 218.378 203.71 216.572 201.954 215.039C201.734 214.837 201.579 214.575 201.508 214.285C201.437 213.994 201.453 213.69 201.556 213.409L202.604 210.924C202.709 210.661 202.714 210.369 202.619 210.102C202.523 209.836 202.334 209.613 202.086 209.477L197.493 207.054C197.24 206.927 196.95 206.897 196.677 206.969C196.404 207.041 196.167 207.211 196.01 207.446L194.561 209.72C194.388 209.963 194.147 210.149 193.869 210.255C193.59 210.361 193.286 210.381 192.996 210.314C190.74 209.733 188.406 209.519 186.083 209.678C185.786 209.691 185.491 209.615 185.237 209.461C184.983 209.306 184.78 209.079 184.655 208.809L183.638 206.314C183.528 206.053 183.327 205.842 183.072 205.721C182.817 205.599 182.526 205.576 182.256 205.656L177.295 207.201C177.027 207.289 176.8 207.473 176.657 207.718C176.515 207.963 176.468 208.252 176.525 208.529L177.105 211.16C177.153 211.455 177.114 211.757 176.991 212.029C176.869 212.301 176.669 212.53 176.416 212.689C174.412 213.879 172.61 215.381 171.078 217.14C170.877 217.361 170.616 217.517 170.327 217.588C170.038 217.659 169.734 217.642 169.455 217.539L166.979 216.487C166.716 216.383 166.424 216.378 166.158 216.474C165.891 216.57 165.669 216.759 165.532 217.007L163.118 221.614C162.99 221.866 162.959 222.157 163.032 222.432C163.104 222.706 163.274 222.944 163.51 223.1L165.775 224.553C166.018 224.726 166.204 224.967 166.31 225.246C166.416 225.525 166.438 225.829 166.372 226.12C165.789 228.381 165.574 230.721 165.734 233.051C165.747 233.349 165.671 233.644 165.517 233.898C165.362 234.153 165.136 234.356 164.867 234.482L162.377 235.498C162.116 235.608 161.905 235.811 161.784 236.067C161.663 236.323 161.64 236.615 161.721 236.887L163.261 241.854C163.349 242.124 163.532 242.352 163.777 242.495C164.021 242.638 164.31 242.685 164.587 242.629L167.213 242.049C167.506 242 167.807 242.039 168.078 242.162C168.349 242.284 168.579 242.484 168.737 242.736C169.923 244.746 171.424 246.552 173.182 248.086C173.401 248.288 173.555 248.55 173.625 248.84C173.695 249.13 173.678 249.434 173.576 249.714L172.531 252.197C172.425 252.46 172.419 252.752 172.514 253.019C172.61 253.286 172.8 253.508 173.048 253.644L177.642 256.068C177.895 256.195 178.186 256.225 178.46 256.152C178.734 256.079 178.971 255.907 179.127 255.67L180.574 253.401C180.747 253.159 180.987 252.974 181.264 252.867C181.542 252.761 181.844 252.739 182.134 252.804C184.391 253.386 186.726 253.602 189.051 253.443C189.349 253.431 189.644 253.507 189.899 253.662C190.154 253.818 190.358 254.045 190.484 254.315L191.494 256.808C191.604 257.069 191.806 257.281 192.061 257.402C192.317 257.523 192.608 257.546 192.879 257.465L197.839 255.92C198.107 255.832 198.333 255.648 198.475 255.403C198.616 255.159 198.663 254.87 198.605 254.593L198.034 251.963C197.984 251.669 198.023 251.366 198.145 251.094C198.266 250.821 198.466 250.591 198.718 250.432C200.723 249.244 202.524 247.74 204.053 245.977C204.255 245.759 204.518 245.605 204.807 245.535C205.096 245.465 205.4 245.481 205.68 245.582L208.158 246.629C208.42 246.736 208.712 246.742 208.978 246.646C209.245 246.551 209.467 246.36 209.601 246.11L212.017 241.508C212.144 241.254 212.174 240.964 212.102 240.69C212.029 240.416 211.859 240.178 211.624 240.021L209.356 238.569C209.113 238.397 208.928 238.156 208.822 237.877C208.717 237.598 208.697 237.294 208.764 237.004C209.342 234.742 209.556 232.402 209.397 230.072C209.385 229.774 209.461 229.478 209.616 229.223C209.771 228.968 209.998 228.765 210.268 228.639L212.759 227.626C213.019 227.514 213.229 227.311 213.35 227.055C213.47 226.798 213.493 226.507 213.414 226.234ZM171.583 236.539C170.601 233.37 170.579 229.981 171.518 226.8C172.458 223.618 174.318 220.788 176.863 218.666C179.407 216.544 182.523 215.226 185.815 214.878C189.107 214.531 192.428 215.17 195.358 216.714C198.288 218.258 200.695 220.638 202.275 223.554C203.856 226.469 204.538 229.789 204.236 233.093C203.934 236.397 202.661 239.537 200.578 242.116C198.496 244.695 195.697 246.598 192.536 247.582C188.296 248.898 183.709 248.473 179.781 246.403C175.853 244.333 172.905 240.785 171.583 236.539Z" fill="#EA5C52"/>
<path d="M193.558 227.981C193.352 227.774 193.073 227.658 192.781 227.658C192.49 227.659 192.211 227.775 192.005 227.981L186.669 233.328L183.129 229.781C183.027 229.678 182.906 229.597 182.773 229.541C182.64 229.486 182.497 229.457 182.352 229.457C182.208 229.457 182.065 229.486 181.932 229.541C181.798 229.596 181.677 229.677 181.575 229.78C181.473 229.882 181.392 230.003 181.337 230.137C181.282 230.271 181.253 230.414 181.253 230.559C181.253 230.703 181.282 230.847 181.337 230.98C181.393 231.114 181.474 231.235 181.576 231.337L185.863 235.635C186.082 235.84 186.37 235.954 186.669 235.954C186.969 235.954 187.257 235.84 187.475 235.635L193.558 229.538C193.66 229.436 193.741 229.314 193.796 229.181C193.851 229.047 193.88 228.904 193.88 228.759C193.88 228.615 193.851 228.472 193.796 228.338C193.741 228.204 193.66 228.083 193.558 227.981Z" fill="#36BA5B"/>
<path d="M168.31 278.877H146.894V306.911H168.31V278.877Z" fill="#36BA5B"/>
<path d="M200.856 296.137C200.933 295.661 200.832 295.172 200.572 294.765C200.313 294.358 199.913 294.061 199.449 293.931L197.605 293.449C197.129 293.297 196.711 293 196.411 292.6C196.111 292.199 195.943 291.714 195.93 291.214C195.932 289.048 195.741 286.887 195.361 284.755C195.285 284.261 195.366 283.756 195.591 283.31C195.816 282.864 196.175 282.499 196.617 282.268L198.348 281.461C198.781 281.25 199.121 280.887 199.305 280.441C199.489 279.996 199.503 279.498 199.345 279.042L197.635 274.343C197.461 273.894 197.129 273.524 196.702 273.303C196.274 273.081 195.781 273.025 195.314 273.143L193.469 273.648C192.981 273.758 192.471 273.712 192.011 273.516C191.551 273.319 191.164 272.984 190.904 272.555C189.819 270.686 188.576 268.912 187.19 267.254C186.877 266.864 186.694 266.385 186.667 265.884C186.64 265.384 186.77 264.888 187.039 264.466L188.135 262.897C188.405 262.497 188.52 262.012 188.457 261.534C188.394 261.055 188.157 260.617 187.793 260.301L183.968 257.093C183.594 256.79 183.121 256.635 182.64 256.658C182.159 256.68 181.703 256.879 181.358 257.217L180.019 258.572C179.652 258.912 179.187 259.127 178.691 259.188C178.195 259.249 177.692 259.152 177.254 258.912C175.381 257.832 173.418 256.919 171.386 256.182C170.92 256.001 170.523 255.678 170.25 255.259C169.977 254.84 169.842 254.346 169.865 253.846L170.031 251.942C170.066 251.46 169.924 250.982 169.631 250.599C169.338 250.215 168.915 249.953 168.442 249.862L163.527 249C163.051 248.925 162.564 249.028 162.159 249.289C161.754 249.55 161.459 249.951 161.329 250.416L160.844 252.264C160.695 252.743 160.4 253.162 160.001 253.463C159.601 253.765 159.117 253.933 158.617 253.943C156.457 253.946 154.301 254.136 152.174 254.513C151.68 254.592 151.174 254.512 150.728 254.286C150.282 254.06 149.918 253.699 149.688 253.254L148.886 251.524C148.677 251.089 148.315 250.747 147.871 250.562C147.426 250.377 146.929 250.362 146.474 250.52L141.79 252.235C141.34 252.408 140.969 252.74 140.749 253.169C140.528 253.598 140.472 254.094 140.593 254.561L141.091 256.415C141.199 256.903 141.153 257.414 140.958 257.874C140.764 258.335 140.431 258.724 140.005 258.986C138.137 260.071 136.366 261.316 134.712 262.708C134.322 263.02 133.846 263.203 133.348 263.231C132.85 263.259 132.356 263.131 131.934 262.864L130.366 261.76C129.967 261.489 129.483 261.373 129.006 261.436C128.528 261.498 128.09 261.734 127.775 262.099L124.575 265.933C124.273 266.308 124.118 266.782 124.14 267.264C124.163 267.746 124.362 268.203 124.699 268.548L126.05 269.895C126.387 270.263 126.601 270.728 126.662 271.224C126.723 271.721 126.627 272.223 126.388 272.662C125.311 274.539 124.4 276.507 123.666 278.543C123.486 279.011 123.164 279.41 122.746 279.685C122.327 279.96 121.833 280.097 121.333 280.076L119.431 279.902C118.951 279.867 118.474 280.01 118.092 280.305C117.71 280.599 117.45 281.024 117.36 281.498L116.501 286.42C116.425 286.897 116.527 287.385 116.786 287.791C117.045 288.198 117.445 288.495 117.908 288.627L119.752 289.113C120.229 289.262 120.647 289.558 120.948 289.959C121.248 290.359 121.416 290.844 121.427 291.344C121.431 293.509 121.623 295.669 122.001 297.8C122.077 298.295 121.997 298.801 121.771 299.247C121.546 299.694 121.187 300.059 120.745 300.291L119.018 301.098C118.584 301.307 118.242 301.669 118.058 302.114C117.873 302.56 117.859 303.058 118.017 303.513L119.727 308.207C119.899 308.659 120.231 309.031 120.659 309.253C121.087 309.475 121.582 309.531 122.048 309.411L123.894 308.911C124.381 308.801 124.891 308.848 125.351 309.044C125.811 309.24 126.198 309.575 126.457 310.003C127.541 311.874 128.785 313.647 130.177 315.301C130.488 315.693 130.67 316.171 130.697 316.671C130.724 317.171 130.595 317.666 130.327 318.089L129.232 319.658C128.96 320.058 128.844 320.543 128.906 321.023C128.968 321.502 129.204 321.942 129.568 322.259L133.395 325.462C133.768 325.766 134.241 325.922 134.722 325.9C135.203 325.878 135.659 325.679 136.003 325.342L137.342 323.986C137.71 323.646 138.174 323.431 138.671 323.37C139.167 323.31 139.67 323.407 140.108 323.648C141.98 324.729 143.944 325.642 145.976 326.377C146.442 326.558 146.839 326.881 147.113 327.3C147.386 327.719 147.522 328.214 147.501 328.714L147.332 330.613C147.296 331.095 147.438 331.573 147.731 331.956C148.024 332.339 148.447 332.602 148.92 332.693L153.835 333.554C154.311 333.629 154.798 333.527 155.203 333.266C155.609 333.005 155.904 332.603 156.033 332.138L156.522 330.296C156.672 329.819 156.966 329.4 157.364 329.099C157.763 328.798 158.245 328.628 158.744 328.615C160.904 328.616 163.061 328.425 165.188 328.045C165.682 327.968 166.188 328.047 166.634 328.273C167.08 328.499 167.444 328.86 167.674 329.305L168.475 331.036C168.684 331.47 169.046 331.813 169.491 331.997C169.936 332.181 170.434 332.195 170.888 332.035L175.573 330.32C176.022 330.147 176.393 329.815 176.614 329.386C176.836 328.957 176.892 328.462 176.774 327.994L176.274 326.149C176.163 325.661 176.209 325.15 176.404 324.689C176.599 324.227 176.933 323.839 177.36 323.579C179.229 322.495 181.001 321.249 182.653 319.856C183.042 319.542 183.52 319.358 184.019 319.33C184.518 319.302 185.013 319.432 185.435 319.702L186.997 320.799C187.396 321.07 187.88 321.185 188.357 321.122C188.835 321.059 189.273 320.822 189.587 320.456L192.786 316.622C193.089 316.248 193.244 315.775 193.223 315.294C193.201 314.813 193.003 314.356 192.667 314.011L191.312 312.664C190.974 312.295 190.761 311.829 190.7 311.332C190.64 310.836 190.735 310.332 190.974 309.892C192.053 308.018 192.966 306.051 193.7 304.016C193.881 303.549 194.203 303.151 194.621 302.877C195.04 302.602 195.533 302.466 196.032 302.487L197.93 302.657C198.411 302.692 198.887 302.549 199.269 302.254C199.651 301.96 199.912 301.535 200.002 301.06L200.856 296.137ZM154.346 315.65C149.534 314.807 145.079 312.552 141.545 309.171C138.012 305.791 135.557 301.435 134.493 296.656C133.429 291.878 133.803 286.89 135.567 282.324C137.331 277.758 140.406 273.818 144.404 271.004C148.401 268.19 153.142 266.627 158.026 266.513C162.91 266.399 167.718 267.739 171.842 270.364C175.966 272.989 179.22 276.781 181.194 281.26C183.168 285.739 183.773 290.704 182.932 295.527C182.373 298.73 181.191 301.79 179.452 304.535C177.713 307.28 175.451 309.654 172.797 311.523C170.143 313.391 167.147 314.718 163.981 315.426C160.815 316.134 157.541 316.21 154.346 315.65Z" fill="#36BA5B"/>
<path d="M167.171 280.45H148.156V305.8H167.171V280.45Z" fill="#D1DCF8"/>
<path d="M164.633 284.475H150.694V285.307H164.633V284.475Z" fill="#ADE1FF"/>
<path d="M164.633 288.175H150.694V289.008H164.633V288.175Z" fill="#ADE1FF"/>
<path d="M164.633 291.876H150.694V292.709H164.633V291.876Z" fill="#ADE1FF"/>
<path d="M164.633 295.577H150.694V296.41H164.633V295.577Z" fill="#ADE1FF"/>
<path d="M164.633 299.278H150.694V300.111H164.633V299.278Z" fill="#ADE1FF"/>
<path d="M160.848 301.683L162.614 303.453L164.748 301.313" stroke="#36BA5B" stroke-miterlimit="10"/>
<path d="M162.704 280.481C162.704 280.368 162.659 280.26 162.579 280.18C162.499 280.1 162.391 280.055 162.279 280.055H152.925C152.812 280.055 152.704 280.1 152.625 280.18C152.545 280.26 152.5 280.368 152.5 280.481C152.5 280.594 152.545 280.702 152.625 280.782C152.704 280.862 152.812 280.907 152.925 280.907H162.279C162.391 280.907 162.499 280.862 162.579 280.782C162.659 280.702 162.704 280.594 162.704 280.481Z" fill="#36BA5B"/>
</g>
<defs>
<clipPath id="clip0_117_4242">
<rect width="130" height="296.065" fill="white" transform="translate(89 51)"/>
</clipPath>
</defs>
</svg>
