<svg width="308" height="399" viewBox="0 0 308 399" fill="none" xmlns="http://www.w3.org/2000/svg">
<path d="M53.6836 132.086C54.233 132.086 54.7293 132.514 54.9572 133.379V135.578C54.7293 136.443 54.233 136.871 53.67 136.871C53.107 136.871 52.6243 136.443 52.3828 135.578V133.379C52.6243 132.514 53.107 132.086 53.6836 132.086Z" fill="#D1DCF8"/>
<path d="M53.6836 113.967C54.233 113.967 54.7293 114.777 54.9572 116.415V120.579C54.7293 122.216 54.233 123.026 53.67 123.026C53.107 123.026 52.6243 122.216 52.3828 120.579V116.415C52.6243 114.777 53.107 113.967 53.6836 113.967Z" fill="#D1DCF8"/>
<path d="M188.435 278.478C187.885 278.478 187.389 278.05 187.161 277.184V274.985C187.389 274.12 187.885 273.692 188.448 273.692C189.011 273.692 189.494 274.12 189.735 274.985V277.184C189.494 278.05 189.011 278.478 188.435 278.478Z" fill="#D1DCF8"/>
<path d="M188.435 297.501C187.885 297.501 187.389 296.65 187.161 294.93V290.558C187.389 288.84 187.885 287.989 188.448 287.989C189.011 287.989 189.494 288.84 189.735 290.558V294.93C189.494 296.65 189.011 297.501 188.435 297.501Z" fill="#D1DCF8"/>
<path d="M33.1085 99H243.85C247.327 99 250.661 100.381 253.119 102.84C255.578 105.299 256.959 108.634 256.959 112.111V286.172C256.959 289.649 255.578 292.984 253.119 295.443C250.661 297.901 247.327 299.283 243.85 299.283H33.1085C29.6319 299.283 26.2977 297.901 23.8394 295.443C21.3811 292.984 20 289.649 20 286.172V112.111C20 108.634 21.3811 105.299 23.8394 102.84C26.2977 100.381 29.6319 99 33.1085 99Z" fill="#E4ECF9"/>
<path d="M0 20C0 8.9543 8.95431 0 20 0H288C299.046 0 308 8.95431 308 20V399H0V20Z" fill="#F9F9FB"/>
<path d="M178.104 359.755C177.659 359.755 177.258 359.147 177.073 357.918V354.795C177.258 353.568 177.659 352.96 178.115 352.96C178.571 352.96 178.961 353.568 179.157 354.795V357.918C178.961 359.147 178.571 359.755 178.104 359.755Z" fill="#D1DCF8"/>
<path d="M184.489 368.53C184.489 368.726 184.316 368.913 183.97 369.071C183.762 369.162 183.544 369.234 183.32 369.284C182.963 369.354 182.598 369.38 182.233 369.361C180.815 369.139 179.532 368.48 178.613 367.502C177.701 366.206 178.053 365.371 178.453 365.302C178.92 365.189 179.377 365.686 180.218 366.329C180.82 366.97 181.66 367.401 182.589 367.548C182.865 367.628 183.108 367.699 183.32 367.761C183.544 367.812 183.762 367.884 183.97 367.975C184.316 368.135 184.489 368.324 184.489 368.53Z" fill="#D1DCF8"/>
<path d="M264.316 368.003C264.242 368.185 264.331 368.423 264.592 368.701C264.75 368.863 264.924 369.012 265.113 369.144C265.417 369.343 265.746 369.505 266.09 369.625C267.487 369.956 268.924 369.831 270.145 369.273C271.478 368.418 271.468 367.513 271.124 367.297C270.735 367.016 270.124 367.303 269.102 367.581C268.302 367.946 267.361 368.028 266.446 367.813C266.16 367.783 265.909 367.756 265.689 367.733C265.462 367.696 265.233 367.68 265.006 367.686C264.625 367.703 264.394 367.813 264.316 368.003Z" fill="#D1DCF8"/>
<path d="M199.881 368.53C199.881 368.922 199.193 369.277 197.801 369.44H194.264C192.873 369.277 192.185 368.922 192.185 368.52C192.185 368.118 192.873 367.773 194.264 367.6H197.801C199.193 367.773 199.881 368.118 199.881 368.53Z" fill="#D1DCF8"/>
<path d="M215.274 368.53C215.274 368.922 214.586 369.277 213.194 369.44H209.656C208.266 369.277 207.578 368.922 207.578 368.52C207.578 368.118 208.266 367.773 209.656 367.6H213.194C214.586 367.773 215.274 368.118 215.274 368.53Z" fill="#D1DCF8"/>
<path d="M230.667 368.53C230.667 368.922 229.978 369.277 228.586 369.44H225.049C223.659 369.277 222.97 368.922 222.97 368.52C222.97 368.118 223.659 367.773 225.049 367.6H228.586C229.978 367.773 230.667 368.118 230.667 368.53Z" fill="#D1DCF8"/>
<path d="M246.06 368.53C246.06 368.922 245.371 369.277 243.979 369.44H240.442C239.052 369.277 238.363 368.922 238.363 368.52C238.363 368.118 239.052 367.773 240.442 367.6H243.979C245.371 367.773 246.06 368.118 246.06 368.53Z" fill="#D1DCF8"/>
<path d="M261.452 368.53C261.452 368.922 260.764 369.277 259.372 369.44H255.835C254.444 369.277 253.756 368.922 253.756 368.52C253.756 368.118 254.444 367.773 255.835 367.6H259.372C260.764 367.773 261.452 368.118 261.452 368.53Z" fill="#D1DCF8"/>
<path d="M272.531 349.207C272.975 349.207 273.377 349.814 273.562 351.043V354.166C273.377 355.394 272.975 356.002 272.52 356.002C272.064 356.002 271.673 355.394 271.478 354.166V351.043C271.673 349.814 272.064 349.207 272.531 349.207Z" fill="#D1DCF8"/>
<path d="M273.053 360C273.497 360 273.899 360.608 274.083 361.837V364.96C273.899 366.188 273.497 366.795 273.042 366.795C272.586 366.795 272.195 366.188 272 364.96V361.837C272.195 360.608 272.586 360 273.053 360Z" fill="#D1DCF8"/>
<path d="M177.5 339.801C177.945 339.801 178.346 340.409 178.531 341.638V344.761C178.346 345.988 177.945 346.596 177.489 346.596C177.033 346.596 176.643 345.988 176.447 344.761V341.638C176.643 340.409 177.033 339.801 177.5 339.801Z" fill="#D1DCF8"/>
<path d="M272.531 335.616C272.975 335.616 273.377 336.224 273.562 337.452V340.576C273.377 341.803 272.975 342.411 272.52 342.411C272.064 342.411 271.673 341.803 271.478 340.576V337.452C271.673 336.224 272.064 335.616 272.531 335.616Z" fill="#D1DCF8"/>
<path d="M177.5 326.21C177.945 326.21 178.346 326.818 178.531 328.047V331.17C178.346 332.398 177.945 333.005 177.489 333.005C177.033 333.005 176.643 332.398 176.447 331.17V328.047C176.643 326.818 177.033 326.21 177.5 326.21Z" fill="#D1DCF8"/>
<path d="M272.531 322.025C272.975 322.025 273.377 322.633 273.562 323.862V326.985C273.377 328.213 272.975 328.82 272.52 328.82C272.064 328.82 271.673 328.213 271.478 326.985V323.862C271.673 322.633 272.064 322.025 272.531 322.025Z" fill="#D1DCF8"/>
<path d="M177.5 312.619C177.945 312.619 178.346 313.227 178.531 314.456V317.579C178.346 318.807 177.945 319.415 177.489 319.415C177.033 319.415 176.643 318.807 176.447 317.579V314.456C176.643 313.227 177.033 312.619 177.5 312.619Z" fill="#D1DCF8"/>
<path d="M272.531 308.435C272.975 308.435 273.377 309.042 273.562 310.271V313.394C273.377 314.622 272.975 315.23 272.52 315.23C272.064 315.23 271.673 314.622 271.478 313.394V310.271C271.673 309.042 272.064 308.435 272.531 308.435Z" fill="#D1DCF8"/>
<path d="M177.5 299.029C177.945 299.029 178.346 299.636 178.531 300.865V303.989C178.346 305.216 177.945 305.824 177.489 305.824C177.033 305.824 176.643 305.216 176.447 303.989V300.865C176.643 299.636 177.033 299.029 177.5 299.029Z" fill="#D1DCF8"/>
<path d="M272.531 294.844C272.975 294.844 273.377 295.452 273.562 296.681V299.804C273.377 301.031 272.975 301.639 272.52 301.639C272.064 301.639 271.673 301.031 271.478 299.804V296.681C271.673 295.452 272.064 294.844 272.531 294.844Z" fill="#D1DCF8"/>
<path d="M177.5 285.438C177.945 285.438 178.346 286.046 178.531 287.275V290.398C178.346 291.626 177.945 292.233 177.489 292.233C177.033 292.233 176.643 291.626 176.447 290.398V287.275C176.643 286.046 177.033 285.438 177.5 285.438Z" fill="#D1DCF8"/>
<path d="M272.516 280C273.156 280 273.734 280.716 274 282.162V285.839C273.734 287.284 273.156 288 272.5 288C271.844 288 271.281 287.284 271 285.839V282.162C271.281 280.716 271.844 280 272.516 280Z" fill="#D1DCF8"/>
<path d="M177.5 271.847C177.945 271.847 178.346 272.455 178.531 273.684V276.807C178.346 278.035 177.945 278.643 177.489 278.643C177.033 278.643 176.643 278.035 176.447 276.807V273.684C176.643 272.455 177.033 271.847 177.5 271.847Z" fill="#D1DCF8"/>
<path d="M272.516 265C273.156 265 273.734 265.716 274 267.162V270.839C273.734 272.285 273.156 273 272.5 273C271.844 273 271.281 272.285 271 270.839V267.162C271.281 265.716 271.844 265 272.516 265Z" fill="#D1DCF8"/>
<path d="M177.5 258.256C177.945 258.256 178.346 258.864 178.531 260.093V263.216C178.346 264.444 177.945 265.052 177.489 265.052C177.033 265.052 176.643 264.444 176.447 263.216V260.093C176.643 258.864 177.033 258.256 177.5 258.256Z" fill="#D1DCF8"/>
<path d="M272.516 254C273.156 254 273.734 254.358 274 255.081V256.92C273.734 257.642 273.156 258 272.5 258C271.844 258 271.281 257.642 271 256.92V255.081C271.281 254.358 271.844 254 272.516 254Z" fill="#D1DCF8"/>
<path d="M177.5 248.036C177.945 248.036 178.346 248.342 178.531 248.96V250.531C178.346 251.149 177.945 251.455 177.489 251.455C177.033 251.455 176.643 251.149 176.447 250.531V248.96C176.643 248.342 177.033 248.036 177.5 248.036Z" fill="#D1DCF8"/>
<path d="M251.279 233H302.721C303.326 233 303.905 233.227 304.333 233.631C304.76 234.034 305 234.582 305 235.153V273.847C305 274.418 304.76 274.966 304.333 275.369C303.905 275.773 303.326 276 302.721 276H251.279C250.674 276 250.095 275.773 249.667 275.369C249.24 274.966 249 274.418 249 273.847V235.153C249 234.582 249.24 234.034 249.667 233.631C250.095 233.227 250.674 233 251.279 233Z" fill="#F3F6FD"/>
<path d="M270 256H262V266H270V256Z" fill="#F0A667"/>
<path d="M283 242H275V266H283V242Z" fill="#C1D53E"/>
<path d="M296 250H289V266H296V250Z" fill="#EA5C52"/>
<path d="M114.088 74.7961C114.421 74.7961 114.723 75.2878 114.861 76.2823V78.8093C114.723 79.8027 114.421 80.2945 114.08 80.2945C113.738 80.2945 113.445 79.8027 113.298 78.8093V76.2823C113.445 75.2878 113.738 74.7961 114.088 74.7961Z" fill="#D1DCF8"/>
<path d="M113.79 86C114.123 86 114.424 86.4917 114.563 87.4862V90.0132C114.424 91.0066 114.123 91.4984 113.781 91.4984C113.44 91.4984 113.147 91.0066 113 90.0132V87.4862C113.147 86.4917 113.44 86 113.79 86Z" fill="#D1DCF8"/>
<path d="M113.79 94C114.123 94 114.424 94.4917 114.563 95.4862V98.0132C114.424 99.0066 114.123 99.4984 113.781 99.4984C113.44 99.4984 113.147 99.0066 113 98.0132V95.4862C113.147 94.4917 113.44 94 113.79 94Z" fill="#D1DCF8"/>
<path d="M111.176 66.3851C111.176 66.0515 111.695 65.7503 112.746 65.6121H114.861V67.7287C114.723 68.7781 114.422 69.2975 114.08 69.2975C113.738 69.2975 113.445 68.7781 113.299 67.7287V67.1747H112.746C111.695 67.0282 111.176 66.7352 111.176 66.3851Z" fill="#D1DCF8"/>
<path d="M98.8086 66.3851C98.8086 66.0515 99.3616 65.7503 100.48 65.6121H103.322C104.439 65.7503 104.992 66.0515 104.992 66.3933C104.992 66.7352 104.439 67.0282 103.322 67.1747H100.48C99.3616 67.0282 98.8086 66.7352 98.8086 66.3851Z" fill="#D1DCF8"/>
<path d="M86.4419 66.3851C86.4419 66.0515 86.9949 65.7503 88.1132 65.6121H90.9552C92.0724 65.7503 92.6254 66.0515 92.6254 66.3933C92.6254 66.7352 92.0724 67.0282 90.9552 67.1747H88.1132C86.9949 67.0282 86.4419 66.7352 86.4419 66.3851Z" fill="#D1DCF8"/>
<path d="M74.0747 66.3851C74.0747 66.0515 74.6277 65.7503 75.746 65.6121H78.588C79.7051 65.7503 80.2582 66.0515 80.2582 66.3933C80.2582 66.7352 79.7051 67.0282 78.588 67.1747H75.746C74.6277 67.0282 74.0747 66.7352 74.0747 66.3851Z" fill="#D1DCF8"/>
<path d="M61.708 66.3851C61.708 66.0515 62.261 65.7503 63.3793 65.6121H66.2213C67.3385 65.7503 67.8915 66.0515 67.8915 66.3933C67.8915 66.7352 67.3385 67.0282 66.2213 67.1747H63.3793C62.261 67.0282 61.708 66.7352 61.708 66.3851Z" fill="#D1DCF8"/>
<path d="M47 60.9894C47 60.5625 47.7155 60.177 49.1623 60H52.8391C54.2845 60.177 55 60.5625 55 60.9999C55 61.4375 54.2845 61.8125 52.8391 62H49.1623C47.7155 61.8125 47 61.4375 47 60.9894Z" fill="#D1DCF8"/>
<path d="M31 60.9894C31 60.5625 31.7155 60.177 33.1623 60H36.8391C38.2845 60.177 39 60.5625 39 60.9999C39 61.4375 38.2845 61.8125 36.8391 62H33.1623C31.7155 61.8125 31 61.4375 31 60.9894Z" fill="#D1DCF8"/>
<path d="M19 60.9894C19 60.5625 19.3577 60.177 20.0812 60H21.9196C22.6422 60.177 23 60.5625 23 60.9999C23 61.4375 22.6422 61.8125 21.9196 62H20.0812C19.3577 61.8125 19 61.4375 19 60.9894Z" fill="#D1DCF8"/>
<path d="M5.08827 40H54.9117C55.4656 40 55.9967 40.2206 56.3883 40.6132C56.78 41.0058 57 41.5383 57 42.0935V81.9065C57 82.4617 56.78 82.9942 56.3884 83.3868C55.9967 83.7794 55.4656 84 54.9117 84H5.08827C4.53443 84 4.00327 83.7794 3.61164 83.3868C3.22001 82.9942 3 82.4617 3 81.9065V42.0935C3 41.8186 3.05401 41.5464 3.15896 41.2924C3.2639 41.0384 3.41773 40.8076 3.61164 40.6132C3.80555 40.4188 4.03576 40.2646 4.28912 40.1594C4.54248 40.0542 4.81403 40 5.08827 40Z" fill="#F3F6FD"/>
<path d="M45 62C44.8656 70.861 37.7442 78 29 78V69.2967C30.9294 69.2965 32.7834 68.5358 34.1715 67.1747C35.5597 65.8137 36.3736 63.9585 36.4419 62H45Z" fill="#FFBF00"/>
<path d="M44.9996 61.736C45.0013 61.8241 44.9978 61.9123 44.9892 62H36.4369C36.4454 61.9123 36.4489 61.8241 36.4472 61.736C36.4465 59.7949 35.6616 57.9335 34.2652 56.5609C32.8687 55.1884 30.9749 54.417 29 54.4163V46C37.8313 46 44.9996 53.0457 44.9996 61.736Z" fill="white"/>
<path d="M36 62C35.9993 63.9737 35.2298 65.8663 33.8605 67.262C32.4913 68.6576 30.6344 69.4419 28.698 69.4427V78C24.5346 78 20.5418 76.3143 17.5978 73.3137C14.6539 70.3131 13 66.2435 13 62C13 57.7565 14.6539 53.6869 17.5978 50.6863C20.5418 47.6857 24.5346 46 28.698 46V54.5575C30.6344 54.5582 32.4913 55.3425 33.8605 56.7381C35.2298 58.1337 35.9993 60.0263 36 62Z" fill="#EA5C52"/>
<path d="M36 61.9951C36.001 63.38 35.5619 64.734 34.7382 65.8859C33.9145 67.0378 32.7432 67.9358 31.3726 68.4662C30.0019 68.9966 28.4935 69.1357 27.0381 68.8657C25.5828 68.5958 24.2459 67.929 23.1967 66.9497C22.1475 65.9705 21.4331 64.7228 21.1439 63.3644C20.8546 62.0061 21.0036 60.5982 21.5719 59.319C22.1402 58.0397 23.1023 56.9465 24.3365 56.1777C25.5707 55.4089 27.0214 54.999 28.5052 55C30.4927 55.0007 32.3986 55.7379 33.804 57.0496C35.2094 58.3613 35.9993 60.1401 36 61.9951Z" fill="#F3F6FD"/>
<path d="M252.981 110.348V287.935C252.981 289.889 252.205 291.764 250.823 293.146C249.441 294.528 247.567 295.304 245.613 295.304H31.3446C29.3907 295.304 27.5168 294.528 26.1352 293.146C24.7536 291.764 23.9774 289.89 23.9774 287.936V110.347C23.9774 108.393 24.7536 106.519 26.1352 105.137C27.5168 103.755 29.3907 102.979 31.3446 102.979L245.613 102.979C246.58 102.979 247.539 103.169 248.433 103.54C249.326 103.91 250.139 104.453 250.823 105.137C251.507 105.822 252.05 106.634 252.42 107.528C252.79 108.422 252.981 109.381 252.981 110.348Z" fill="#FAFAFA"/>
<path d="M223.288 192.207L223.173 207.365C223.164 208.54 222.788 209.683 222.098 210.633C221.407 211.584 220.436 212.294 219.322 212.665L211.152 215.385C209.357 215.983 208.028 217.457 207.509 219.277C205.969 224.671 203.785 229.86 201.004 234.733C200.072 236.367 199.947 238.334 200.762 240.03L204.487 247.78C204.996 248.838 205.161 250.029 204.96 251.186C204.758 252.343 204.2 253.408 203.364 254.232L192.565 264.87C191.728 265.694 190.655 266.236 189.496 266.42C188.336 266.604 187.148 266.42 186.098 265.896L178.397 262.047C176.72 261.209 174.758 261.299 173.113 262.199C168.194 264.902 162.972 267.011 157.556 268.483C155.731 268.976 154.238 270.281 153.613 272.066L150.769 280.197C150.381 281.306 149.656 282.266 148.696 282.942C147.735 283.618 146.587 283.977 145.412 283.968L130.287 283.853C129.114 283.844 127.974 283.469 127.025 282.781C126.076 282.093 125.365 281.125 124.992 280.013L122.242 271.816C121.642 270.028 120.172 268.706 118.359 268.187C112.977 266.635 107.802 264.44 102.945 261.649C101.306 260.711 99.3311 260.588 97.6315 261.41L89.8953 265.151C88.8364 265.663 87.6438 265.831 86.4848 265.63C85.3259 265.43 84.2588 264.871 83.4335 264.033L72.8004 253.235C71.9773 252.399 71.4358 251.327 71.2515 250.169C71.0672 249.01 71.2493 247.823 71.7723 246.773L75.6247 239.039C76.4632 237.355 76.3676 235.387 75.459 233.74C72.7425 228.826 70.6157 223.609 69.1227 218.196C68.6249 216.384 67.3247 214.905 65.5522 214.283L57.4363 211.436C56.3285 211.047 55.37 210.322 54.6947 209.362C54.0194 208.401 53.6612 207.254 53.6701 206.079L53.7854 190.918C53.7943 189.743 54.1704 188.6 54.8611 187.65C55.5518 186.7 56.5224 185.989 57.6369 185.618L65.8245 182.892C67.6095 182.298 68.9356 180.836 69.46 179.029C71.0226 173.644 73.2155 168.462 75.9932 163.591C76.9252 161.956 77.0501 159.989 76.235 158.293L72.5101 150.543C72.0014 149.485 71.8363 148.294 72.0377 147.137C72.2392 145.98 72.7971 144.915 73.6336 144.091L84.4332 133.453C85.2696 132.629 86.3426 132.087 87.5021 131.903C88.6616 131.72 89.8496 131.903 90.8998 132.428L98.577 136.264C100.267 137.109 102.246 137.008 103.898 136.091C108.802 133.365 114.017 131.242 119.43 129.766C121.24 129.272 122.721 127.975 123.346 126.205L126.221 118.07C126.612 116.965 127.337 116.009 128.296 115.337C129.255 114.664 130.4 114.307 131.572 114.316L146.705 114.431C147.879 114.44 149.021 114.815 149.97 115.505C150.92 116.195 151.631 117.165 152.002 118.279L154.723 126.432C155.319 128.218 156.783 129.543 158.591 130.066C163.991 131.626 169.187 133.822 174.07 136.608C175.7 137.538 177.661 137.665 179.355 136.855L187.112 133.147C188.169 132.642 189.358 132.479 190.512 132.681C191.666 132.884 192.729 133.441 193.551 134.276L204.187 145.078C205.012 145.916 205.554 146.991 205.737 148.154C205.92 149.316 205.735 150.506 205.206 151.557L201.353 159.228C200.503 160.92 200.601 162.903 201.519 164.559C204.234 169.454 206.345 174.66 207.805 180.064C208.298 181.889 209.603 183.38 211.387 184.004L219.518 186.849C220.627 187.237 221.586 187.963 222.263 188.923C222.939 189.884 223.297 191.032 223.288 192.207Z" fill="#D1DCF8"/>
<path d="M138.479 250.758C166.979 250.758 190.083 227.65 190.083 199.144C190.083 170.639 166.979 147.53 138.479 147.53C109.98 147.53 86.876 170.639 86.876 199.144C86.876 227.65 109.98 250.758 138.479 250.758Z" fill="white"/>
<path d="M245.878 115.577C245.877 116.227 245.684 116.861 245.322 117.401C244.96 117.941 244.447 118.361 243.847 118.61C243.246 118.858 242.586 118.922 241.949 118.795C241.312 118.668 240.726 118.355 240.267 117.896C239.808 117.437 239.495 116.851 239.368 116.214C239.241 115.577 239.305 114.916 239.553 114.316C239.801 113.715 240.222 113.202 240.761 112.84C241.301 112.478 241.936 112.285 242.585 112.283C243.459 112.284 244.296 112.631 244.914 113.248C245.531 113.866 245.878 114.703 245.878 115.577Z" fill="#EA5C52"/>
<path d="M236.187 115.577C236.186 116.227 235.992 116.861 235.631 117.401C235.269 117.941 234.756 118.361 234.155 118.61C233.555 118.858 232.894 118.922 232.257 118.795C231.62 118.668 231.035 118.355 230.576 117.896C230.116 117.437 229.803 116.851 229.676 116.214C229.549 115.577 229.614 114.916 229.862 114.316C230.11 113.715 230.53 113.202 231.07 112.84C231.61 112.478 232.244 112.285 232.894 112.283C233.767 112.284 234.605 112.631 235.222 113.248C235.84 113.866 236.187 114.703 236.187 115.577Z" fill="#FFBF00"/>
<path d="M226.495 115.578C226.494 116.228 226.301 116.862 225.939 117.402C225.578 117.942 225.064 118.362 224.464 118.611C223.863 118.859 223.203 118.923 222.566 118.796C221.929 118.669 221.344 118.356 220.884 117.897C220.425 117.438 220.112 116.852 219.985 116.215C219.858 115.578 219.922 114.917 220.17 114.317C220.418 113.716 220.839 113.203 221.379 112.841C221.918 112.479 222.553 112.286 223.203 112.284C224.076 112.285 224.913 112.632 225.531 113.249C226.148 113.867 226.495 114.704 226.495 115.578Z" fill="#36BA5B"/>
<path d="M138.479 263.444C173.985 263.444 202.768 234.655 202.768 199.142C202.768 163.629 173.985 134.84 138.479 134.84C102.974 134.84 74.1904 163.629 74.1904 199.142C74.1904 234.655 102.974 263.444 138.479 263.444Z" fill="white"/>
<path d="M105.646 199.138C105.645 203.451 106.494 207.721 108.144 211.706C109.795 215.69 112.214 219.309 115.264 222.357L99.9879 237.637C90.1295 227.776 84.0259 214.16 84.0259 199.138C84.0259 184.116 90.1295 170.5 99.9879 160.64L115.264 175.919C112.214 178.967 109.794 182.587 108.144 186.571C106.494 190.555 105.645 194.826 105.646 199.138Z" fill="#EA5C52"/>
<path d="M192.931 199.138C192.931 214.16 186.827 227.776 176.969 237.637L161.693 222.357C164.742 219.309 167.161 215.689 168.811 211.705C170.462 207.721 171.311 203.451 171.311 199.138C171.311 194.826 170.462 190.556 168.811 186.572C167.161 182.588 164.742 178.968 161.693 175.919L176.969 160.64C186.827 170.5 192.931 184.116 192.931 199.138Z" fill="#FFBF00"/>
<path d="M176.969 160.64L161.693 175.919C158.645 172.869 155.026 170.45 151.042 168.799C147.059 167.148 142.79 166.299 138.478 166.299C134.167 166.299 129.898 167.148 125.914 168.799C121.931 170.45 118.312 172.869 115.264 175.919L99.9878 160.64C109.846 150.78 123.459 144.675 138.478 144.675C153.497 144.675 167.11 150.78 176.969 160.64Z" fill="#36BA5B"/>
<path d="M138.479 211.713C145.685 211.713 151.526 205.871 151.526 198.663C151.526 191.456 145.685 185.614 138.479 185.614C131.274 185.614 125.433 191.456 125.433 198.663C125.433 205.871 131.274 211.713 138.479 211.713Z" fill="#E4ECF9"/>
<path d="M142.614 202.565C141.363 203.289 139.877 203.487 138.481 203.115C137.085 202.743 135.893 201.831 135.169 200.581C134.445 199.33 134.247 197.843 134.618 196.447C134.99 195.05 135.901 193.859 137.151 193.134C139.757 191.624 176.53 176.613 176.53 176.613C176.53 176.613 145.219 201.055 142.614 202.565Z" fill="#4A5258"/>
<path d="M154.235 237.105C154.235 237.602 154.136 238.095 153.945 238.554C153.753 239.013 153.473 239.43 153.12 239.78C152.773 240.131 152.358 240.408 151.902 240.596C151.446 240.785 150.956 240.88 150.463 240.878H126.614C125.869 240.878 125.141 240.657 124.521 240.244C123.901 239.831 123.418 239.243 123.131 238.555C122.845 237.867 122.769 237.11 122.913 236.378C123.057 235.647 123.414 234.975 123.94 234.447C124.654 233.746 125.614 233.352 126.614 233.35H150.463C151.461 233.349 152.418 233.743 153.125 234.447C153.832 235.151 154.231 236.107 154.235 237.105Z" fill="#E4ECF9"/>
</svg>
