<svg width="94" height="74" viewBox="0 0 94 74" fill="none" xmlns="http://www.w3.org/2000/svg">
<circle cx="33" cy="37" r="33" fill="#FFBF20"/>
<path d="M39.9857 26.2968L79.8308 55.1674L79.6951 54.3294L40.4709 25.9051L39.9857 26.2968ZM38.5163 27.4938L78.6729 56.5991L80.147 57.1575L80.1067 56.8892L39.008 27.0992L38.5229 27.4908L38.5163 27.4938ZM42.9342 23.9063L79.0106 50.0544L78.8815 49.2134L43.4194 23.5147L42.9408 23.9034L42.9342 23.9063ZM41.4581 25.1063L79.4156 52.6172L79.2799 51.7791L41.9366 24.7177L41.4515 25.1093L41.4581 25.1063ZM44.4066 22.716L78.599 47.4946L78.4633 46.6566L44.8888 22.3177L44.4036 22.7093L44.4066 22.716ZM47.3485 20.3285L77.7788 42.3816L77.6431 41.5436L47.827 19.9398L47.3418 20.3315L47.3485 20.3285ZM45.876 21.5189L78.194 44.9318L78.0584 44.0938L46.3612 21.1273L45.876 21.5189ZM32.6223 32.2812L52.2233 46.4864L53.5823 47.0008L54.3909 47.3156L33.1074 31.8896L32.6223 32.2812ZM31.1432 33.4746L45.5987 43.9577L47.773 44.7839L31.6284 33.083L31.1432 33.4746ZM29.6738 34.6716L38.9874 41.423L41.158 42.2589L30.1589 34.28L29.6804 34.6687L29.6738 34.6716ZM28.1947 35.865L32.3695 38.8914L34.5371 39.7206L28.6733 35.4763L28.1947 35.865ZM34.0851 31.0872L58.825 49.0173L60.9927 49.8466L34.5702 30.6955L34.0851 31.0872ZM35.5641 29.8938L65.443 51.549L67.6106 52.3782L36.0493 29.5022L35.5641 29.8938ZM37.0431 28.7004L72.0609 54.0807L74.2315 54.9165L37.5313 28.3154L37.0461 28.7071L37.0431 28.7004ZM49.097 18.9193L48.8275 19.1351L77.3768 39.8254L77.2411 38.9874L49.306 18.7464L49.0903 18.9223L49.097 18.9193ZM27.0014 36.8433L27.9317 37.1992L27.2068 36.68L26.9947 36.8463L27.0014 36.8433ZM65.1107 5.91441L72.8616 11.5347L72.7295 10.6871L65.5959 5.52277L65.1174 5.91145L65.1107 5.91441ZM66.5831 4.72399L72.447 8.96824L72.3113 8.13019L67.0587 4.32868L66.5765 4.72695L66.5831 4.72399ZM63.6413 7.11144L73.2731 14.0945L73.1345 13.2498L64.1265 6.7198L63.6413 7.11144ZM71.6364 3.8589L71.5007 3.02086L70.0138 1.93533L69.5353 2.324L71.6334 3.85226L71.6364 3.8589ZM71.0077 1.13358L71.2284 1.28949L71.1829 0.991715L71.0143 1.13062L71.0077 1.13358ZM62.0813 8.37278L73.6982 16.7914L73.5626 15.9534L62.5598 7.98411L62.0813 8.37278ZM68.0592 3.52399L72.042 6.40545L71.9093 5.57404L68.5444 3.13237L68.0592 3.52399ZM50.2969 17.9381L76.9652 37.2656L76.8361 36.4246L50.7821 17.5465L50.2969 17.9381ZM54.7149 14.3506L75.74 29.5898L75.6043 28.7518L55.1934 13.962L54.7082 14.3536L54.7149 14.3506ZM53.2388 15.5506L76.1486 32.143L76.0129 31.305L53.721 15.1524L53.2388 15.5506ZM51.7664 16.741L76.5536 34.7058L76.4179 33.8678L52.2449 16.3524L51.7597 16.744L51.7664 16.741ZM59.1262 10.7662L74.5119 21.9074L74.3761 21.0694L59.618 10.3716L59.1262 10.7662ZM60.6022 9.56616L74.1069 19.3446L73.9712 18.5066L61.0874 9.17453L60.6052 9.57278L60.6022 9.56616ZM57.6604 11.9536L74.9138 24.4636L74.7848 23.6226L58.1455 11.562L57.6604 11.9536ZM56.1814 13.147L75.3254 27.0234L75.1897 26.1853L56.6665 12.7553L56.1814 13.147Z" fill="url(#paint0_linear_118_4251)"/>
<path d="M33.0002 41.421C31.8276 41.421 30.7031 40.9552 29.874 40.1261C29.0449 39.297 28.5791 38.1724 28.5791 36.9999C28.5791 35.8274 29.0449 34.7029 29.874 33.8738C30.7031 33.0446 31.8276 32.5789 33.0002 32.5789C34.1727 32.5789 35.2972 33.0446 36.1263 33.8738C36.9554 34.7029 37.4212 35.8274 37.4212 36.9999C37.4212 38.1724 36.9554 39.297 36.1263 40.1261C35.2972 40.9552 34.1727 41.421 33.0002 41.421Z" fill="#4DB6AC"/>
<path d="M33 41.7369C30.3878 41.7369 28.2632 39.6122 28.2632 37C28.2632 34.3878 30.3878 32.2632 33 32.2632C35.6122 32.2632 37.7369 34.3878 37.7369 37C37.7369 39.6122 35.6122 41.7369 33 41.7369ZM33 32.8948C30.7364 32.8948 28.8948 34.7364 28.8948 37C28.8948 39.2636 30.7364 41.1053 33 41.1053C35.2636 41.1053 37.1053 39.2636 37.1053 37C37.1053 34.7364 35.2636 32.8948 33 32.8948Z" fill="#263238"/>
<path d="M33.4735 38.8947H31.7367C31.6529 38.8947 31.5726 38.8614 31.5134 38.8022C31.4542 38.743 31.4209 38.6627 31.4209 38.5789C31.4209 38.4952 31.4542 38.4148 31.5134 38.3556C31.5726 38.2964 31.6529 38.2631 31.7367 38.2631H33.4735C33.5992 38.2631 33.7196 38.2132 33.8085 38.1244C33.8973 38.0355 33.9472 37.9151 33.9472 37.7894C33.9472 37.6638 33.8973 37.5433 33.8085 37.4545C33.7196 37.3657 33.5992 37.3158 33.4735 37.3158H32.5262C31.9167 37.3158 31.4209 36.82 31.4209 36.2105C31.4209 35.601 31.9167 35.1052 32.5262 35.1052H33.9472C34.031 35.1052 34.1113 35.1385 34.1705 35.1977C34.2297 35.2569 34.263 35.3373 34.263 35.421C34.263 35.5048 34.2297 35.5851 34.1705 35.6443C34.1113 35.7035 34.031 35.7368 33.9472 35.7368H32.5262C32.4005 35.7368 32.28 35.7867 32.1912 35.8755C32.1024 35.9644 32.0525 36.0849 32.0525 36.2105C32.0525 36.3361 32.1024 36.4566 32.1912 36.5454C32.28 36.6343 32.4005 36.6842 32.5262 36.6842H33.4735C34.083 36.6842 34.5788 37.18 34.5788 37.7894C34.5788 38.3989 34.083 38.8947 33.4735 38.8947Z" fill="#263238"/>
<path d="M32.9999 35.7369C32.9161 35.7369 32.8358 35.7036 32.7766 35.6444C32.7174 35.5852 32.6841 35.5049 32.6841 35.4211V34.4737C32.6841 34.39 32.7174 34.3097 32.7766 34.2505C32.8358 34.1912 32.9161 34.158 32.9999 34.158C33.0836 34.158 33.1639 34.1912 33.2232 34.2505C33.2824 34.3097 33.3157 34.39 33.3157 34.4737V35.4211C33.3157 35.5049 33.2824 35.5852 33.2232 35.6444C33.1639 35.7036 33.0836 35.7369 32.9999 35.7369ZM32.9999 39.8422C32.9161 39.8422 32.8358 39.8089 32.7766 39.7497C32.7174 39.6905 32.6841 39.6101 32.6841 39.5264V38.579C32.6841 38.4953 32.7174 38.4149 32.7766 38.3557C32.8358 38.2965 32.9161 38.2632 32.9999 38.2632C33.0836 38.2632 33.1639 38.2965 33.2232 38.3557C33.2824 38.4149 33.3157 38.4953 33.3157 38.579V39.5264C33.3157 39.6101 33.2824 39.6905 33.2232 39.7497C33.1639 39.8089 33.0836 39.8422 32.9999 39.8422Z" fill="#263238"/>
<path d="M33.3158 27.5263C37.608 27.5263 41.2548 30.3065 42.5729 34.1579H40.4893L43.963 37.6316L47.4367 34.1579H45.8577C44.4423 28.5431 39.3638 24.3684 33.3158 24.3684C27.2678 24.3684 22.1893 28.5431 20.7739 34.1579H24.0588C25.3769 30.3065 29.0236 27.5263 33.3158 27.5263Z" fill="#FFD740"/>
<path d="M43.9623 37.9475C43.8785 37.9475 43.7981 37.9143 43.7387 37.8553L40.265 34.3816C40.2204 34.3375 40.19 34.2812 40.1776 34.2198C40.1652 34.1583 40.1714 34.0946 40.1954 34.0367C40.2194 33.9788 40.2601 33.9293 40.3123 33.8947C40.3646 33.8601 40.4259 33.8418 40.4886 33.8422H42.12C40.6945 30.2353 37.2113 27.8422 33.3158 27.8422C29.2711 27.8422 25.6711 30.4209 24.3574 34.2603C24.3361 34.3226 24.2959 34.3767 24.2423 34.4149C24.1887 34.4532 24.1245 34.4738 24.0587 34.4738H20.7739C20.7258 34.4738 20.6784 34.4628 20.6353 34.4418C20.5921 34.4207 20.5543 34.3901 20.5248 34.3522C20.4952 34.3143 20.4747 34.2702 20.4648 34.2232C20.4549 34.1762 20.4558 34.1275 20.4676 34.0809C21.9562 28.1763 27.2393 24.0527 33.3158 24.0527C39.3094 24.0527 44.532 28.0658 46.1008 33.8422H47.436C47.4985 33.8421 47.5597 33.8606 47.6117 33.8952C47.6637 33.9299 47.7043 33.9793 47.7283 34.0371C47.7522 34.0948 47.7585 34.1584 47.7462 34.2198C47.734 34.2811 47.7038 34.3374 47.6595 34.3816L44.1859 37.8553C44.1265 37.9143 44.0461 37.9475 43.9623 37.9475ZM41.2509 34.4738L43.9623 37.1852L46.6737 34.4738H45.857C45.7867 34.4738 45.7185 34.4503 45.6631 34.407C45.6077 34.3638 45.5684 34.3032 45.5513 34.2351C44.1334 28.6115 39.1023 24.6843 33.3158 24.6843C27.665 24.6843 22.7343 28.4296 21.1863 33.8422H23.8358C25.2953 29.8664 29.0766 27.2106 33.3158 27.2106C37.6301 27.2106 41.4707 29.9612 42.8716 34.0557C42.8878 34.1032 42.8925 34.154 42.8853 34.2037C42.878 34.2534 42.859 34.3007 42.8297 34.3416C42.8005 34.3825 42.762 34.4158 42.7173 34.4388C42.6726 34.4618 42.6231 34.4738 42.5728 34.4738H41.2509Z" fill="#263238"/>
<path d="M33.3157 47.1053C29.0235 47.1053 25.3767 44.3251 24.0586 40.4737H26.1422L22.6685 37L19.1948 40.4737H20.7738C22.1891 46.0884 27.2677 50.2632 33.3157 50.2632C39.3637 50.2632 44.4422 46.0884 45.8576 40.4737H42.5727C41.2546 44.3251 37.6079 47.1053 33.3157 47.1053Z" fill="#FFD740"/>
<path d="M33.3158 50.5789C27.3215 50.5789 22.0996 46.5659 20.5307 40.7895H19.1956C19.133 40.7896 19.0719 40.7711 19.0198 40.7364C18.9678 40.7017 18.9272 40.6524 18.9033 40.5946C18.8793 40.5368 18.8731 40.4733 18.8853 40.4119C18.8976 40.3506 18.9277 40.2943 18.972 40.2501L22.4457 36.7764C22.5049 36.7172 22.5852 36.684 22.6689 36.684C22.7527 36.684 22.833 36.7172 22.8922 36.7764L26.3659 40.2501C26.4104 40.2941 26.4409 40.3504 26.4533 40.4118C26.4657 40.4731 26.4596 40.5368 26.4357 40.5947C26.4118 40.6526 26.3711 40.702 26.319 40.7367C26.2669 40.7714 26.2056 40.7898 26.1429 40.7895H24.5116C25.9364 44.3964 29.4196 46.7895 33.3158 46.7895C37.3598 46.7895 40.9604 44.2101 42.2747 40.3714C42.2958 40.309 42.3359 40.2549 42.3894 40.2166C42.4429 40.1783 42.507 40.1577 42.5728 40.1579H45.857C45.9051 40.1579 45.9525 40.1688 45.9957 40.1899C46.0388 40.211 46.0766 40.2416 46.1062 40.2795C46.1357 40.3174 46.1562 40.3615 46.1661 40.4085C46.176 40.4555 46.1751 40.5042 46.1634 40.5507C44.6747 46.4554 39.3916 50.5789 33.3158 50.5789ZM19.9579 40.1579H20.7745C20.8449 40.1579 20.9132 40.1814 20.9687 40.2246C21.0242 40.2679 21.0637 40.3284 21.0808 40.3966C22.4981 46.0202 27.5293 49.9474 33.3158 49.9474C38.9665 49.9474 43.8973 46.2021 45.4453 40.7895H42.7964C41.3362 44.7659 37.5549 47.4211 33.3158 47.4211C29.0008 47.4211 25.1608 44.6705 23.76 40.576C23.7434 40.5285 23.7385 40.4776 23.7456 40.4278C23.7528 40.3779 23.7718 40.3305 23.8011 40.2896C23.8303 40.2486 23.869 40.2153 23.9139 40.1923C23.9587 40.1694 24.0084 40.1576 24.0587 40.1579H25.38L22.6686 37.4465L19.9579 40.1579ZM15.3158 37.3158C15.232 37.3158 15.1517 37.2825 15.0925 37.2233C15.0333 37.1641 15 37.0838 15 37C15 27.0747 23.0747 19 33 19C33.0838 19 33.1641 19.0333 33.2233 19.0925C33.2825 19.1517 33.3158 19.232 33.3158 19.3158C33.3158 19.3995 33.2825 19.4799 33.2233 19.5391C33.1641 19.5983 33.0838 19.6316 33 19.6316C23.4227 19.6316 15.6316 27.4227 15.6316 37C15.6316 37.0838 15.5983 37.1641 15.5391 37.2233C15.4799 37.2825 15.3995 37.3158 15.3158 37.3158ZM34.8947 19.6316H34.2632C34.1794 19.6316 34.0991 19.5983 34.0399 19.5391C33.9806 19.4799 33.9474 19.3995 33.9474 19.3158C33.9474 19.232 33.9806 19.1517 34.0399 19.0925C34.0991 19.0333 34.1794 19 34.2632 19H34.8947C34.9785 19 35.0588 19.0333 35.118 19.0925C35.1773 19.1517 35.2105 19.232 35.2105 19.3158C35.2105 19.3995 35.1773 19.4799 35.118 19.5391C35.0588 19.5983 34.9785 19.6316 34.8947 19.6316Z" fill="#263238"/>
<path d="M33.0001 55C32.9163 55 32.836 54.9668 32.7768 54.9075C32.7176 54.8483 32.6843 54.768 32.6843 54.6842C32.6843 54.6005 32.7176 54.5202 32.7768 54.4609C32.836 54.4017 32.9163 54.3685 33.0001 54.3685C42.5767 54.3685 50.3685 46.5773 50.3685 37C50.3685 36.9163 50.4018 36.836 50.461 36.7767C50.5202 36.7175 50.6005 36.6842 50.6843 36.6842C50.768 36.6842 50.8484 36.7175 50.9076 36.7767C50.9668 36.836 51.0001 36.9163 51.0001 37C51.0001 46.9253 42.9253 55 33.0001 55ZM31.7369 55H31.1053C31.0216 55 30.9413 54.9668 30.882 54.9075C30.8228 54.8483 30.7896 54.768 30.7896 54.6842C30.7896 54.6005 30.8228 54.5202 30.882 54.4609C30.9413 54.4017 31.0216 54.3685 31.1053 54.3685H31.7369C31.8207 54.3685 31.901 54.4017 31.9602 54.4609C32.0194 54.5202 32.0527 54.6005 32.0527 54.6842C32.0527 54.768 32.0194 54.8483 31.9602 54.9075C31.901 54.9668 31.8207 55 31.7369 55ZM46.2632 20.8948H43.7369C43.6532 20.8948 43.5728 20.8615 43.5136 20.8023C43.4544 20.743 43.4211 20.6627 43.4211 20.579C43.4211 20.4952 43.4544 20.4149 43.5136 20.3557C43.5728 20.2965 43.6532 20.2632 43.7369 20.2632H46.2632C46.347 20.2632 46.4273 20.2965 46.4865 20.3557C46.5458 20.4149 46.579 20.4952 46.579 20.579C46.579 20.6627 46.5458 20.743 46.4865 20.8023C46.4273 20.8615 46.347 20.8948 46.2632 20.8948Z" fill="#263238"/>
<path d="M44.9999 22.1579C44.9161 22.1579 44.8358 22.1246 44.7766 22.0654C44.7174 22.0062 44.6841 21.9259 44.6841 21.8421V19.3158C44.6841 19.232 44.7174 19.1517 44.7766 19.0925C44.8358 19.0333 44.9161 19 44.9999 19C45.0836 19 45.1639 19.0333 45.2232 19.0925C45.2824 19.1517 45.3157 19.232 45.3157 19.3158V21.8421C45.3157 21.9259 45.2824 22.0062 45.2232 22.0654C45.1639 22.1246 45.0836 22.1579 44.9999 22.1579Z" fill="#263238"/>
<path d="M50.6844 25H48.1581C48.0743 25 47.994 24.9667 47.9348 24.9075C47.8756 24.8483 47.8423 24.768 47.8423 24.6842C47.8423 24.6004 47.8756 24.5201 47.9348 24.4609C47.994 24.4017 48.0743 24.3684 48.1581 24.3684H50.6844C50.7681 24.3684 50.8485 24.4017 50.9077 24.4609C50.9669 24.5201 51.0002 24.6004 51.0002 24.6842C51.0002 24.768 50.9669 24.8483 50.9077 24.9075C50.8485 24.9667 50.7681 25 50.6844 25Z" fill="#263238"/>
<path d="M49.4213 26.2631C49.3375 26.2631 49.2572 26.2298 49.198 26.1706C49.1387 26.1114 49.1055 26.0311 49.1055 25.9473V23.421C49.1055 23.3373 49.1387 23.2569 49.198 23.1977C49.2572 23.1385 49.3375 23.1052 49.4213 23.1052C49.505 23.1052 49.5853 23.1385 49.6446 23.1977C49.7038 23.2569 49.737 23.3373 49.737 23.421V25.9473C49.737 26.0311 49.7038 26.1114 49.6446 26.1706C49.5853 26.2298 49.505 26.2631 49.4213 26.2631Z" fill="#263238"/>
<defs>
<linearGradient id="paint0_linear_118_4251" x1="55.6316" y1="61.1357" x2="46.6671" y2="4.95401" gradientUnits="userSpaceOnUse">
<stop stop-color="#FFE033"/>
<stop offset="1" stop-color="#FFE033"/>
</linearGradient>
</defs>
</svg>
