<svg width="87" height="64" viewBox="0 0 87 64" fill="none" xmlns="http://www.w3.org/2000/svg">
<path d="M20.7401 14.728V19.66H14.0441V40H7.88813V19.66H1.19213V14.728H20.7401ZM35.7817 40.252C33.4057 40.252 31.2217 39.7 29.2297 38.596C27.2617 37.492 25.6897 35.956 24.5137 33.988C23.3617 31.996 22.7857 29.764 22.7857 27.292C22.7857 24.82 23.3617 22.6 24.5137 20.632C25.6897 18.664 27.2617 17.128 29.2297 16.024C31.2217 14.92 33.4057 14.368 35.7817 14.368C38.1577 14.368 40.3297 14.92 42.2977 16.024C44.2897 17.128 45.8497 18.664 46.9777 20.632C48.1297 22.6 48.7057 24.82 48.7057 27.292C48.7057 29.764 48.1297 31.996 46.9777 33.988C45.8257 35.956 44.2657 37.492 42.2977 38.596C40.3297 39.7 38.1577 40.252 35.7817 40.252ZM35.7817 34.636C37.7977 34.636 39.4057 33.964 40.6057 32.62C41.8297 31.276 42.4417 29.5 42.4417 27.292C42.4417 25.06 41.8297 23.284 40.6057 21.964C39.4057 20.62 37.7977 19.948 35.7817 19.948C33.7417 19.948 32.1097 20.608 30.8857 21.928C29.6857 23.248 29.0857 25.036 29.0857 27.292C29.0857 29.524 29.6857 31.312 30.8857 32.656C32.1097 33.976 33.7417 34.636 35.7817 34.636ZM61.5984 14.728C64.2624 14.728 66.5904 15.256 68.5824 16.312C70.5744 17.368 72.1104 18.856 73.1904 20.776C74.2944 22.672 74.8464 24.868 74.8464 27.364C74.8464 29.836 74.2944 32.032 73.1904 33.952C72.1104 35.872 70.5624 37.36 68.5464 38.416C66.5544 39.472 64.2384 40 61.5984 40H52.1304V14.728H61.5984ZM61.2024 34.672C63.5304 34.672 65.3424 34.036 66.6384 32.764C67.9344 31.492 68.5824 29.692 68.5824 27.364C68.5824 25.036 67.9344 23.224 66.6384 21.928C65.3424 20.632 63.5304 19.984 61.2024 19.984H58.2864V34.672H61.2024ZM84.4427 14.728V40H78.2867V14.728H84.4427Z" fill="#000003"/>
<path d="M12.5732 56.73C12.6932 57.0033 12.7532 57.2167 12.7532 57.37C12.7532 57.5233 12.6966 57.6467 12.5832 57.74C12.4699 57.8333 12.3366 57.88 12.1832 57.88C12.0299 57.88 11.9132 57.8467 11.8332 57.78C11.7532 57.7133 11.6832 57.57 11.6232 57.35C11.4899 56.9433 11.1632 56.9067 10.6432 57.24C10.1966 57.5067 9.87324 57.8933 9.67324 58.4C9.47324 58.9067 9.41991 59.41 9.51324 59.91C9.60658 60.41 9.84324 60.79 10.2232 61.05C10.6966 61.37 11.1732 61.3533 11.6532 61C11.9266 60.8067 12.1099 60.63 12.2032 60.47C12.3299 60.2767 12.4999 60.1933 12.7132 60.22C12.9266 60.2467 13.0732 60.3633 13.1532 60.57C13.2732 60.8833 13.0332 61.29 12.4332 61.79C11.5999 62.47 10.7699 62.5933 9.94324 62.16C9.29658 61.8267 8.84324 61.3067 8.58324 60.6C8.32324 59.8933 8.30991 59.1467 8.54324 58.36C8.68324 57.88 8.86658 57.49 9.09324 57.19C9.31991 56.89 9.60658 56.6267 9.95324 56.4C10.2999 56.1733 10.5399 56.04 10.6732 56C10.8066 55.96 11.0466 55.94 11.3932 55.94C11.7466 55.94 11.9999 56.0067 12.1532 56.14C12.3132 56.26 12.4532 56.4567 12.5732 56.73ZM16.5234 57.04C16.1367 56.84 15.8334 56.74 15.6134 56.74C15.3934 56.74 15.1467 56.8067 14.8734 56.94C14.9267 58.0133 14.9801 58.6067 15.0334 58.72C15.0801 58.7733 15.3301 58.7467 15.7834 58.64C16.2367 58.5333 16.5967 58.4067 16.8634 58.26C17.1301 58.1133 17.2967 57.9833 17.3634 57.87C17.4301 57.7567 17.4034 57.64 17.2834 57.52C17.1634 57.4 16.9101 57.24 16.5234 57.04ZM18.0134 62.65C17.8201 62.65 17.6601 62.5667 17.5334 62.4C17.4467 62.2933 17.0667 61.93 16.3934 61.31C15.7201 60.69 15.3301 60.3467 15.2234 60.28C15.1834 60.2533 15.1701 60.5267 15.1834 61.1C15.1967 61.6733 15.1934 62.0133 15.1734 62.12C15.1534 62.2267 15.0867 62.3167 14.9734 62.39C14.8201 62.5033 14.6634 62.5267 14.5034 62.46C14.3434 62.3933 14.2434 62.2833 14.2034 62.13C14.1634 61.9767 14.1234 61.5667 14.0834 60.9C14.0434 60.2333 13.9734 59.8267 13.8734 59.68C13.7801 59.5333 13.7601 59.3967 13.8134 59.27C13.8667 59.1433 13.8701 58.6333 13.8234 57.74C13.7767 56.8467 13.7667 56.3533 13.7934 56.26C13.8267 56.0867 13.9067 55.9533 14.0334 55.86C14.1601 55.7667 14.3034 55.74 14.4634 55.78C14.6234 55.82 14.7767 55.8133 14.9234 55.76C15.2167 55.64 15.5701 55.62 15.9834 55.7C16.3967 55.78 16.8567 55.9667 17.3634 56.26C17.8701 56.5533 18.2134 56.86 18.3934 57.18C18.5734 57.5 18.5734 57.8567 18.3934 58.25C18.2667 58.5233 18.0767 58.76 17.8234 58.96C17.5701 59.16 17.2001 59.3467 16.7134 59.52L16.2434 59.7C17.5301 60.8133 18.2701 61.5267 18.4634 61.84C18.5434 61.9867 18.5834 62.0933 18.5834 62.16C18.5834 62.2267 18.5367 62.3267 18.4434 62.46C18.3501 62.5933 18.2067 62.6567 18.0134 62.65ZM20.6238 56.96C20.5438 56.9867 20.5038 57.0533 20.5038 57.16C20.5038 57.2667 20.4605 57.71 20.3738 58.49C21.2271 58.43 21.8071 58.38 22.1138 58.34C22.4205 58.3 22.6138 58.2933 22.6938 58.32C22.7738 58.3467 22.8805 58.42 23.0138 58.54C23.1338 58.66 23.1938 58.76 23.1938 58.84C23.1938 58.92 23.1371 59.0233 23.0238 59.15C22.9038 59.2633 22.7638 59.34 22.6038 59.38C22.4438 59.42 22.1038 59.4533 21.5838 59.48L20.4038 59.55C20.3838 59.9567 20.4138 60.3267 20.4938 60.66C20.5738 60.9933 20.7105 61.1867 20.9038 61.24C21.1171 61.2933 22.2605 61.3567 24.3338 61.43L24.4638 61.7C24.5238 61.82 24.5538 61.9067 24.5538 61.96C24.5538 62.0133 24.5238 62.0833 24.4638 62.17C24.4038 62.2567 24.3605 62.3133 24.3338 62.34C24.3071 62.3667 24.2305 62.39 24.1038 62.41C23.9771 62.43 23.8305 62.44 23.6638 62.44C23.4971 62.44 23.2105 62.4433 22.8038 62.45C21.7038 62.45 20.9338 62.3767 20.4938 62.23C20.0538 62.0833 19.7405 61.8 19.5538 61.38C19.4605 61.1467 19.3671 60.6633 19.2738 59.93C19.1805 59.1967 19.1605 58.7833 19.2138 58.69C19.2671 58.59 19.3138 58.3067 19.3538 57.84C19.3938 57.3733 19.4205 57.06 19.4338 56.9C19.4471 56.74 19.4871 56.59 19.5538 56.45C19.6205 56.31 19.6905 56.2067 19.7638 56.14C19.8371 56.0733 19.9605 56.0133 20.1338 55.96C20.3138 55.9067 20.4971 55.8667 20.6838 55.84C20.8705 55.8133 21.2571 55.7733 21.8438 55.72C22.4305 55.6667 22.8071 55.6133 22.9738 55.56C23.4071 55.4267 23.7205 55.4467 23.9138 55.62C24.0205 55.7133 24.0738 55.8333 24.0738 55.98C24.0738 56.1267 24.0205 56.2533 23.9138 56.36C23.8138 56.4667 23.5305 56.5667 23.0638 56.66C22.5971 56.7533 22.0938 56.82 21.5538 56.86C21.0138 56.9 20.7038 56.9333 20.6238 56.96ZM29.0906 59.6C29.0773 59.4933 28.8806 58.9567 28.5006 57.99C28.0539 58.83 27.8239 59.3067 27.8106 59.42C27.8239 59.4467 28.0373 59.4867 28.4506 59.54C28.8639 59.5933 29.0773 59.6133 29.0906 59.6ZM25.3506 62.16C25.2173 62.0267 25.1506 61.92 25.1506 61.84C25.1506 61.76 25.2639 61.5533 25.4906 61.22C25.7173 60.8867 26.1973 60.0133 26.9306 58.6C27.6639 57.1867 28.0806 56.4033 28.1806 56.25C28.2539 56.15 28.3839 56.1133 28.5706 56.14C28.7573 56.1667 28.9073 56.2467 29.0206 56.38C29.1339 56.5133 29.2373 56.7333 29.3306 57.04C29.4239 57.3467 29.6573 57.9933 30.0306 58.98C30.4039 59.9667 30.6639 60.6333 30.8106 60.98C30.9573 61.3267 31.0439 61.5767 31.0706 61.73C31.0973 61.8833 31.0773 62 31.0106 62.08C30.9439 62.16 30.8206 62.2133 30.6406 62.24C30.4673 62.2667 30.3173 62.2167 30.1906 62.09C30.0639 61.9633 29.9539 61.7867 29.8606 61.56C29.7606 61.3333 29.6906 61.18 29.6506 61.1C29.6106 61.02 29.5573 60.9567 29.4906 60.91C29.4239 60.8767 29.3639 60.8533 29.3106 60.84C29.2573 60.8267 29.1706 60.8067 29.0506 60.78C28.9306 60.7533 28.7539 60.7067 28.5206 60.64C28.2873 60.5733 27.8573 60.5233 27.2306 60.49L26.7006 61.33C26.4473 61.7433 26.2539 62.0167 26.1206 62.15C25.9806 62.29 25.8506 62.36 25.7306 62.36C25.6106 62.36 25.4839 62.2933 25.3506 62.16ZM34.5838 57.2C34.5105 57.2 34.4938 57.2567 34.5338 57.37C34.5738 57.5633 34.6105 58.28 34.6438 59.52C34.6838 60.76 34.6971 61.5133 34.6838 61.78C34.6705 62.0467 34.6205 62.22 34.5338 62.3C34.4471 62.38 34.3305 62.4267 34.1838 62.44C34.0371 62.4533 33.9138 62.42 33.8138 62.34C33.7138 62.26 33.6438 62.0067 33.6038 61.58C33.5638 61.1533 33.5238 60.2767 33.4838 58.95L33.4238 57.16L32.6938 57.11C32.3138 57.0767 32.0505 57.02 31.9038 56.94C31.7571 56.86 31.6838 56.7067 31.6838 56.48C31.6838 56.2533 31.8038 56.1067 32.0438 56.04C32.2838 55.9733 32.6771 55.97 33.2238 56.03C33.7705 56.09 34.1171 56.1133 34.2638 56.1C34.4105 56.0867 34.6171 56.0333 34.8838 55.94C35.1505 55.8333 35.3438 55.7733 35.4638 55.76C35.5838 55.7467 35.7171 55.7733 35.8638 55.84C35.9705 55.9067 36.0305 56.0333 36.0438 56.22C36.0571 56.4067 36.0171 56.5467 35.9238 56.64C35.8305 56.7333 35.6071 56.85 35.2538 56.99C34.9071 57.13 34.6838 57.2 34.5838 57.2ZM36.6947 55.9C36.7814 55.8067 36.9147 55.76 37.0947 55.76C37.2747 55.76 37.4181 55.81 37.5247 55.91C37.6314 56.01 37.7347 56.4233 37.8347 57.15C37.9281 57.8767 37.9881 58.8133 38.0147 59.96C38.0481 61.1067 38.0847 61.8467 38.1247 62.18C38.1647 62.5133 38.1381 62.7433 38.0447 62.87C37.9581 62.97 37.8214 63.0267 37.6347 63.04C37.4481 63.0533 37.3147 63.0133 37.2347 62.92C37.1414 62.8267 37.0614 62.44 36.9947 61.76C36.9281 61.08 36.8947 60.2867 36.8947 59.38C36.8947 58.4733 36.8414 57.6967 36.7347 57.05C36.6281 56.3967 36.6147 56.0133 36.6947 55.9ZM39.2443 57.38C38.911 56.7267 38.7443 56.3333 38.7443 56.2C38.7443 56.0667 38.801 55.9433 38.9143 55.83C39.0143 55.7167 39.1377 55.66 39.2843 55.66C39.431 55.66 39.551 55.7133 39.6443 55.82C39.7377 55.9267 39.8477 56.12 39.9743 56.4C40.101 56.68 40.3643 57.17 40.7643 57.87C41.1643 58.5633 41.551 59.2033 41.9243 59.79C42.2977 60.3767 42.501 60.6567 42.5343 60.63C42.6077 60.4633 42.7777 60.0133 43.0443 59.28C43.311 58.5467 43.4977 58.06 43.6043 57.82C43.711 57.58 43.8277 57.3067 43.9543 57C44.081 56.6933 44.1543 56.5167 44.1743 56.47C44.2477 56.29 44.3643 56.16 44.5243 56.08C44.6843 56 44.8377 55.9933 44.9843 56.06C45.131 56.1267 45.2143 56.2433 45.2343 56.41C45.2543 56.5767 45.061 57.16 44.6543 58.16C44.2477 59.16 43.9243 60.03 43.6843 60.77C43.4443 61.51 43.271 61.9867 43.1643 62.2C43.0577 62.4133 42.9443 62.5433 42.8243 62.59C42.651 62.6433 42.501 62.6233 42.3743 62.53C42.2477 62.4367 42.101 62.24 41.9343 61.94C41.7677 61.64 41.3643 60.97 40.7243 59.93C40.071 58.8833 39.5777 58.0333 39.2443 57.38ZM47.2742 56.96C47.1942 56.9867 47.1542 57.0533 47.1542 57.16C47.1542 57.2667 47.1108 57.71 47.0242 58.49C47.8775 58.43 48.4575 58.38 48.7642 58.34C49.0708 58.3 49.2642 58.2933 49.3442 58.32C49.4242 58.3467 49.5308 58.42 49.6642 58.54C49.7842 58.66 49.8442 58.76 49.8442 58.84C49.8442 58.92 49.7875 59.0233 49.6742 59.15C49.5542 59.2633 49.4142 59.34 49.2542 59.38C49.0942 59.42 48.7542 59.4533 48.2342 59.48L47.0542 59.55C47.0342 59.9567 47.0642 60.3267 47.1442 60.66C47.2242 60.9933 47.3608 61.1867 47.5542 61.24C47.7675 61.2933 48.9108 61.3567 50.9842 61.43L51.1142 61.7C51.1742 61.82 51.2042 61.9067 51.2042 61.96C51.2042 62.0133 51.1742 62.0833 51.1142 62.17C51.0542 62.2567 51.0108 62.3133 50.9842 62.34C50.9575 62.3667 50.8808 62.39 50.7542 62.41C50.6275 62.43 50.4808 62.44 50.3142 62.44C50.1475 62.44 49.8608 62.4433 49.4542 62.45C48.3542 62.45 47.5842 62.3767 47.1442 62.23C46.7042 62.0833 46.3908 61.8 46.2042 61.38C46.1108 61.1467 46.0175 60.6633 45.9242 59.93C45.8308 59.1967 45.8108 58.7833 45.8642 58.69C45.9175 58.59 45.9642 58.3067 46.0042 57.84C46.0442 57.3733 46.0708 57.06 46.0842 56.9C46.0975 56.74 46.1375 56.59 46.2042 56.45C46.2708 56.31 46.3408 56.2067 46.4142 56.14C46.4875 56.0733 46.6108 56.0133 46.7842 55.96C46.9642 55.9067 47.1475 55.8667 47.3342 55.84C47.5208 55.8133 47.9075 55.7733 48.4942 55.72C49.0808 55.6667 49.4575 55.6133 49.6242 55.56C50.0575 55.4267 50.3708 55.4467 50.5642 55.62C50.6708 55.7133 50.7242 55.8333 50.7242 55.98C50.7242 56.1267 50.6708 56.2533 50.5642 56.36C50.4642 56.4667 50.1808 56.5667 49.7142 56.66C49.2475 56.7533 48.7442 56.82 48.2042 56.86C47.6642 56.9 47.3542 56.9333 47.2742 56.96ZM56.6717 59.34H58.3117C59.2183 59.34 59.7717 59.3667 59.9717 59.42C60.1717 59.4733 60.2717 59.6267 60.2717 59.88C60.2717 60.1333 60.1783 60.2867 59.9917 60.34C59.805 60.3933 59.2583 60.4167 58.3517 60.41H56.6717C56.6717 61.6033 56.6317 62.28 56.5517 62.44C56.4783 62.6 56.3483 62.6933 56.1617 62.72C55.975 62.7467 55.815 62.6967 55.6817 62.57C55.595 62.4833 55.545 62.3133 55.5317 62.06C55.5183 61.8067 55.5283 61.0033 55.5617 59.65C55.595 58.2967 55.6117 57.39 55.6117 56.93C55.605 56.79 55.675 56.6467 55.8217 56.5C55.9683 56.3533 56.105 56.27 56.2317 56.25C56.3583 56.23 56.7217 56.2333 57.3217 56.26C57.9217 56.2867 58.4717 56.36 58.9717 56.48C59.4717 56.6 59.815 56.7367 60.0017 56.89C60.1083 56.9767 60.1617 57.09 60.1617 57.23C60.1617 57.37 60.1083 57.4967 60.0017 57.61C59.895 57.7233 59.7683 57.78 59.6217 57.78C59.475 57.78 59.205 57.7133 58.8117 57.58C58.425 57.4467 57.7117 57.3867 56.6717 57.4V59.34ZM65.0332 56.2C65.1132 56.0267 65.2432 55.94 65.4232 55.94C65.6032 55.94 65.7266 55.96 65.7932 56C65.8599 56.04 65.9132 56.1433 65.9532 56.31C65.9932 56.4767 66.0099 56.7267 66.0032 57.06C65.9899 57.3933 65.9832 57.8433 65.9832 58.41C65.9299 60.15 65.9999 61.2767 66.1932 61.79C66.2332 61.8767 66.1799 62.0067 66.0332 62.18C65.8866 62.3533 65.7599 62.4433 65.6532 62.45C65.5466 62.4433 65.4232 62.3467 65.2832 62.16C65.1432 61.9733 65.0599 61.8067 65.0332 61.66C65.0066 61.5133 64.9866 61.4167 64.9732 61.37C64.9599 61.3233 64.9466 61.2667 64.9332 61.2C64.9199 61.1333 64.9032 61.1 64.8832 61.1C64.8632 61.1 64.8432 61.0933 64.8232 61.08C64.8032 61.0667 64.7666 61.08 64.7132 61.12C64.6599 61.16 64.6199 61.2 64.5932 61.24C64.5532 61.2733 64.4899 61.33 64.4032 61.41C63.9166 61.8633 63.4199 62.04 62.9132 61.94C62.4066 61.84 61.9366 61.4767 61.5032 60.85C61.2299 60.4433 61.0532 60.04 60.9732 59.64C60.8932 59.24 60.8599 58.6333 60.8732 57.82C60.8866 57.0067 60.9032 56.5067 60.9232 56.32C60.9499 56.1333 61.0099 55.9967 61.1032 55.91C61.2432 55.81 61.3332 55.76 61.3732 55.76C61.4132 55.76 61.4999 55.8 61.6332 55.88C61.7666 55.96 61.8532 56.03 61.8932 56.09C61.9332 56.15 61.9499 56.5733 61.9432 57.36C61.9232 58.1467 61.9266 58.6667 61.9532 58.92C61.9799 59.1733 62.0332 59.4233 62.1132 59.67C62.1932 59.9167 62.3599 60.18 62.6132 60.46C62.8532 60.74 63.0399 60.8833 63.1732 60.89C63.3066 60.8833 63.4799 60.7733 63.6932 60.56C63.9066 60.3467 64.0966 60.1033 64.2632 59.83C64.5766 59.3233 64.7766 58.4867 64.8632 57.32C64.8966 56.7467 64.9532 56.3733 65.0332 56.2ZM68.241 56.96C68.161 56.9867 68.121 57.0533 68.121 57.16C68.121 57.2667 68.0776 57.71 67.991 58.49C68.8443 58.43 69.4243 58.38 69.731 58.34C70.0376 58.3 70.231 58.2933 70.311 58.32C70.391 58.3467 70.4976 58.42 70.631 58.54C70.751 58.66 70.811 58.76 70.811 58.84C70.811 58.92 70.7543 59.0233 70.641 59.15C70.521 59.2633 70.381 59.34 70.221 59.38C70.061 59.42 69.721 59.4533 69.201 59.48L68.021 59.55C68.001 59.9567 68.031 60.3267 68.111 60.66C68.191 60.9933 68.3276 61.1867 68.521 61.24C68.7343 61.2933 69.8776 61.3567 71.951 61.43L72.081 61.7C72.141 61.82 72.171 61.9067 72.171 61.96C72.171 62.0133 72.141 62.0833 72.081 62.17C72.021 62.2567 71.9776 62.3133 71.951 62.34C71.9243 62.3667 71.8476 62.39 71.721 62.41C71.5943 62.43 71.4476 62.44 71.281 62.44C71.1143 62.44 70.8276 62.4433 70.421 62.45C69.321 62.45 68.551 62.3767 68.111 62.23C67.671 62.0833 67.3576 61.8 67.171 61.38C67.0776 61.1467 66.9843 60.6633 66.891 59.93C66.7976 59.1967 66.7776 58.7833 66.831 58.69C66.8843 58.59 66.931 58.3067 66.971 57.84C67.011 57.3733 67.0376 57.06 67.051 56.9C67.0643 56.74 67.1043 56.59 67.171 56.45C67.2376 56.31 67.3076 56.2067 67.381 56.14C67.4543 56.0733 67.5776 56.0133 67.751 55.96C67.931 55.9067 68.1143 55.8667 68.301 55.84C68.4876 55.8133 68.8743 55.7733 69.461 55.72C70.0476 55.6667 70.4243 55.6133 70.591 55.56C71.0243 55.4267 71.3376 55.4467 71.531 55.62C71.6376 55.7133 71.691 55.8333 71.691 55.98C71.691 56.1267 71.6376 56.2533 71.531 56.36C71.431 56.4667 71.1476 56.5667 70.681 56.66C70.2143 56.7533 69.711 56.82 69.171 56.86C68.631 56.9 68.321 56.9333 68.241 56.96ZM72.9978 55.91C73.1378 55.81 73.2478 55.76 73.3278 55.76C73.4078 55.76 73.5044 55.8 73.6178 55.88C73.7311 55.96 73.8011 56.0533 73.8278 56.16C73.8544 56.2667 73.8711 56.55 73.8778 57.01C73.8844 57.47 73.9144 58.0867 73.9678 58.86C74.0211 59.6333 74.0878 60.1767 74.1678 60.49C75.8344 60.5367 76.8578 60.5933 77.2378 60.66C77.4711 60.7133 77.6011 60.8667 77.6278 61.12C77.6544 61.3733 77.5578 61.5467 77.3378 61.64C77.1844 61.7067 76.5811 61.7133 75.5278 61.66C74.4744 61.6067 73.8611 61.54 73.6878 61.46C73.3811 61.3067 73.1744 60.9967 73.0678 60.53C72.9611 60.0633 72.8811 59.1467 72.8278 57.78L72.7678 56.07L72.9978 55.91Z" fill="#FF414E"/>
</svg>
