<svg width="98" height="77" viewBox="0 0 98 77" fill="none" xmlns="http://www.w3.org/2000/svg">
<circle cx="33" cy="44" r="33" fill="#FFBF20"/>
<path d="M39.0307 37.2162L87.8605 43.2822L87.3374 42.6136L39.2667 36.6391L39.0307 37.2162ZM38.3211 38.9737L87.537 45.0948L89.0976 44.8728L88.9329 44.6572L38.5615 38.3908L38.3255 38.9679L38.3211 38.9737ZM40.4602 33.6999L84.6754 39.1993L84.1566 38.5249L40.6962 33.1228L40.4645 33.6941L40.4602 33.6999ZM39.7461 35.4631L86.2665 41.2487L85.7433 40.5801L39.9778 34.8918L39.7418 35.4689L39.7461 35.4631ZM41.1756 31.9469L83.0799 37.1556L82.5567 36.487L41.4058 31.3654L41.1698 31.9425L41.1756 31.9469ZM42.6007 28.4364L79.8947 33.0727L79.3716 32.4041L42.8323 27.8651L42.5963 28.4422L42.6007 28.4364ZM41.8852 30.1894L81.4888 35.1061L80.9657 34.4375L42.1213 29.6123L41.8852 30.1894ZM35.468 46.0106L59.4902 48.9971L60.9288 48.792L61.7889 48.6777L35.704 45.4335L35.468 46.0106ZM34.7482 47.7694L52.4676 49.978L54.7707 49.6528L34.9842 47.1924L34.7482 47.7694ZM34.0385 49.5269L45.4538 50.9474L47.7583 50.6324L34.2746 48.9498L34.0429 49.5211L34.0385 49.5269ZM33.3187 51.2857L38.4356 51.9226L40.7343 51.6032L33.5504 50.7144L33.3187 51.2857ZM36.1732 44.259L66.4939 48.0291L68.7926 47.7097L36.4093 43.6818L36.1732 44.259ZM36.893 42.5001L73.5121 47.0539L75.8109 46.7345L37.1291 41.923L36.893 42.5001ZM37.6128 40.7413L80.5304 46.0788L82.8349 45.7637L37.8547 40.1685L37.6186 40.7456L37.6128 40.7413ZM43.4524 26.3585L43.3205 26.6775L78.3094 31.0276L77.7863 30.359L43.5521 26.1062L43.448 26.3643L43.4524 26.3585ZM32.7454 52.7184L33.732 52.5813L32.8465 52.4762L32.741 52.7242L32.7454 52.7184ZM51.2053 7.24146L60.7059 8.42515L60.1814 7.74639L51.4414 6.66435L51.2097 7.23566L51.2053 7.24146ZM51.9207 5.48838L59.1047 6.37713L58.5815 5.70851L52.1466 4.91269L51.9164 5.49418L51.9207 5.48838ZM50.4957 8.99889L62.3014 10.4688L61.7724 9.79584L50.7317 8.42178L50.4957 8.99889ZM55.9297 2.29277L55.4065 1.62418L53.5804 1.39062L53.3488 1.96193L55.9239 2.28839L55.9297 2.29277ZM54.0642 0.208874L54.3328 0.238951L54.1493 6.69202e-05L54.0686 0.203077L54.0642 0.208874ZM49.7377 10.8563L63.9749 12.6261L63.4517 11.9574L49.9694 10.285L49.7377 10.8563ZM52.6348 3.72516L57.5135 4.32768L56.9962 3.66345L52.8708 3.14807L52.6348 3.72516ZM44.0301 24.9201L76.714 28.9839L76.1952 28.3095L44.2661 24.343L44.0301 24.9201ZM46.1692 19.6464L71.9377 22.8515L71.4145 22.1829L46.4008 19.075L46.1648 19.6521L46.1692 19.6464ZM45.4552 21.4096L73.5274 24.8908L73.0042 24.2222L45.6854 20.8281L45.4552 21.4096ZM44.7398 23.1626L75.1185 26.9403L74.5953 26.2717L44.9714 22.5913L44.7354 23.1684L44.7398 23.1626ZM48.3039 14.3784L67.1556 16.7148L66.6325 16.0462L48.5443 13.7955L48.3039 14.3784ZM49.0179 12.6152L65.5645 14.6653L65.0414 13.9967L49.254 12.0381L49.0237 12.6196L49.0179 12.6152ZM47.5929 16.1257L68.7409 18.7599L68.2222 18.0855L47.8289 15.5486L47.5929 16.1257ZM46.873 17.8845L70.3364 20.8035L69.8133 20.1349L47.1091 17.3074L46.873 17.8845Z" fill="url(#paint0_linear_118_4250)"/>
<path d="M15.6923 53.3845C15.5087 53.3845 15.3326 53.3116 15.2028 53.1817C15.0729 53.0519 15 52.8758 15 52.6922V51.3076C15 48.6353 17.1745 46.4614 19.8462 46.4614H23.3077C23.4913 46.4614 23.6674 46.5344 23.7972 46.6642C23.9271 46.794 24 46.9701 24 47.1537C24 47.3373 23.9271 47.5134 23.7972 47.6433C23.6674 47.7731 23.4913 47.846 23.3077 47.846H19.8462C17.9375 47.846 16.3846 49.3989 16.3846 51.3076V52.6922C16.3846 52.8758 16.3117 53.0519 16.1818 53.1817C16.052 53.3116 15.8759 53.3845 15.6923 53.3845Z" fill="#00A0C8"/>
<path d="M35.0771 25H33.6925C32.7744 25 31.894 25.3647 31.2448 26.0139C30.5957 26.663 30.231 27.5435 30.231 28.4615V36.7692C30.231 36.9528 30.3039 37.1289 30.4337 37.2588C30.5636 37.3886 30.7397 37.4615 30.9233 37.4615H37.8463C38.03 37.4615 38.206 37.3886 38.3359 37.2588C38.4657 37.1289 38.5386 36.9528 38.5386 36.7692V28.4615C38.5386 27.5435 38.174 26.663 37.5248 26.0139C36.8756 25.3647 35.9952 25 35.0771 25Z" fill="#C80A50"/>
<path d="M39.9231 44.3847H28.8462V37.4616C28.8462 36.7272 29.1379 36.0228 29.6573 35.5035C30.1766 34.9841 30.881 34.6924 31.6154 34.6924H37.1539C37.8883 34.6924 38.5927 34.9841 39.112 35.5035C39.6314 36.0228 39.9231 36.7272 39.9231 37.4616V44.3847Z" fill="#C80A50"/>
<path d="M32.3077 38.1539V34.6924H31.6154C30.881 34.6924 30.1766 34.9841 29.6573 35.5035C29.1379 36.0228 28.8462 36.7272 28.8462 37.4616V44.3847H35.077V43.6924C35.077 43.1415 34.8581 42.6133 34.4686 42.2238C34.0791 41.8343 33.5509 41.6155 33 41.6155H30.9231V40.1125C31.3281 39.9692 31.6786 39.7039 31.9266 39.3532C32.1746 39.0024 32.3077 38.5835 32.3077 38.1539Z" fill="#A00028"/>
<path d="M31.6152 34.6924C31.6152 35.4268 31.907 36.1312 32.4263 36.6505C32.9457 37.1699 33.65 37.4616 34.3845 37.4616C35.1189 37.4616 35.8233 37.1699 36.3426 36.6505C36.8619 36.1312 37.1537 35.4268 37.1537 34.6924H31.6152Z" fill="#00A0C8"/>
<path d="M32.3075 36.5235V34.6924H31.6152C31.6152 35.3944 31.8769 36.0355 32.3075 36.5235Z" fill="#0082AA"/>
<path d="M34.3846 36.077C34.0174 36.077 33.6652 35.9311 33.4055 35.6715C33.1459 35.4118 33 35.0596 33 34.6924V32.6155H35.7692V34.6924C35.7692 35.0596 35.6234 35.4118 35.3637 35.6715C35.104 35.9311 34.7518 36.077 34.3846 36.077Z" fill="#D2AA82"/>
<path d="M35.0768 33.3077H33.6922C33.1413 33.3077 32.613 33.0889 32.2236 32.6994C31.8341 32.3099 31.6152 31.7817 31.6152 31.2308V29.1539C31.6152 28.7867 31.7611 28.4345 32.0208 28.1748C32.2804 27.9152 32.6326 27.7693 32.9998 27.7693H33.6922C33.6922 28.1365 33.838 28.4887 34.0977 28.7484C34.3574 29.008 34.7096 29.1539 35.0768 29.1539H37.1537V31.2308C37.1537 31.7817 36.9349 32.3099 36.5454 32.6994C36.1559 33.0889 35.6276 33.3077 35.0768 33.3077Z" fill="#F0C8A0"/>
<path d="M34.3845 49.9232H23.3076V43.6924C23.3076 43.1416 23.5264 42.6133 23.9159 42.2238C24.3054 41.8343 24.8337 41.6155 25.3845 41.6155H32.3076C32.8585 41.6155 33.3867 41.8343 33.7762 42.2238C34.1657 42.6133 34.3845 43.1416 34.3845 43.6924V49.9232Z" fill="#FAB400"/>
<path d="M26.0771 41.6155C26.0771 42.3499 26.3689 43.0543 26.8882 43.5736C27.4076 44.093 28.1119 44.3847 28.8464 44.3847C29.5808 44.3847 30.2852 44.093 30.8045 43.5736C31.3239 43.0543 31.6156 42.3499 31.6156 41.6155H26.0771Z" fill="#00A0C8"/>
<path d="M28.846 43.0001C28.4788 43.0001 28.1266 42.8542 27.867 42.5946C27.6073 42.3349 27.4614 41.9827 27.4614 41.6155V39.5386H30.2307V41.6155C30.2307 41.9827 30.0848 42.3349 29.8251 42.5946C29.5654 42.8542 29.2133 43.0001 28.846 43.0001Z" fill="#D2AA82"/>
<path d="M29.5387 40.2308H28.1541C27.6032 40.2308 27.075 40.012 26.6855 39.6225C26.296 39.233 26.0771 38.7048 26.0771 38.1539V36.077C26.0771 35.7098 26.223 35.3576 26.4827 35.0979C26.7424 34.8383 27.0945 34.6924 27.4618 34.6924H30.231C30.5982 34.6924 30.9504 34.8383 31.2101 35.0979C31.4697 35.3576 31.6156 35.7098 31.6156 36.077V38.1539C31.6156 38.7048 31.3968 39.233 31.0073 39.6225C30.6178 40.012 30.0895 40.2308 29.5387 40.2308Z" fill="#F0C8A0"/>
<path d="M30.231 34.6922H27.4618C27.0945 34.6922 26.7424 34.8381 26.4827 35.0978C26.223 35.3574 26.0771 35.7096 26.0771 36.0768V34.6922C26.0771 34.325 26.223 33.9728 26.4827 33.7132C26.7424 33.4535 27.0945 33.3076 27.4618 33.3076H30.231C30.5982 33.3076 30.9504 33.4535 31.2101 33.7132C31.4697 33.9728 31.6156 34.325 31.6156 34.6922V36.0768C31.6156 35.7096 31.4697 35.3574 31.2101 35.0978C30.9504 34.8381 30.5982 34.6922 30.231 34.6922Z" fill="#0A5078"/>
<path d="M45.4617 49.9229H34.3848V43.6922C34.3848 43.1413 34.6036 42.613 34.9931 42.2236C35.3826 41.8341 35.9109 41.6152 36.4617 41.6152H43.3848C43.9356 41.6152 44.4639 41.8341 44.8534 42.2236C45.2429 42.613 45.4617 43.1413 45.4617 43.6922V49.9229Z" fill="#00A0C8"/>
<path d="M37.1538 41.6152C37.1538 42.3497 37.4456 43.054 37.9649 43.5734C38.4842 44.0927 39.1886 44.3845 39.923 44.3845C40.6575 44.3845 41.3618 44.0927 41.8812 43.5734C42.4005 43.054 42.6923 42.3497 42.6923 41.6152H37.1538Z" fill="#0A5078"/>
<path d="M34.7309 42.5444C34.5046 42.8844 34.3841 43.2839 34.3848 43.6923V49.923H35.0771V43.6923C35.0771 43.2679 34.9497 42.8733 34.7309 42.5444Z" fill="#0082AA"/>
<path d="M39.9232 42.9999C39.556 42.9999 39.2038 42.854 38.9441 42.5943C38.6845 42.3347 38.5386 41.9825 38.5386 41.6153V39.5383H41.3078V41.6153C41.3078 41.9825 41.1619 42.3347 40.9023 42.5943C40.6426 42.854 40.2904 42.9999 39.9232 42.9999Z" fill="#D2AA82"/>
<path d="M40.6153 40.2306H39.2307C38.6799 40.2306 38.1516 40.0118 37.7621 39.6223C37.3726 39.2328 37.1538 38.7045 37.1538 38.1537V36.0768C37.1538 35.7095 37.2997 35.3573 37.5594 35.0977C37.819 34.838 38.1712 34.6921 38.5384 34.6921H41.3077C41.6749 34.6921 42.0271 34.838 42.2867 35.0977C42.5464 35.3573 42.6923 35.7095 42.6923 36.0768V38.1537C42.6923 38.7045 42.4735 39.2328 42.084 39.6223C41.6945 40.0118 41.1662 40.2306 40.6153 40.2306Z" fill="#F0C8A0"/>
<path d="M41.3077 34.6922H38.5384C38.1712 34.6922 37.819 34.8381 37.5594 35.0978C37.2997 35.3574 37.1538 35.7096 37.1538 36.0768V34.6922C37.1538 34.325 37.2997 33.9728 37.5594 33.7132C37.819 33.4535 38.1712 33.3076 38.5384 33.3076H41.3077C41.6749 33.3076 42.0271 33.4535 42.2867 33.7132C42.5464 33.9728 42.6923 34.325 42.6923 34.6922V36.0768C42.6923 35.7096 42.5464 35.3574 42.2867 35.0978C42.0271 34.8381 41.6749 34.6922 41.3077 34.6922Z" fill="#DC9600"/>
<path d="M30.2308 52.6924C29.8487 52.6924 29.5025 52.8475 29.2519 53.0981L25.0981 57.2519C24.9693 57.3803 24.8672 57.5329 24.7976 57.7009C24.7279 57.8689 24.6922 58.049 24.6924 58.2308C24.6924 58.613 24.8475 58.9592 25.0981 59.2098L29.2519 63.3636C29.5025 63.6142 29.8487 63.7693 30.2308 63.7693H49.6155C49.9827 63.7693 50.3349 63.6234 50.5945 63.3638C50.8542 63.1041 51.0001 62.7519 51.0001 62.3847V54.077C51.0001 53.7098 50.8542 53.3576 50.5945 53.0979C50.3349 52.8383 49.9827 52.6924 49.6155 52.6924H30.2308Z" fill="#C80A50"/>
<path d="M25.5038 59.6153H27.4616C27.6452 59.6153 27.8213 59.5424 27.9511 59.4126C28.081 59.2827 28.1539 59.1066 28.1539 58.923C28.1539 58.7394 28.081 58.5633 27.9511 58.4335C27.8213 58.3037 27.6452 58.2307 27.4616 58.2307H24.6924C24.6924 58.6129 24.8475 58.959 25.0981 59.2096L25.5038 59.6153Z" fill="#A00028"/>
<path d="M27.4615 58.9231H19.8462C17.1745 58.9231 15 56.7492 15 54.0769V52.6923C15 52.5087 15.0729 52.3326 15.2028 52.2028C15.3326 52.0729 15.5087 52 15.6923 52C15.8759 52 16.052 52.0729 16.1818 52.2028C16.3117 52.3326 16.3846 52.5087 16.3846 52.6923V54.0769C16.3846 55.9856 17.9375 57.5385 19.8462 57.5385H27.4615C27.6451 57.5385 27.8212 57.6114 27.9511 57.7412C28.0809 57.8711 28.1538 58.0472 28.1538 58.2308C28.1538 58.4144 28.0809 58.5905 27.9511 58.7203C27.8212 58.8501 27.6451 58.9231 27.4615 58.9231Z" fill="#00A0C8"/>
<path d="M45.4617 58.9232H44.0771C43.8935 58.9232 43.7174 58.8503 43.5875 58.7204C43.4577 58.5906 43.3848 58.4145 43.3848 58.2309C43.3848 58.0473 43.4577 57.8712 43.5875 57.7413C43.7174 57.6115 43.8935 57.5386 44.0771 57.5386H45.4617C45.6453 57.5386 45.8214 57.6115 45.9512 57.7413C46.0811 57.8712 46.154 58.0473 46.154 58.2309C46.154 58.4145 46.0811 58.5906 45.9512 58.7204C45.8214 58.8503 45.6453 58.9232 45.4617 58.9232Z" fill="#A00028"/>
<path d="M32.9998 58.9232H31.6152C31.4315 58.9232 31.2555 58.8503 31.1256 58.7204C30.9958 58.5906 30.9229 58.4145 30.9229 58.2309C30.9229 58.0473 30.9958 57.8712 31.1256 57.7413C31.2555 57.6115 31.4315 57.5386 31.6152 57.5386H32.9998C33.1834 57.5386 33.3595 57.6115 33.4893 57.7413C33.6191 57.8712 33.6921 58.0473 33.6921 58.2309C33.6921 58.4145 33.6191 58.5906 33.4893 58.7204C33.3595 58.8503 33.1834 58.9232 32.9998 58.9232Z" fill="#A00028"/>
<path d="M22.6152 46.4614H23.3075V47.846H22.6152V46.4614Z" fill="#0082AA"/>
<path d="M36.1156 56.8462C36.6891 56.8462 37.1541 56.3813 37.1541 55.8077C37.1541 55.2342 36.6891 54.7693 36.1156 54.7693C35.5421 54.7693 35.0771 55.2342 35.0771 55.8077C35.0771 56.3813 35.5421 56.8462 36.1156 56.8462Z" fill="#FAB400"/>
<path d="M40.9618 61.6924C41.5353 61.6924 42.0003 61.2275 42.0003 60.6539C42.0003 60.0804 41.5353 59.6155 40.9618 59.6155C40.3883 59.6155 39.9233 60.0804 39.9233 60.6539C39.9233 61.2275 40.3883 61.6924 40.9618 61.6924Z" fill="#FAB400"/>
<path d="M35.7693 61.6925C35.6323 61.6928 35.4982 61.6524 35.3842 61.5764C35.2701 61.5003 35.1813 61.3922 35.1288 61.2655C35.0764 61.1389 35.0627 60.9996 35.0896 60.8652C35.1165 60.7308 35.1827 60.6074 35.2799 60.5107L40.8183 54.9723C40.9481 54.8425 41.1242 54.7695 41.3078 54.7695C41.4914 54.7695 41.6674 54.8425 41.7972 54.9723C41.9271 55.1021 42 55.2781 42 55.4617C42 55.6453 41.9271 55.8214 41.7972 55.9512L36.2588 61.4897C36.1946 61.554 36.1183 61.6051 36.0343 61.6399C35.9503 61.6747 35.8602 61.6926 35.7693 61.6925Z" fill="#FAB400"/>
<defs>
<linearGradient id="paint0_linear_118_4250" x1="69.543" y1="60.1846" x2="34.5867" y2="15.2981" gradientUnits="userSpaceOnUse">
<stop stop-color="#FFE033"/>
<stop offset="1" stop-color="#FFE033"/>
</linearGradient>
</defs>
</svg>
