<svg width="87" height="79" viewBox="0 0 87 79" fill="none" xmlns="http://www.w3.org/2000/svg">
<circle cx="33" cy="33" r="33" fill="#FFBF20"/>
<path d="M46.0727 25.8548L60.1088 73.0155L60.5113 72.2681L46.696 25.8394L46.0727 25.8548ZM44.1782 25.9099L58.3186 73.4465L59.1482 74.7869L59.2795 74.5495L44.8086 25.8963L44.1853 25.9116L44.1782 25.9099ZM49.8671 25.7533L62.5706 68.4598L62.9802 67.714L50.4904 25.7379L49.8742 25.7549L49.8671 25.7533ZM47.9655 25.8067L61.3318 70.7395L61.7343 69.992L48.5818 25.7897L47.9585 25.805L47.9655 25.8067ZM51.7599 25.7052L63.8024 66.1784L64.2049 65.4309L52.3849 25.6828L51.7616 25.6981L51.7599 25.7052ZM55.5472 25.602L66.2643 61.6226L66.6668 60.8752L56.1635 25.5849L55.5402 25.6003L55.5472 25.602ZM53.6544 25.65L65.0412 63.8987L65.4438 63.1512L54.2777 25.6347L53.6544 25.65ZM36.5878 26.12L43.4909 49.3221L44.2559 50.5575L44.7058 51.2995L37.2111 26.1047L36.5878 26.12ZM34.6879 26.1664L39.7746 43.2832L40.9966 45.2623L35.3112 26.1511L34.6879 26.1664ZM32.7934 26.2216L36.0725 37.2476L37.2857 39.2321L33.4167 26.2062L32.8005 26.2233L32.7934 26.2216ZM30.8935 26.268L32.3633 31.2104L33.5782 33.1878L31.5098 26.2509L30.8935 26.268ZM38.4752 26.0632L47.1876 55.3489L48.4025 57.3263L39.0985 26.0479L38.4752 26.0632ZM40.3751 26.0168L50.8968 61.3861L52.1117 63.3635L40.9984 26.0015L40.3751 26.0168ZM42.275 25.9704L54.606 67.4234L55.8193 69.4079L42.8966 25.9622L42.2733 25.9775L42.275 25.9704ZM57.7922 25.5484L57.4471 25.5556L67.5014 59.35L67.9039 58.6025L58.0634 25.5385L57.7852 25.5467L57.7922 25.5484ZM29.3512 26.3176L29.8727 27.1664L29.6136 26.3131L29.3442 26.316L29.3512 26.3176ZM78.4137 24.9794L81.1415 34.1567L81.5527 33.4038L79.037 24.9641L78.4208 24.9811L78.4137 24.9794ZM80.3066 24.9313L82.3749 31.8682L82.7775 31.1207L80.9245 24.9072L80.2995 24.9297L80.3066 24.9313ZM76.5192 25.0346L79.9097 36.4381L80.3139 35.6835L77.1426 25.0192L76.5192 25.0346ZM84.8422 27.3212L85.2447 26.5737L84.7259 24.8074L84.1097 24.8245L84.8439 27.3141L84.8422 27.3212ZM86.0025 24.7764L86.0827 25.0344L86.2279 24.7705L86.0096 24.7781L86.0025 24.7764ZM74.5137 25.0856L78.6052 38.8365L79.0077 38.089L75.13 25.0685L74.5137 25.0856ZM82.2081 24.8779L83.6138 29.5885L84.0146 28.8481L82.8314 24.8625L82.2081 24.8779ZM59.3416 25.5004L68.7332 57.0686L69.1428 56.3228L59.9649 25.4851L59.3416 25.5004ZM65.0305 25.3438L72.4339 50.2331L72.8364 49.4856L65.6467 25.3267L65.0234 25.3421L65.0305 25.3438ZM63.1289 25.3972L71.2038 52.5074L71.6063 51.76L63.7539 25.3748L63.1289 25.3972ZM61.2361 25.4453L69.965 54.7871L70.3675 54.0397L61.8524 25.4283L61.229 25.4436L61.2361 25.4453ZM70.7123 25.1854L76.1363 43.3906L76.5388 42.6431L71.3427 25.1718L70.7123 25.1854ZM72.6138 25.132L77.3751 41.1108L77.7776 40.3634L73.2372 25.1166L72.6122 25.139L72.6138 25.132ZM68.8266 25.2352L74.8991 45.6632L75.3087 44.9174L69.4499 25.2198L68.8266 25.2352ZM66.9267 25.2816L73.6674 47.9446L74.0699 47.1972L67.55 25.2662L66.9267 25.2816Z" fill="url(#paint0_linear_118_4249)"/>
<path fill-rule="evenodd" clip-rule="evenodd" d="M28.5864 15H37.2503C37.4188 15 37.5555 15.1367 37.5555 15.3053V26.3591C37.5555 26.3992 37.5476 26.4389 37.5323 26.4759C37.517 26.513 37.4945 26.5466 37.4661 26.575C37.4378 26.6033 37.4041 26.6258 37.3671 26.6412C37.3301 26.6565 37.2904 26.6644 37.2503 26.6644H33.2916V30.7226H46.437C46.6431 30.7226 46.8103 30.8897 46.8103 31.0958V34.9089H48.2255L46.3629 36.7714L44.5003 34.9089H46.0637V31.4691H33.2916V34.9089H34.7809L32.9184 36.7714L31.0558 34.9089H32.5451V31.4691H20.0144V34.9089H21.4998L19.6372 36.7714L17.7746 34.9089H19.2679V31.0958C19.2679 30.8897 19.4351 30.7225 19.6412 30.7225H32.5451V26.6644H28.5865C28.4179 26.6644 28.2813 26.5277 28.2813 26.3591V15.3053C28.2813 15.1367 28.4179 15 28.5865 15L28.5864 15ZM39.0725 42.7387L40.9351 44.6013L39.0725 46.4638V44.9745H37.9253V44.228H39.0725V42.7387ZM42.0309 38.7691H50.6948C50.8634 38.7691 51 38.9057 51 39.0743V50.1282C51 50.2967 50.8634 50.4335 50.6948 50.4335H42.0309C41.8623 50.4335 41.7256 50.2967 41.7256 50.1282V39.0743C41.7256 39.0342 41.7335 38.9945 41.7489 38.9575C41.7642 38.9205 41.7867 38.8868 41.8151 38.8585C41.8434 38.8301 41.8771 38.8076 41.9141 38.7923C41.9511 38.777 41.9908 38.7691 42.0309 38.7691ZM28.5864 38.7691H37.2502C37.2903 38.7691 37.33 38.777 37.367 38.7923C37.4041 38.8076 37.4377 38.8301 37.4661 38.8585C37.4944 38.8868 37.5169 38.9205 37.5322 38.9575C37.5476 38.9945 37.5555 39.0342 37.5555 39.0743V50.1282C37.5555 50.2967 37.4188 50.4335 37.2502 50.4335H28.5864C28.4178 50.4335 28.2811 50.2967 28.2811 50.1282V39.0743C28.2811 39.0342 28.289 38.9945 28.3044 38.9575C28.3197 38.9205 28.3422 38.8868 28.3705 38.8585C28.3989 38.8301 28.4326 38.8076 28.4696 38.7923C28.5066 38.777 28.5463 38.7691 28.5864 38.7691ZM25.9322 42.7387L27.7947 44.6013L25.9322 46.4638V44.9745H24.7849V44.228H25.9322V42.7387ZM15.3052 38.7691H23.9691C24.05 38.7691 24.1277 38.8012 24.1849 38.8585C24.2422 38.9157 24.2743 38.9934 24.2743 39.0743V50.1282C24.2743 50.2967 24.1377 50.4335 23.9691 50.4335H15.3052C15.1366 50.4335 15 50.2967 15 50.1282V39.0743C15 38.9057 15.1366 38.7691 15.3052 38.7691Z" fill="#E0E0E0"/>
<path fill-rule="evenodd" clip-rule="evenodd" d="M42.0308 38.7693H50.6947C50.8632 38.7693 50.9999 38.906 50.9999 39.0745V50.1284C50.9999 50.297 50.8632 50.4336 50.6947 50.4336H42.0308C41.8623 50.4336 41.7256 50.297 41.7256 50.1284V39.0745C41.7256 38.9936 41.7577 38.9159 41.815 38.8587C41.8722 38.8014 41.9499 38.7693 42.0308 38.7693Z" fill="#EF5350"/>
<path fill-rule="evenodd" clip-rule="evenodd" d="M43.085 48.3291H49.6402V48.9395H43.085V48.3291ZM43.085 46.8354H49.6402V47.4458H43.085V46.8354ZM43.085 45.3414H49.6402V45.9521H43.085V45.3414ZM43.085 43.8477H49.6402V44.4584H43.085V43.8477ZM43.085 40.8604H46.8479V41.4707H43.085V40.8604ZM43.085 42.354H49.6402V42.9644H43.085V42.354Z" fill="#CE3330"/>
<defs>
<linearGradient id="paint0_linear_118_4249" x1="37.2769" y1="63.0191" x2="64.366" y2="12.9898" gradientUnits="userSpaceOnUse">
<stop stop-color="#FFE033"/>
<stop offset="1" stop-color="#FFE033"/>
</linearGradient>
</defs>
</svg>
