<svg width="91" height="66" viewBox="0 0 91 66" fill="none" xmlns="http://www.w3.org/2000/svg">
<circle cx="33" cy="33" r="33" fill="#FFBF20"/>
<path d="M50.8251 14.4651L68.1026 60.5372L68.4523 59.7636L51.4458 14.4065L50.8251 14.4651ZM48.939 14.6517L66.3467 61.0914L67.2673 62.3709L67.3819 62.125L49.5669 14.5943L48.9462 14.6529L48.939 14.6517ZM54.6032 14.1003L70.2421 55.8214L70.5989 55.049L55.224 14.0417L54.6104 14.1015L54.6032 14.1003ZM52.71 14.2857L69.1646 58.1817L69.5143 57.4081L53.3236 14.2259L52.7028 14.2845L52.71 14.2857ZM56.4881 13.9209L71.3125 53.46L71.6621 52.6864L57.1101 13.8551L56.4893 13.9137L56.4881 13.9209ZM60.2591 13.5549L73.452 48.7443L73.8016 47.9707L60.8727 13.4951L60.252 13.5537L60.2591 13.5549ZM58.3743 13.7343L72.39 51.0997L72.7396 50.3261L58.995 13.6757L58.3743 13.7343ZM41.3815 15.3885L49.8793 38.0551L50.7283 39.2343L51.2286 39.9433L42.0022 15.3299L41.3815 15.3885ZM39.4894 15.5667L45.7526 32.2888L47.1091 34.1783L40.1101 15.5081L39.4894 15.5667ZM37.6033 15.7533L41.6402 26.525L42.9883 28.4204L38.2241 15.6947L37.6105 15.7545L37.6033 15.7533ZM35.7112 15.9315L37.5207 20.7599L38.87 22.6482L36.3248 15.8717L35.7112 15.9315ZM43.2604 15.2007L53.9857 43.8106L55.335 45.6988L43.8812 15.1421L43.2604 15.2007ZM45.1525 15.0225L58.1053 49.5756L59.4546 51.4639L45.7732 14.9639L45.1525 15.0225ZM47.0445 14.8443L62.2248 55.3407L63.5729 57.2361L47.6641 14.7928L47.0433 14.8514L47.0445 14.8443ZM62.495 13.3456L62.1512 13.3767L74.5283 46.3912L74.878 45.6176L62.7648 13.3169L62.4879 13.3444L62.495 13.3456ZM34.1761 16.0882L34.7552 16.8986L34.4375 16.0655L34.1689 16.087L34.1761 16.0882ZM83.0272 11.3457L86.3858 20.3114L86.7437 19.5318L83.648 11.2871L83.0344 11.3469L83.0272 11.3457ZM84.9121 11.1663L87.4573 17.9428L87.8069 17.1692L85.5269 11.0993L84.905 11.1651L84.9121 11.1663ZM81.1411 11.5323L85.3154 22.6728L85.6662 21.892L81.7619 11.4737L81.1411 11.5323ZM89.6028 13.2354L89.9524 12.4618L89.3122 10.7357L88.6986 10.7956L89.604 13.2282L89.6028 13.2354ZM90.5835 10.6161L90.6815 10.868L90.808 10.5946L90.5907 10.6173L90.5835 10.6161ZM79.144 11.7225L84.1806 25.1561L84.5302 24.3824L79.7576 11.6627L79.144 11.7225ZM86.8054 10.9809L88.5348 15.5825L88.8832 14.8161L87.4261 10.9223L86.8054 10.9809ZM64.0373 13.1901L75.5987 44.0297L75.9555 43.2573L64.6581 13.1315L64.0373 13.1901ZM69.7016 12.6387L78.8157 36.9537L79.1653 36.1801L70.3152 12.5789L69.6944 12.6375L69.7016 12.6387ZM67.8083 12.8241L77.7466 39.308L78.0962 38.5344L68.4303 12.7583L67.8083 12.8241ZM65.9234 13.0035L76.669 41.6683L77.0187 40.8947L66.537 12.9437L65.9162 13.0023L65.9234 13.0035ZM75.3587 12.0861L82.0339 29.8706L82.3835 29.097L75.9866 12.0287L75.3587 12.0861ZM77.2519 11.9007L83.1114 27.5103L83.4611 26.7367L77.8727 11.8421L77.2507 11.9079L77.2519 11.9007ZM73.4809 12.2667L80.9576 32.2237L81.3144 31.4513L74.1017 12.2081L73.4809 12.2667ZM71.5889 12.445L79.8873 34.5851L80.2369 33.8115L72.2096 12.3863L71.5889 12.445Z" fill="url(#paint0_linear_118_4252)"/>
<path d="M33.147 52.2171C33.0421 52.2171 32.9371 52.2171 32.8322 52.2119L32.8532 51.1626C32.9529 51.1626 33.0526 51.1679 33.147 51.1679C33.3883 51.1679 33.6297 51.1626 33.871 51.1521L33.9182 52.2014C33.6611 52.2119 33.4041 52.2171 33.147 52.2171ZM31.7515 52.1646C31.3947 52.1384 31.0275 52.0964 30.676 52.044L30.8229 51.0052C31.1587 51.0524 31.4997 51.0892 31.8354 51.1154L31.7515 52.1646ZM34.9937 52.1227L34.8835 51.0787C35.2193 51.0419 35.5603 50.9947 35.8908 50.937L36.0692 51.9705C35.7124 52.0335 35.3557 52.0807 34.9937 52.1227ZM29.6058 51.8551C29.2542 51.7817 28.8975 51.6977 28.5512 51.6033L28.8293 50.5908C29.1546 50.6799 29.4851 50.7586 29.8208 50.8268L29.6058 51.8551ZM37.1289 51.7554L36.8876 50.7324C37.2181 50.6537 37.5486 50.5645 37.8686 50.4648L38.1729 51.4669C37.8319 51.5771 37.4804 51.6715 37.1289 51.7554ZM27.5177 51.2833C27.1767 51.1679 26.8357 51.0367 26.5052 50.895L26.9092 49.9245C27.2239 50.0556 27.544 50.1763 27.864 50.2865L27.5177 51.2833ZM39.2012 51.1259L38.834 50.1448C39.1487 50.0242 39.4635 49.8982 39.773 49.7566L40.2032 50.7114C39.878 50.8583 39.5422 50.9947 39.2012 51.1259ZM25.5136 50.4439C25.1884 50.2865 24.8684 50.1133 24.5536 49.935L25.0782 49.0274C25.372 49.1952 25.6763 49.3579 25.9753 49.5048L25.5136 50.4439ZM41.1791 50.234L40.6911 49.3054C40.9902 49.148 41.2892 48.9802 41.5778 48.8018L42.1234 49.6989C41.8139 49.8878 41.4938 50.0714 41.1791 50.234ZM23.6302 49.3684C23.3312 49.169 23.0322 48.9592 22.7436 48.7441L23.3784 47.9047C23.646 48.1093 23.9293 48.3086 24.2126 48.4922L23.6302 49.3684ZM43.0257 49.1061L42.4224 48.2457C42.7005 48.0516 42.9733 47.847 43.2356 47.6371L43.8914 48.4555C43.6133 48.6864 43.3195 48.9015 43.0257 49.1061ZM21.9042 48.0568C21.6314 47.8207 21.3638 47.5741 21.1068 47.3276L21.8412 46.5774C22.0826 46.8134 22.3344 47.0443 22.5915 47.2646L21.9042 48.0568ZM44.7203 47.7578L44.0173 46.9813C44.2691 46.7557 44.5157 46.5144 44.7518 46.2731L45.502 47.0075C45.2502 47.2646 44.9879 47.5164 44.7203 47.7578ZM20.3513 46.5459C20.11 46.2783 19.8739 46.0003 19.6483 45.7222L20.4667 45.0664C20.6766 45.3287 20.8969 45.591 21.1278 45.8429L20.3513 46.5459ZM46.2312 46.2049L45.4338 45.5228C45.6541 45.2658 45.8692 44.9982 46.0738 44.7307L46.908 45.3655C46.6929 45.6488 46.4673 45.9321 46.2312 46.2049ZM18.9978 44.8566C18.7932 44.5628 18.5938 44.2585 18.4049 43.949L19.302 43.4033C19.4804 43.6919 19.664 43.9804 19.8582 44.2532L18.9978 44.8566ZM47.5375 44.4788L46.6614 43.9017C46.8503 43.6184 47.0287 43.3299 47.1965 43.0361L48.1041 43.5607C47.931 43.865 47.7369 44.1798 47.5375 44.4788ZM17.8698 43.0099C17.7019 42.6899 17.5445 42.3646 17.3924 42.0393L18.3472 41.6091C18.4836 41.9186 18.6358 42.2229 18.7932 42.522L17.8698 43.0099ZM48.6183 42.5954L47.6792 42.1285C47.8313 41.8242 47.973 41.5147 48.0989 41.1999L49.0695 41.6039C48.9331 41.9449 48.7809 42.2754 48.6183 42.5954ZM16.9832 41.032C16.8573 40.6963 16.7366 40.35 16.6317 40.0038L17.6337 39.6995C17.7334 40.0247 17.8436 40.3448 17.9642 40.6648L16.9832 41.032ZM49.4577 40.5966L48.4661 40.2556C48.5763 39.9356 48.676 39.6103 48.7652 39.285L49.7777 39.5631C49.6833 39.9093 49.5731 40.2556 49.4577 40.5966ZM16.3484 38.9597C16.2645 38.6082 16.191 38.2515 16.1333 37.9L17.1668 37.7216C17.2245 38.0521 17.2927 38.3879 17.3714 38.7184L16.3484 38.9597ZM50.0295 38.5033L49.0013 38.2882C49.0695 37.9577 49.1272 37.6219 49.1796 37.2862L50.2184 37.4331C50.1712 37.7951 50.103 38.1518 50.0295 38.5033ZM15.9812 36.8245C15.9444 36.4678 15.913 36.1058 15.8972 35.7438L16.9465 35.6966C16.9622 36.0376 16.9884 36.3786 17.0252 36.7091L15.9812 36.8245ZM50.3391 36.3628L49.2951 36.2789C49.3213 35.9431 49.337 35.6021 49.3475 35.2611V35.2244L50.3968 35.2454V35.2821C50.3863 35.6388 50.3705 36.0061 50.3391 36.3628ZM16.936 34.6788L15.8867 34.6578V34.6421C15.892 34.2853 15.913 33.9286 15.9392 33.5771L16.9832 33.661C16.957 33.9915 16.9412 34.3273 16.936 34.663V34.6788ZM49.3318 34.2066C49.316 33.8656 49.2898 33.5246 49.2531 33.1941L50.2971 33.0787C50.3338 33.4354 50.3653 33.7974 50.381 34.1594L49.3318 34.2066ZM17.0986 32.6537L16.0598 32.5068C16.1123 32.1501 16.1753 31.7933 16.2487 31.4418L17.277 31.6569C17.2035 31.9822 17.1458 32.3179 17.0986 32.6537ZM49.1114 32.1868C49.0537 31.8563 48.9855 31.5205 48.9068 31.19L49.9299 30.9487C50.0138 31.3002 50.0872 31.6569 50.1502 32.0084L49.1114 32.1868ZM17.5078 30.6601L16.4953 30.3821C16.5897 30.0358 16.6999 29.6843 16.8153 29.3486L17.8069 29.6896C17.7019 30.0096 17.597 30.3349 17.5078 30.6601ZM48.6393 30.2089C48.5396 29.8837 48.4294 29.5636 48.3088 29.2436L49.2898 28.8711C49.4157 29.2069 49.5364 29.5532 49.6413 29.8994L48.6393 30.2089ZM18.1741 28.7347L17.2035 28.3308C17.3399 28.0003 17.4921 27.6645 17.6547 27.3445L18.5938 27.8061C18.4417 28.1104 18.3 28.4252 18.1741 28.7347ZM47.9205 28.3045C47.7841 27.995 47.632 27.6907 47.4746 27.3917L48.4032 26.8985C48.5711 27.2186 48.7337 27.5438 48.8806 27.8691L47.9205 28.3045ZM19.0712 26.909L18.1636 26.3844C18.342 26.0696 18.5361 25.7601 18.7302 25.4611L19.6063 26.0381C19.4227 26.3214 19.2391 26.6152 19.0712 26.909ZM46.971 26.5103C46.7926 26.2218 46.609 25.9385 46.4148 25.6604L47.2752 25.0571C47.4798 25.3509 47.6844 25.6552 47.8681 25.9647L46.971 26.5103ZM20.1939 25.2092L19.3545 24.5797C19.5696 24.2911 19.8004 24.0078 20.0365 23.735L20.834 24.417C20.6136 24.6741 20.3985 24.9364 20.1939 25.2092ZM45.801 24.842C45.5912 24.5797 45.3656 24.3174 45.14 24.0655L45.9164 23.3625C46.1578 23.6301 46.3939 23.9082 46.6194 24.1862L45.801 24.842ZM21.5212 23.6616L20.771 22.9323C21.0228 22.6753 21.2851 22.4235 21.5527 22.1769L22.2557 22.9533C22.0039 23.1842 21.7573 23.4202 21.5212 23.6616ZM44.4318 23.3363C44.1904 23.1002 43.9386 22.8694 43.6815 22.649L44.3635 21.8516C44.6364 22.0877 44.9039 22.3343 45.1662 22.5808L44.4318 23.3363ZM23.0269 22.2975L22.3711 21.4791C22.6544 21.2535 22.943 21.0384 23.2368 20.8286L23.8401 21.689C23.5673 21.8778 23.2892 22.0824 23.0269 22.2975ZM42.8893 22.0142C42.6165 21.8096 42.3385 21.6103 42.0552 21.4267L42.6323 20.5505C42.9313 20.7499 43.2304 20.9597 43.5189 21.1748L42.8893 22.0142ZM24.6952 21.1276L24.1496 20.2305C24.4539 20.0416 24.7739 19.8633 25.0887 19.6954L25.5766 20.624C25.2776 20.7814 24.9785 20.9492 24.6952 21.1276ZM41.1895 20.8915C40.8958 20.7237 40.5915 20.561 40.2924 20.4141L40.7541 19.475C41.0794 19.6324 41.3994 19.8056 41.7142 19.9839L41.1895 20.8915ZM26.4895 20.178L26.0593 19.2232C26.3845 19.0763 26.7255 18.9347 27.0613 18.8088L27.4285 19.7898C27.1138 19.9105 26.799 20.0364 26.4895 20.178ZM39.3586 19.9892C39.0438 19.858 38.7238 19.7374 38.4038 19.6272L38.7448 18.6356C39.0858 18.7511 39.4268 18.8822 39.7626 19.0186L39.3586 19.9892ZM28.3939 19.4593L28.0843 18.4573C28.4306 18.3523 28.7821 18.2579 29.1283 18.174L29.3697 19.197C29.0444 19.2704 28.7139 19.3596 28.3939 19.4593ZM37.4332 19.3281C37.1079 19.239 36.7722 19.1603 36.4417 19.0921L36.6568 18.0638C37.0083 18.1372 37.365 18.2212 37.7113 18.3156L37.4332 19.3281ZM30.3717 18.9924L30.1933 17.9589C30.5448 17.8959 30.9068 17.8487 31.2688 17.8067L31.379 18.8507C31.0432 18.8875 30.7022 18.9347 30.3717 18.9924ZM35.4396 18.9189C35.1039 18.8717 34.7628 18.835 34.4271 18.8088L34.511 17.7648C34.8678 17.791 35.235 17.833 35.5865 17.8854L35.4396 18.9189ZM32.3968 18.772L32.3496 17.7228C32.7063 17.707 33.0735 17.7018 33.4355 17.707L33.4198 18.7563C33.0735 18.7511 32.7325 18.7563 32.3968 18.772Z" fill="#122436"/>
<path d="M30.3505 37.1499H23.3205C21.7046 37.1499 20.3931 35.8383 20.3931 34.2225V32.082C20.3931 30.4661 21.7046 29.1545 23.3205 29.1545H30.3505V37.1499Z" fill="#4EA4DB"/>
<path d="M24.3854 29.1492C22.1767 29.1492 20.3877 30.9382 20.3877 33.1468C20.3877 33.4301 20.4192 33.7082 20.4769 33.9758C20.8599 32.1658 22.4652 30.807 24.3906 30.807H30.3504V29.1492H24.3854Z" fill="white"/>
<path d="M30.8754 37.6745H23.3207C21.4163 37.6745 19.8687 36.1268 19.8687 34.2224V32.0819C19.8687 30.1775 21.4163 28.6299 23.3207 28.6299H30.8754V37.6745ZM23.3155 29.6739C21.9882 29.6739 20.9127 30.7546 20.9127 32.0767V34.2172C20.9127 35.5445 21.9934 36.62 23.3155 36.62H29.8209V29.6739H23.3155Z" fill="#122436"/>
<path d="M42.8579 30.6077H42.9209C44.2901 30.6077 45.3971 31.7146 45.3971 33.0839V33.2098C45.3971 34.5791 44.2901 35.6861 42.9209 35.6861H42.8579V30.6077Z" fill="white"/>
<path d="M42.9206 36.2159H42.333V30.083H42.9206C44.5732 30.083 45.9215 31.4313 45.9215 33.0839V33.2098C45.9215 34.8676 44.5784 36.2159 42.9206 36.2159ZM43.3823 31.19V35.1089C44.2374 34.8991 44.8722 34.1279 44.8722 33.215V33.0891C44.8722 32.1658 44.2374 31.3946 43.3823 31.19Z" fill="#122436"/>
<path d="M41.2891 40.4235C38.2725 37.7531 34.3797 36.2789 30.3506 36.2789V30.0201C34.3797 30.0201 38.2725 28.5459 41.2891 25.8756C41.8977 25.3352 42.8577 25.7706 42.8577 26.5838V39.7205C42.8577 40.5337 41.8977 40.9639 41.2891 40.4235Z" fill="#FFCD35"/>
<path d="M37.874 29.6948H38.9233V38.3774H37.874V29.6948Z" fill="white"/>
<path d="M41.2891 25.8756C38.2725 28.546 34.3797 30.0202 30.3506 30.0202V32.2341C34.3797 32.2341 38.2725 30.7599 41.2891 28.0895C41.8977 27.5492 42.8577 27.9846 42.8577 28.7978V26.5839C42.8577 25.7654 41.8977 25.3352 41.2891 25.8756Z" fill="white"/>
<path d="M41.9082 41.1895C41.5567 41.1895 41.2157 41.0635 40.9377 40.817C38.0155 38.2306 34.2539 36.8036 30.3454 36.8036H29.8208V29.4902H30.3454C34.2487 29.4902 38.0103 28.0633 40.9377 25.4768C41.3784 25.0886 41.9817 24.9994 42.5168 25.2355C43.0519 25.4768 43.3824 25.991 43.3824 26.5733V39.71C43.3824 40.2976 43.0519 40.8065 42.5168 41.0478C42.3227 41.1475 42.1128 41.1895 41.9082 41.1895ZM41.6354 40.03C41.8191 40.1927 42.0132 40.1297 42.0866 40.0982C42.1601 40.0668 42.3332 39.9618 42.3332 39.7153V26.5786C42.3332 26.332 42.1601 26.2271 42.0866 26.1956C42.0132 26.1641 41.8191 26.1011 41.6354 26.2638C38.6503 28.9079 34.8467 30.4083 30.8753 30.5343V35.7648C34.8467 35.8855 38.6503 37.3911 41.6354 40.03Z" fill="#122436"/>
<path d="M29.6317 43.5817H27.4913C26.8617 43.5817 26.3108 43.1568 26.1534 42.543L24.7632 37.1445H27.9739L29.6317 43.5817Z" fill="#FFCD35"/>
<path d="M27.969 38.2569V37.1499H24.7583L25.0468 38.2569H27.969Z" fill="white"/>
<path d="M30.3088 44.1064H27.4916C26.6207 44.1064 25.86 43.5188 25.6449 42.6742L24.0815 36.6252H28.3729L30.3088 44.1064ZM25.4403 37.6744L26.6626 42.4171C26.7623 42.7948 27.1033 43.0624 27.4968 43.0624H28.9553L27.565 37.6744H25.4403ZM23.709 31.6045H26.5315V32.6537H23.709V31.6045ZM23.709 33.5928H26.5315V34.6421H23.709V33.5928Z" fill="#122436"/>
<path d="M28.4935 39.6994H27.1242C26.8357 39.6994 26.5996 39.4633 26.5996 39.1748C26.5996 38.8862 26.8357 38.6501 27.1242 38.6501H28.4935C28.7821 38.6501 29.0181 38.8862 29.0181 39.1748C29.0181 39.4686 28.7821 39.6994 28.4935 39.6994Z" fill="#122436"/>
<path d="M28.9339 41.4885H27.5647C27.2761 41.4885 27.04 41.2524 27.04 40.9638C27.04 40.6753 27.2761 40.4392 27.5647 40.4392H28.9339C29.2225 40.4392 29.4586 40.6753 29.4586 40.9638C29.4586 41.2524 29.2277 41.4885 28.9339 41.4885Z" fill="#122436"/>
<path d="M34.0022 18.6093C34.0022 18.1687 33.6454 17.8119 33.2047 17.8119H31.3003L31.5679 16.28C31.6414 15.8655 31.6256 15.4668 31.5259 15.0838C31.379 14.533 31.0695 14.0346 30.6078 13.6044C30.3822 13.3945 30.0675 13.3368 29.7789 13.4418C29.4956 13.5519 29.3015 13.8037 29.27 14.108C29.1966 14.8635 28.9815 15.897 28.3677 16.5161C27.7434 17.1456 26.5629 18.2001 25.9124 18.772L25.6921 18.9661V18.5674C25.6921 18.4205 25.5714 18.2998 25.4245 18.2998H23.0112C22.8643 18.2998 22.7437 18.4205 22.7437 18.5674V23.4307C22.7437 23.5776 22.8643 23.6982 23.0112 23.6982H25.4245C25.5714 23.6982 25.6921 23.5776 25.6921 23.4307V23.0477L30.2563 23.8242C30.3245 23.8451 30.398 23.8556 30.4714 23.8556H33.2152C33.6559 23.8556 34.0127 23.4989 34.0127 23.0582V18.6093H34.0022Z" fill="white"/>
<path d="M30.6287 13.8145C30.6287 13.8145 30.5605 15.6716 29.527 17.0147C28.4882 18.3577 25.5503 20.5349 25.5503 20.5349V22.9535L29.868 23.625L29.7945 20.2831C29.7945 20.2831 29.7578 18.3315 30.0411 18.0902C30.3244 17.8488 30.9225 17.9433 30.9225 17.9433L31.3212 17.3609C31.3212 17.3609 31.615 16.1123 31.5311 15.488C31.4524 14.8637 30.6287 13.8145 30.6287 13.8145Z" fill="#FFCD35"/>
<path d="M22.8696 19.5117H25.5452V23.5618H22.8696V19.5117Z" fill="#4EA4DB"/>
<path d="M25.288 24.0865H23.137C22.7016 24.0865 22.3501 23.735 22.3501 23.2996V18.6986C22.3501 18.2631 22.7016 17.9116 23.137 17.9116H25.288C25.7235 17.9116 26.075 18.2631 26.075 18.6986V23.2996C26.075 23.735 25.7235 24.0865 25.288 24.0865ZM23.3941 23.0372H25.0205V18.9609H23.3941V23.0372Z" fill="#122436"/>
<path d="M24.2124 19.9419C24.45 19.9419 24.6426 19.7493 24.6426 19.5117C24.6426 19.2741 24.45 19.0815 24.2124 19.0815C23.9748 19.0815 23.7822 19.2741 23.7822 19.5117C23.7822 19.7493 23.9748 19.9419 24.2124 19.9419Z" fill="#122436"/>
<path d="M33.2045 18.9399H30.4607C30.0935 18.9399 29.7944 19.239 29.7944 19.6062V23.0583C29.7944 23.4255 30.0935 23.7246 30.4607 23.7246H33.2045C33.5718 23.7246 33.8708 23.4255 33.8708 23.0583V19.6062C33.8655 19.239 33.5718 18.9399 33.2045 18.9399Z" fill="#FFCD35"/>
<path d="M32.5541 24.2439H31.1008C30.0883 24.2439 29.2646 23.4202 29.2646 22.4077V19.2547C29.2646 18.2421 30.0883 17.4185 31.1008 17.4185H32.5541C33.5666 17.4185 34.3903 18.2421 34.3903 19.2547V22.4077C34.3903 23.4202 33.5666 24.2439 32.5541 24.2439ZM31.1061 18.4677C30.6707 18.4677 30.3192 18.8192 30.3192 19.2547V22.4077C30.3192 22.8431 30.6707 23.1946 31.1061 23.1946H32.5593C32.9948 23.1946 33.3463 22.8431 33.3463 22.4077V19.2547C33.3463 18.8192 32.9948 18.4677 32.5593 18.4677H31.1061Z" fill="#122436"/>
<path d="M25.8914 19.6587L25.2041 18.8665C25.2251 18.8508 27.2134 17.1248 28.0791 16.2486C28.6142 15.7083 28.8031 14.7692 28.8713 14.0767C28.9132 13.6255 29.207 13.2425 29.632 13.0799C30.0569 12.9172 30.5291 13.0064 30.8648 13.316C31.3842 13.7986 31.7305 14.36 31.8984 14.9843C32.0138 15.4197 32.0295 15.8814 31.9508 16.3483L31.657 18.0324L30.6235 17.854L30.9173 16.1699C30.975 15.8499 30.9593 15.5404 30.8858 15.2518C30.7704 14.8216 30.5291 14.4282 30.1566 14.0872C30.1041 14.0399 30.0464 14.0452 30.0097 14.0609C29.973 14.0767 29.931 14.1081 29.9205 14.1763C29.8366 15.0367 29.5795 16.2224 28.8293 16.9831C27.9322 17.8907 25.9753 19.5853 25.8914 19.6587Z" fill="#122436"/>
<path d="M25.479 23.4091L25.6259 22.3701L30.8312 23.1061L30.6843 24.145L25.479 23.4091Z" fill="#122436"/>
<path d="M15.5244 42.0447L19.0971 39.9829L22.6699 42.0447V46.1735L19.0971 48.2353L15.5244 46.1735V42.0447Z" fill="#4EA4DB"/>
<path d="M19.0973 48.8386L15 46.4725V41.7403L19.0973 39.3743L23.1947 41.7403V46.4725L19.0973 48.8386ZM16.0493 45.8692L19.0973 47.6267L22.1454 45.8692V42.3489L19.0973 40.5914L16.0493 42.3489V45.8692Z" fill="#122436"/>
<path d="M18.5728 42.0918H19.622V46.2101H18.5728V42.0918Z" fill="white"/>
<path d="M17.041 43.6289H21.1593V44.6782H17.041V43.6289Z" fill="white"/>
<path d="M37.2178 44.0383H50.4751V51.9287H37.2178V44.0383Z" fill="white"/>
<path d="M51 52.4586H36.6934V43.5137H51V52.4586ZM37.7426 51.4093H49.9507V44.5629H37.7426V51.4093Z" fill="#122436"/>
<path d="M43.8438 48.5974L36.9502 44.4895L37.4853 43.5872L43.8438 47.375L50.2023 43.5872L50.7427 44.4895L43.8438 48.5974Z" fill="#122436"/>
<defs>
<linearGradient id="paint0_linear_118_4252" x1="44.6317" y1="52.1505" x2="68.1807" y2="0.360676" gradientUnits="userSpaceOnUse">
<stop stop-color="#FFE033"/>
<stop offset="1" stop-color="#FFE033"/>
</linearGradient>
</defs>
</svg>
